<?xml version="1.0" encoding="UTF-8"?>
<svg width="3885.8pt" height="1026.6pt" preserveAspectRatio="xMidYMid" version="1.0" viewBox="-1 0 3885.8 1026.6" xmlns="http://www.w3.org/2000/svg">
 <g transform="matrix(.1 0 0 -.1 -805.7 1009.2)">
  <g transform="matrix(10.532 0 0 -10.532 19217 16078)">
   <g transform="matrix(.2004 0 0 -.2004 -1168.8 1405.9)" stroke-width=".54084">
    <g>
     <path d="m546 4165c-8-21-8-248 0-269 5-13 23-16 93-16 97-1 117-10 131-61 6-21 10-455 10-1121v-1088h350v860h113c97 0 117-3 151-23 43-24 38-16 271-447 211-393 199-383 483-388l192-4v302h-72c-94 0-141 14-170 49-14 15-91 151-174 301-91 167-165 290-191 318-24 25-43 47-43 49s25 29 55 61c30 31 169 215 310 407l255 350-192 3c-106 1-197 1-203-2-5-2-109-141-229-310-265-369-249-356-438-356h-118v613c0 336-5 630-10 651-12 53-38 87-86 111-35 18-63 20-260 23-199 3-222 2-228-13z"/>
     <path d="m9590 3494c-14-2-59-9-100-15-293-42-570-241-703-505-80-160-110-315-97-506 9-128 19-176 55-276 71-196 215-371 396-479 107-64 188-96 317-123 134-29 353-25 474 8 295 80 523 265 647 525 116 243 115 567-3 823-150 324-476 531-864 548-53 3-108 3-122 0zm285-338c152-51 290-170 359-311 49-101 69-189 69-315 2-208-80-388-232-514-64-53-116-81-206-111-160-54-376-30-511 57-199 127-305 327-306 578-1 114 17 194 71 305 131 275 458 409 756 311z"/>
     <path d="m3238 3480c-287-52-527-231-648-486-176-369-116-842 143-1120 89-95 169-155 281-209 256-124 571-130 856-18 117 46 299 162 300 190 0 13-138 243-146 243-2 0-27-18-56-40-113-86-288-153-432-166-191-17-418 74-531 213-80 98-145 259-145 360v43h1337l6 73c7 86-6 245-29 335-70 278-243 471-499 558-71 24-98 27-235 30-85 1-176-1-202-6zm281-281c114-26 206-101 263-216 36-72 66-197 55-227-6-14-56-16-487-16-391 0-480 2-480 13 0 7 7 38 16 68 84 282 351 442 633 378z"/>
     <path d="m7443 3480c-154-28-324-135-426-270l-26-35-1 70c0 92-28 150-85 179-37 19-58 21-253 21h-213l-1-145v-145l95-5c59-3 101-10 109-18 10-10 14-234 18-1130l5-1117h350l2 475c1 261 2 479 3 483 0 4 19-16 43-45 147-181 397-262 671-218 255 41 485 228 591 480 149 352 116 805-79 1099-54 80-158 181-240 230-31 18-95 47-143 64-79 27-103 30-228 33-77 2-163-1-192-6zm187-304c204-43 343-191 401-426 17-67 22-116 22-230 0-129-3-155-27-235-36-119-85-204-159-276-104-102-220-145-367-137-77 5-99 10-172 46-144 70-245 203-294 387-26 98-27 371-1 465 80 296 326 463 597 406z"/>
     <path d="m11895 3481c-159-27-350-146-422-263-31-50-40-41-40 36-1 102-27 148-106 181-29 12-80 15-242 15h-205v-300h93c83 0 96-3 113-21 18-20 19-56 22-1135l2-1114h350l2 485 3 485 43-55c112-144 304-227 522-227 137 1 236 24 360 85 89 43 118 64 191 137 134 132 200 253 251 459 32 124 32 433 1 567-75 322-260 546-528 638-69 24-99 28-220 31-77 2-162 0-190-4zm243-322c243-84 377-344 359-694-14-264-122-451-314-546-80-40-95-44-180-47-253-11-444 145-522 428-58 209-28 482 71 647 121 200 364 288 586 212z"/>
    </g>
    <path d="m4420 3300v-150h41c55 0 95-25 118-75 16-36 170-390 505-1169 64-149 116-278 116-289 0-28-88-234-125-292-35-55-97-115-143-139-110-57-261-31-363 61l-38 34-14-23c-13-22-29-49-100-176l-29-53 23-25c37-40 140-101 209-125 87-30 248-37 343-15 166 39 318 161 405 324 17 31 87 197 156 367 68 171 229 567 356 880 127 314 241 594 253 624 25 64 62 91 125 91h42v300h-144c-187 0-239-18-292-102-14-21-70-161-125-311s-148-400-205-556c-58-156-117-326-132-378-14-51-29-88-32-81-4 7-15 45-25 83-15 61-84 237-390 996-83 207-113 266-150 296-54 46-84 53-240 53h-145z" fill="#0194d5"/>
   </g>
  </g>
  <g transform="matrix(156.28 0 0 -156.28 33966 12778)" fill-rule="evenodd" featurekey="nRdZyp-0">
   <g fill-rule="evenodd">
    <path d="m43.697 35.715c-1.6885 0.44286-2.5267 2.1377-3.8137 3.1672-2.6666 2.6659-5.3306 5.3345-7.9988 7.9988-1.8671-1.6235-3.3148-3.7723-5.4793-5.0283-1.4228-0.39274-2.6544 0.75802-3.4038 1.8316-6.2475 7.0111-7.5897 17.925-3.1929 26.225 3.8435 7.5747 12.016 12.812 20.533 12.866 6.509 0.12002 13.127-2.4584 17.521-7.3333 0.81633-1.1922 0.1204-2.8082-0.97119-3.5652-1.2633-1.2459-2.5242-2.4942-3.7776-3.7501 3.6927-3.7756 7.624-7.3357 11.123-11.287 0.77712-1.7005-1.1709-3.9263-2.928-3.0599-1.5265 0.69513-2.3886 2.2351-3.6568 3.2679-2.612 2.5939-5.2221 5.1899-7.8354 7.7825-4.8825-4.8799-9.7634-9.7614-14.643-14.645 3.6641-3.7354 7.5125-7.3158 11.001-11.203 0.78896-1.5388-0.72952-3.7083-2.4772-3.2674zm-17.73 11.836c8.8451 8.8605 17.699 17.713 26.547 26.57-6.5637 5.2702-16.764 5.3069-23.31-0.0084-5.7417-4.4331-8.6422-12.354-6.7803-19.422 0.63074-2.6188 1.8274-5.085 3.463-7.222l0.06985 0.07156z"/>
    <path d="m58.275 17.297c-6.1165 0.25934-12.24 2.8238-16.303 7.4785-0.68492 1.2912 0.16525 2.8257 1.268 3.5746 9.8786 9.8764 19.739 19.771 29.681 29.584 1.2761 0.83383 2.9808 0.02273 3.6899-1.1857 6.3485-6.8598 7.9249-17.647 3.7749-26.04-3.3603-7.0753-10.431-12.329-18.243-13.226-1.2812-0.1715-2.5764-0.22385-3.868-0.18516zm0.82422 4.6406c8.3383-0.12218 16.338 5.9749 18.32 14.092 1.4373 5.4993 0.34447 11.709-3.1367 16.217-0.78653 0.23406-1.1033-0.74178-1.6352-1.1039-8.4064-8.4038-16.816-16.805-25.22-25.211 3.3226-2.5483 7.4779-3.9897 11.672-3.9941z" fill="#0194d5"/>
    <path d="m18.162 24.988c-1.8312 0.22127-2.6528 2.9985-1.088 4.0829 2.5668 2.5877 5.1236 5.2637 7.7755 7.7159 1.363 1.0587 3.4973-0.0452 3.6094-1.7207 0.10528-1.4064-1.1923-2.3387-2.0681-3.2381-2.3613-2.1857-4.412-4.7131-6.9749-6.6819-0.39081-0.17307-0.83342-0.18719-1.2539-0.1582z" fill="#0194d5"/>
    <path d="m31.816 17.971c-1.5909 0.16182-2.5257 2.0753-1.9142 3.493 0.62257 3.2488 0.8644 6.581 1.8244 9.754 0.98171 1.5273 3.8717 1.1471 4.1349-0.75681 0.29804-1.6677-0.47215-3.2779-0.57262-4.9315-0.40412-2.2017-0.54186-4.4847-1.3375-6.5896-0.4705-0.67168-1.325-1.0331-2.1349-0.96914z"/>
   </g>
  </g>
 </g>
</svg>
