<?xml version="1.0" encoding="UTF-8"?>
<svg width="3668.6pt" height="1070.7pt" preserveAspectRatio="xMidYMid" version="1.0" viewBox="-1 0 3668.6 1070.7" xmlns="http://www.w3.org/2000/svg" xmlns:xlink="http://www.w3.org/1999/xlink">
 <g transform="matrix(.1 0 0 -.1 -805.7 1154)" fill="#fff">
  <g transform="matrix(10.532 0 0 -10.532 19217 15685)">
   <g transform="matrix(.2004 0 0 -.2004 -1168.8 1405.9)" fill="#fff" stroke-width=".54084">
    <path d="m546 4165c-8-21-8-248 0-269 5-13 23-16 93-16 97-1 117-10 131-61 6-21 10-455 10-1121v-1088h350v860h113c97 0 117-3 151-23 43-24 38-16 271-447 211-393 199-383 483-388l192-4v302h-72c-94 0-141 14-170 49-14 15-91 151-174 301-91 167-165 290-191 318-24 25-43 47-43 49s25 29 55 61c30 31 169 215 310 407l255 350-192 3c-106 1-197 1-203-2-5-2-109-141-229-310-265-369-249-356-438-356h-118v613c0 336-5 630-10 651-12 53-38 87-86 111-35 18-63 20-260 23-199 3-222 2-228-13z"/>
    <path d="m9590 3494c-14-2-59-9-100-15-293-42-570-241-703-505-80-160-110-315-97-506 9-128 19-176 55-276 71-196 215-371 396-479 107-64 188-96 317-123 134-29 353-25 474 8 295 80 523 265 647 525 116 243 115 567-3 823-150 324-476 531-864 548-53 3-108 3-122 0zm285-338c152-51 290-170 359-311 49-101 69-189 69-315 2-208-80-388-232-514-64-53-116-81-206-111-160-54-376-30-511 57-199 127-305 327-306 578-1 114 17 194 71 305 131 275 458 409 756 311z"/>
    <path d="m3238 3480c-287-52-527-231-648-486-176-369-116-842 143-1120 89-95 169-155 281-209 256-124 571-130 856-18 117 46 299 162 300 190 0 13-138 243-146 243-2 0-27-18-56-40-113-86-288-153-432-166-191-17-418 74-531 213-80 98-145 259-145 360v43h1337l6 73c7 86-6 245-29 335-70 278-243 471-499 558-71 24-98 27-235 30-85 1-176-1-202-6zm281-281c114-26 206-101 263-216 36-72 66-197 55-227-6-14-56-16-487-16-391 0-480 2-480 13 0 7 7 38 16 68 84 282 351 442 633 378z"/>
    <path d="m7443 3480c-154-28-324-135-426-270l-26-35-1 70c0 92-28 150-85 179-37 19-58 21-253 21h-213l-1-145v-145l95-5c59-3 101-10 109-18 10-10 14-234 18-1130l5-1117h350l2 475c1 261 2 479 3 483 0 4 19-16 43-45 147-181 397-262 671-218 255 41 485 228 591 480 149 352 116 805-79 1099-54 80-158 181-240 230-31 18-95 47-143 64-79 27-103 30-228 33-77 2-163-1-192-6zm187-304c204-43 343-191 401-426 17-67 22-116 22-230 0-129-3-155-27-235-36-119-85-204-159-276-104-102-220-145-367-137-77 5-99 10-172 46-144 70-245 203-294 387-26 98-27 371-1 465 80 296 326 463 597 406z"/>
    <path d="m11895 3481c-159-27-350-146-422-263-31-50-40-41-40 36-1 102-27 148-106 181-29 12-80 15-242 15h-205v-300h93c83 0 96-3 113-21 18-20 19-56 22-1135l2-1114h350l2 485 3 485 43-55c112-144 304-227 522-227 137 1 236 24 360 85 89 43 118 64 191 137 134 132 200 253 251 459 32 124 32 433 1 567-75 322-260 546-528 638-69 24-99 28-220 31-77 2-162 0-190-4zm243-322c243-84 377-344 359-694-14-264-122-451-314-546-80-40-95-44-180-47-253-11-444 145-522 428-58 209-28 482 71 647 121 200 364 288 586 212z"/>
    <path d="m4420 3300v-150h41c55 0 95-25 118-75 16-36 170-390 505-1169 64-149 116-278 116-289 0-28-88-234-125-292-35-55-97-115-143-139-110-57-261-31-363 61l-38 34-14-23c-13-22-29-49-100-176l-29-53 23-25c37-40 140-101 209-125 87-30 248-37 343-15 166 39 318 161 405 324 17 31 87 197 156 367 68 171 229 567 356 880 127 314 241 594 253 624 25 64 62 91 125 91h42v300h-144c-187 0-239-18-292-102-14-21-70-161-125-311s-148-400-205-556c-58-156-117-326-132-378-14-51-29-88-32-81-4 7-15 45-25 83-15 61-84 237-390 996-83 207-113 266-150 296-54 46-84 53-240 53h-145z"/>
   </g>
  </g>
  <g transform="matrix(.99058 0 0 .99058 35468 -959.68)" stroke-width="1.0095">
   <path d="m5568.5 12619c-17.999 1-20.498-2.752-23.498-10.752-7-20-55.011-372.01-55.011-401.01 0-22 5.0079-26.002 43.008-32.002 692-110 1323-390 1889-840 130-103 452.02-418.99 555.02-544.99 395-484 644-963 802-1546 104-385 154.99-865.02 132-1240-6-98.999-14.008-192.99-17.008-210.99-5-28-2.9923-33.006 17.008-37.006 46.999-9.9994 411-46.991 416-41.991 27 27 36.997 640 13.997 881-84.999 911.99-408.02 1711-980.01 2425-128 160-420.99 461-575.99 592-613 517-1327 854.01-2100 989.01-65 11-98.493 16.75-116.49 17.75zm-1301.4-0.391c-19.875 1.625-56.628-4.876-127.13-18.376-797-150-1497-482-2105-998-144-123-404-385.99-529-536.99-481-579.99-811.01-1268-950.01-1980-69-358-80.998-482.99-78.998-824.99 1-232 16.994-537 27.994-548 4.9999-5 426.01 46 432.01 52 3 3-2e-3 67.002-6.0016 143-58 719 81.997 1439 405.99 2087 574 1148 1636 1944 2888 2166 65.999 12 121 23.003 123 25.003 3 3-40.011 320-55.011 403-3 19-5.9889 28.734-25.863 30.359zm-206.13-1096.4c-3 3-41.996-4.007-85.996-17.007-389-114-760-296.01-1075-528-295-218-566.01-493-767.01-777-228-322-407.99-702.99-511.99-1080-56.999-206-105-519.02-117-757.02l-6.9985-132.99h450l6.0015 153.01c29 705 340.99 1410 851.99 1923 231 232 467.01 408 735 548 163 84.994 444 195.99 568 225.99 27.999 6 55.002 16.016 58.002 21.016 5 9-93.998 408.99-105 420.99zm1727.7-3.753c-17.25-1.5-21.74-12.747-27.74-35.247-5-21-28.006-108-50.006-194-23-86-40.994-165-40.994-175 0-15 12.987-22.99 62.987-35.99 250-64.994 586-219.99 827-380.99 217-144 462.01-364 637.01-572 96.999-114 245-333 327-482 215-390 341-858.01 359-1333l3.0106-74.99 222-3.0105 222-1.994v42.011c0 85.999-20.997 327-39.997 458-89.999 617-354 1204-756 1684-172 203.99-286.01 315-494 481-340 272-747 485-1147 600-56.999 16.5-87.006 24.744-104.26 23.244zm145.23-1119.6-113.07-437.21c64.792-33.24 128.35-69.191 189.1-109.46 390-260 690.99-686.01 803.99-1139 20.424-81.95 35.566-165.31 45.706-249.07h443.94c-28.912 294.58-106.9 575.17-238.64 835.08-187 369-441 665.01-770 896.01-84.892 59.96-226.58 138.05-361.03 203.66zm-2018.5-5.043-84.471-25.629c-468-237-845.02-618-1071-1083-114-232-173-416-223-690-4.5272-25.654-5.4042-98.745-8.2497-131.08h442.55c2.8933 22.259 3.837 42.368 8.6993 70.083 28 165 68.998 310 131 457 178.25 421.24 511.88 771.27 914.23 978.27zm-1406.6-3615.7c-4.751-1451.2-2.4575-1427-68.891-1558.9-46.999-91.999-172-214-268.99-262-40-21-78.999-37.006-84.999-37.006s-27 29.998-45.999 65.998c-41 77-130 179.02-208 236.02-108 79.999-239 120.99-392 120.99-509 1-831-540.01-593-996 56-106 174-221.99 281-275.99 206-103 419.01-105 617.01-6.9986 139 70 234.99 168 309.99 320l39.997 79.995 90.004 26c238 70 423 200 574 404 84.999 115 164.75 290.66 180.75 414.65 4 28 8.7905 50.914 10.244 56.36-0.3445 8.2434 8.0121 329.99 9.0121 726.99 0.9461 375.61 2.8409 652.46 4.7308 685.94zm488.47 0c10.676-12.3 20.226-23.25 32.354-37.886v37.886zm3877.6 0v-155.47c2.4294-102.38 5.0241-224.62 5.0241-499.46 0-546 2.9971-717 13.997-783 65.999-409 357.01-736 753.01-848l92.995-26 46.996-95.008c38.999-79.999 61.015-110.01 132.01-181 90.999-89.999 172.99-139 295.99-176 92.999-28 268-25.992 365 4.0075 197 61 338.01 183 427.01 366.99 109 230 70.994 518-96.005 718-182 218-467 296.02-744.99 203.02-147-50-289.02-170.01-366.02-311.01-47-84.999-41.984-83.003-135.98-38.003-150 72.999-269.02 217.01-320.02 389.01-16.672 53.937-17.893 173.14-19.823 1431.9zm-2865-1015.3v-1141.7c0-1118-2.9971-1386-13.997-1431-57-234-220.01-403.01-441.01-460.01-129-33-133.99-30.99-171.99 49.01-66 139-173.01 245.99-318 315.99-109 52.999-171 66.017-293 66.017-166-1-297.01-48.014-428.01-152.01-247-197-316.99-551.99-165.99-843.99 24.999-48.999 61.009-95.005 121.01-155 99.999-98.999 187-148.01 321-181 209-53 443.99 7.9995 608.99 157 61.999 56 139.01 162.01 167.01 230.01 19.999 48.999 27.994 53.994 86.993 53.994 77.999 0 230.01 38.002 335.01 84.002 129 55.999 228.98 122.99 324.98 219.99 175 176 279 392 306 639 7 62.999 11.006 533.02 11.006 1372 0 776.42 0.8905 1058.9 5.4933 1177.7zm1370.2 0 1.8572-1253.7 2.991-1354 26.997-97.999c32-114 97.012-256.01 159.01-344 176-248 466.99-419.01 753.99-441.01l90.004-6.9985 45.002-84.999c81.999-154 208.99-267 373.99-331 106-40.999 252.01-51.003 370-25.003 395 87.999 626.01 495.01 499.01 878.01-24 72.999-89.01 185.99-140.01 242.99-72.999 81.999-219 169.01-338 200.01-76 20-240.99 19.997-321.99 0.997-190-43.999-359-180-450-365l-37.006-72.996-58.999 6.9986c-32.999 3-88.003 17.011-123 29.011-182 65.999-311 198-378 386l-31.005 84.999-2.991 1393-1.6617 1154.7zm3015.2-864.05c30.125-0.125 59.62-4.6257 80.62-13.626 189-78.999 199.01-337.99 17.008-425.99-154-73.999-333 39.988-333 212.99 0 91.999 63.997 183 151 214 23.5 8.5 54.249 12.754 84.374 12.629zm-6987.4-0.3715c46.499 7.25 95.502-1.2549 143-26.254 95.999-50 146.99-172.01 113.99-272.01-45-134-201-204-321-142-148 75-179 257.02-64.004 372.02 37.5 38 81.507 60.996 128.01 68.246zm5647.4-2179.3c28 0.5937 56.875-3.8994 85.625-13.899 152-53.999 202-261 91.001-378-45.999-48.999-98.99-71.002-172.99-71.002-57 0-74.007 3.9888-115.01 29.988-104 64-143 196-90.004 301 41.25 82.499 117.38 130.14 201.37 131.92zm-4266.9-3.2842c34-1.875 67.498-8.6273 88.498-19.627 140-71.999 171-253.99 64.004-368.99-84.999-92.999-237-97.008-325-10.009-51 51-66.996 85.008-72.996 154.01-10 102 54.008 198 154.01 235 23 8.5 57.49 11.493 91.49 9.6182z" fill="#fff" stroke-width="1.0095"/>
  </g>
 </g>
</svg>
