<svg xmlns="http://www.w3.org/2000/svg" width="1235.788" height="1008.666" viewBox="0 0 326.969 266.876"><path d="M-27.817-48.061h305.944c5.54 0 10.001 4.142 10.001 9.288v247.278c0 5.145-4.46 9.288-10.001 9.288H-27.817c-5.54 0-10.001-4.143-10.001-9.288V-38.773c0-5.146 4.46-9.288 10-9.288z" style="opacity:.99;fill:#fff;fill-rule:evenodd;stroke-width:1.02241;stroke-linecap:round;stop-color:#000" transform="translate(38.33 48.572)"/><path d="M168.079 182.617h22.317c1.662 0 3 1.338 3 3v22.317c0 1.662-1.338 3-3 3h-22.317c-1.662 0-3-1.338-3-3v-22.317c0-1.662 1.338-3 3-3z" style="opacity:.99;fill:#fff;stroke:#333;stroke-width:1.2;stroke-linecap:round;stop-color:#000" transform="translate(38.33 48.572)"/><path d="M185.445 195.004h-.539v-3.439a1.878 1.878 0 0 0-1.876-1.876h-.045l-.242-.422a2.58 2.58 0 0 1-.348-1.28c0-1.015-.924-1.84-2.06-1.84h-3.614c-1.136 0-2.06.825-2.06 1.84 0 .44-.12.883-.347 1.28l-.243.422h-.045a1.878 1.878 0 0 0-1.875 1.876v10.421c0 1.035.841 1.876 1.875 1.876h.045l.243.423c.228.396.348.839.348 1.28 0 1.015.923 1.84 2.06 1.84h3.614c1.135 0 2.06-.825 2.06-1.84 0-.441.12-.884.347-1.28l.242-.423h.045a1.878 1.878 0 0 0 1.876-1.876v-3.439h.54a.88.88 0 0 0 .877-.878v-1.787a.88.88 0 0 0-.878-.878zm-1.247 6.983c0 .643-.524 1.167-1.168 1.167h-9.004a1.169 1.169 0 0 1-1.167-1.168v-10.42c0-.644.524-1.168 1.167-1.168h9.004c.644 0 1.168.524 1.168 1.167V198.547z" style="fill:#333;fill-opacity:1;stroke:#333;stroke-width:.35432;stroke-opacity:1" transform="translate(38.33 48.572)"/><path d="M174.277 193.587c.09 0 .181-.035.25-.104l1.417-1.417a.354.354 0 1 0-.5-.501l-1.418 1.417a.354.354 0 0 0 .25.605zM174.277 195.359c.09 0 .181-.035.25-.104l.709-.709a.354.354 0 1 0-.501-.5l-.709.708a.354.354 0 0 0 .25.605zM175.442 193.335a.363.363 0 0 0-.102.252.35.35 0 0 0 .102.248.353.353 0 0 0 .606-.248.372.372 0 0 0-.103-.252.371.371 0 0 0-.503 0zM176.152 193.129a.353.353 0 0 0 .501 0l1.063-1.063a.354.354 0 1 0-.501-.501l-1.063 1.063a.354.354 0 0 0 0 .5zM177.215 193.336l-3.189 3.19a.354.354 0 1 0 .501.5l3.189-3.188a.354.354 0 1 0-.501-.502zM177.926 192.627a.346.346 0 0 0-.106.251c0 .096.038.185.103.252.067.064.159.103.251.103a.373.373 0 0 0 .252-.103.372.372 0 0 0 .102-.252.372.372 0 0 0-.102-.251.366.366 0 0 0-.5 0zM178.987 191.565l-.355.354a.354.354 0 1 0 .501.501l.355-.354a.354.354 0 1 0-.501-.501z" style="fill:#333;fill-opacity:1;stroke:#333;stroke-width:.35432;stroke-opacity:1" transform="translate(38.33 48.572)"/><path fill="none" stroke="currentColor" stroke-linecap="round" stroke-linejoin="round" d="M182.62 197.65a2.835 2.835 0 0 0-2.004-3.472m.977 3.196a1.772 1.772 0 0 0-1.253-2.17m.226 1.895a.709.709 0 0 0-.5-.868" style="fill:none;fill-opacity:1;stroke:#333;stroke-width:.354319;stroke-opacity:1" transform="translate(38.33 48.572)"/><path d="M201.648 182.617h22.317c1.662 0 3 1.338 3 3v22.317c0 1.662-1.338 3-3 3h-22.317c-1.662 0-3-1.338-3-3v-22.317c0-1.662 1.338-3 3-3z" style="opacity:.99;fill:#fff;stroke:#333;stroke-width:1.2;stroke-linecap:round;stop-color:#000" transform="translate(38.33 48.572)"/><path fill="none" stroke="currentColor" stroke-linecap="round" stroke-linejoin="round" d="M223.361 191.595a5.47 5.47 0 0 0-5.47-5.47m3.42 5.47a3.419 3.419 0 0 0-3.42-3.419m1.368 3.419c0-.755-.612-1.368-1.367-1.368" style="stroke:#333;stroke-width:1.20161;stroke-miterlimit:4;stroke-dasharray:none;stroke-opacity:1" transform="translate(38.33 48.572)"/><path d="M211.433 194.947a4.449 4.449 0 0 1-4.449 4.449 4.449 4.449 0 0 1-4.449-4.45 4.449 4.449 0 0 1 4.449-4.448 4.449 4.449 0 0 1 4.449 4.449z" style="opacity:.99;fill:none;stroke:#333;stroke-width:1.76932;stroke-linecap:round;stop-color:#000" transform="translate(38.33 48.572)"/><path d="M209.21 195.695h9.027v5.097h-9.028z" style="opacity:.99;fill:#fff;stroke:#000;stroke-width:.000778201;stroke-linecap:round;stop-color:#000" transform="translate(38.33 48.572)"/><path d="m222.223 200.609-4.073-4.073c.402-1.466-.005-3.008-1.117-4.12a4.308 4.308 0 0 0-6.09-.005c-1.68 1.68-1.687 4.422-.006 6.102 1.112 1.112 2.698 1.475 4.101 1.136l4.074 4.073c.848.848 2.248.827 3.096-.021l.037-.037c.848-.848.827-2.207-.02-3.055zm-8.736-6.661a.704.704 0 1 1-.996.996.704.704 0 0 1 .996-.996z" style="fill:#333;fill-opacity:1;stroke:#333;stroke-width:.0880359;stroke-opacity:1" transform="translate(38.33 48.572)"/><path d="M210.705 200.35v5.502c0 1.2 1.005 2.175 2.204 2.175h.052c1.2 0 2.146-.975 2.146-2.175h-.001v-5.49a4.279 4.279 0 0 1-4.4-.011z" style="fill:#333;fill-opacity:1;stroke-width:.0880359" transform="translate(38.33 48.572)"/><path d="M60.506 182.617h22.317c1.662 0 3 1.338 3 3v22.317c0 1.662-1.338 3-3 3H60.506c-1.662 0-3-1.338-3-3v-22.317c0-1.662 1.338-3 3-3z" style="opacity:.99;fill:#fff;stroke:#333;stroke-width:1.2;stroke-linecap:round;stop-color:#000" transform="translate(38.33 48.572)"/><path d="M75.788 185.786H67.54a2.473 2.473 0 0 0-2.47 2.47v17.04a2.473 2.473 0 0 0 2.47 2.47h8.248a2.473 2.473 0 0 0 2.47-2.47v-17.04a2.473 2.473 0 0 0-2.47-2.47zm1.738 19.51a1.74 1.74 0 0 1-1.738 1.737H67.54a1.74 1.74 0 0 1-1.737-1.737v-17.04c0-.958.78-1.738 1.737-1.738h8.248c.958 0 1.738.78 1.738 1.738z" style="fill:#333;fill-opacity:1;stroke:#333;stroke-width:.366339;stroke-opacity:1" transform="translate(38.33 48.572)"/><path d="M70.565 187.617h2.198a.366.366 0 1 0 0-.732h-2.198a.366.366 0 1 0 0 .732z" style="fill:#333;fill-opacity:1;stroke-width:.366339" transform="translate(38.33 48.572)"/><path d="M75.694 187.617h.366a.366.366 0 1 0 0-.732h-.366a.366.366 0 1 0 0 .732z" style="fill:#fff;fill-opacity:1;stroke-width:.366339" transform="translate(38.33 48.572)"/><path d="M74.228 187.617h.367a.366.366 0 1 0 0-.732h-.367a.366.366 0 1 0 0 .732zM72.58 204.835h-1.832a.917.917 0 0 0 0 1.832h1.832a.917.917 0 0 0 0-1.832zm0 1.1h-1.832a.186.186 0 0 1-.183-.184c0-.1.084-.183.183-.183h1.832c.1 0 .183.084.183.183 0 .1-.084.183-.183.183zM66.169 187.984v16.485h10.99v-16.485z" style="fill:#333;fill-opacity:1;stroke-width:.366339" transform="translate(38.33 48.572)"/><path fill="none" stroke="currentColor" stroke-linecap="round" stroke-linejoin="round" d="M73.13 193.615a2.93 2.93 0 0 0-2.931-2.93m1.831 2.93c0-1.012-.82-1.832-1.831-1.832m.732 1.832a.733.733 0 0 0-.732-.733" style="stroke:#fff;stroke-width:.366338;stroke-opacity:1" transform="translate(38.33 48.572)"/><path d="M26.936 182.617h22.317c1.662 0 3 1.338 3 3v22.317c0 1.662-1.338 3-3 3H26.936c-1.662 0-3-1.338-3-3v-22.317c0-1.662 1.338-3 3-3z" style="opacity:.99;fill:#fff;stroke:#333;stroke-width:1.2;stroke-linecap:round;stop-color:#000" transform="translate(38.33 48.572)"/><path d="M28.383 189.956h19.424c.728 0 1.315.587 1.315 1.315v11.009c0 .728-.587 1.315-1.315 1.315H28.383a1.312 1.312 0 0 1-1.315-1.315V191.27c0-.728.586-1.315 1.315-1.315z" style="opacity:.99;fill:#fff;stroke:#333;stroke-width:.768251;stroke-linecap:round;stop-color:#000" transform="translate(38.33 48.572)"/><path fill="none" stroke="currentColor" stroke-linecap="round" stroke-linejoin="round" d="M37.73 201.292a5.315 5.315 0 0 0-3.759-6.51m1.833 5.994a3.322 3.322 0 0 0-2.349-4.068m.424 3.552a1.329 1.329 0 0 0-.94-1.627" style="stroke:#333;stroke-width:.664406;stroke-opacity:1" transform="translate(38.33 48.572)"/><path d="m31.656 195.112-.785-.401v-.083c.35-.192.598-.507.735-.94a.641.641 0 0 0 .342-.568v-.216c0-.2-.093-.384-.248-.506-.134-.814-.702-1.227-1.69-1.227-.047 0-.093.002-.137.005a1.098 1.098 0 0 1-.695-.159.882.882 0 0 1-.197-.17.266.266 0 0 0-.397-.014.258.258 0 0 0-.063.201c.009.081.022.175.043.277.042.21.042.21-.017.336-.022.048-.049.106-.08.184a2.405 2.405 0 0 0-.152.57.643.643 0 0 0-.244.503v.215c0 .242.133.458.342.568.138.434.384.75.735.94v.081l-.812.4a.921.921 0 0 0-.48.81v.285c0 .173 0 .578 2.154.578s2.154-.405 2.154-.578v-.268a.916.916 0 0 0-.508-.824z" style="fill:#333;fill-opacity:1;stroke:#333;stroke-width:.215393;stroke-opacity:1" transform="translate(38.33 48.572)"/><path d="M39.878 196.06h3.193a.319.319 0 1 0 0-.64h-3.193a.319.319 0 1 0 0 .64zM44.348 196.06h.32a.319.319 0 1 0 0-.64h-.32a.319.319 0 1 0 0 .64zM40.197 200.849h-.319a.319.319 0 1 0 0 .639h.32a.319.319 0 1 0 0-.639zM42.113 200.849h-.638a.319.319 0 1 0 0 .639h.638a.319.319 0 1 0 0-.639zM43.71 200.849h-.32a.319.319 0 1 0 0 .639h.32a.319.319 0 1 0 0-.639zM45.626 200.849h-.64a.319.319 0 1 0 0 .639h.64a.319.319 0 1 0 0-.639zM46.676 200.942a.333.333 0 0 0-.092.226c0 .083.034.166.092.227.06.057.144.093.227.093a.336.336 0 0 0 .227-.093.336.336 0 0 0 .092-.227.335.335 0 0 0-.092-.226.334.334 0 0 0-.454 0zM46.903 197.337h-7.025a.319.319 0 1 0 0 .638h7.025a.319.319 0 1 0 0-.638zM46.903 199.252h-7.025a.319.319 0 1 0 0 .639h7.025a.319.319 0 1 0 0-.639z" style="fill:#333;fill-opacity:1;stroke:#333;stroke-width:.319307;stroke-opacity:1" transform="translate(38.33 48.572)"/><g aria-label="Secure Media" style="font-weight:700;font-size:10.5833px;line-height:6.61458px;font-family:&quot;Open Sans&quot;;-inkscape-font-specification:&quot;Open Sans, Bold&quot;;text-align:center;letter-spacing:0;word-spacing:0;baseline-shift:baseline;text-anchor:middle;opacity:1;vector-effect:none;fill:#186a3b;stroke-width:.165;stop-color:#000;stop-opacity:1"><path d="M95.396 198.478q0 .672-.326 1.168-.325.496-.95.765-.62.269-1.51.269-.392 0-.77-.052-.372-.052-.718-.15-.341-.103-.651-.253v-1.488q.537.237 1.116.428.579.192 1.147.192.393 0 .63-.104.244-.103.352-.284.109-.18.109-.413 0-.285-.191-.486-.192-.202-.528-.377-.33-.176-.749-.378-.263-.124-.573-.3-.31-.18-.59-.439-.279-.258-.46-.625-.175-.372-.175-.889 0-.677.31-1.157t.884-.734q.578-.258 1.364-.258.589 0 1.121.14.538.134 1.122.392l-.517 1.245q-.522-.212-.936-.325-.413-.12-.842-.12-.3 0-.511.1-.212.092-.32.268-.11.17-.11.398 0 .268.156.454.16.181.475.352.32.17.796.398.579.274.987.573.413.295.635.698.223.398.223.992zM99.023 194.69q.801 0 1.38.31.579.305.894.89.315.583.315 1.425v.765h-3.725q.025.667.397 1.05.378.377 1.044.377.553 0 1.013-.114.46-.114.946-.341v1.22q-.43.211-.9.31-.464.098-1.131.098-.868 0-1.54-.32-.667-.321-1.05-.977-.376-.657-.376-1.654 0-1.013.34-1.685.347-.677.962-1.013.615-.34 1.431-.34zm.01 1.122q-.46 0-.764.294-.3.295-.346.925h2.211q-.005-.351-.129-.625-.119-.274-.362-.434-.237-.16-.61-.16zM105.24 200.68q-.858 0-1.462-.31-.605-.316-.92-.972-.315-.656-.315-1.68 0-1.059.356-1.725.362-.672.997-.987.641-.316 1.484-.316.599 0 1.033.12.44.113.765.273l-.465 1.22q-.372-.15-.693-.243-.32-.098-.64-.098-.414 0-.688.196-.274.191-.408.579-.134.387-.134.971 0 .574.144.951.145.377.419.563.274.181.667.181.49 0 .873-.129.382-.134.744-.372v1.349q-.362.227-.76.325-.392.104-.997.104zM113.637 194.799v5.777h-1.209l-.212-.739h-.082q-.186.295-.465.48-.28.187-.615.275-.336.088-.698.088-.62 0-1.08-.217-.46-.223-.718-.688-.254-.465-.254-1.209V194.8h1.577v3.374q0 .62.222.936.222.315.708.315.48 0 .754-.217.274-.222.383-.646.113-.429.113-1.044V194.8zM118.516 194.69q.119 0 .274.016.16.01.258.03l-.119 1.479q-.077-.026-.222-.036-.14-.016-.243-.016-.305 0-.594.078-.285.077-.512.253-.227.17-.362.455-.129.279-.129.687v2.94h-1.576V194.8h1.194l.232.971h.078q.17-.294.424-.537.258-.248.584-.393.33-.15.713-.15zM122.48 194.69q.8 0 1.379.31.579.305.894.89.315.583.315 1.425v.765h-3.726q.026.667.398 1.05.378.377 1.044.377.553 0 1.013-.114.46-.114.946-.341v1.22q-.43.211-.9.31-.465.098-1.131.098-.868 0-1.54-.32-.667-.321-1.05-.977-.376-.657-.376-1.654 0-1.013.34-1.685.347-.677.962-1.013.615-.34 1.431-.34zm.01 1.122q-.46 0-.765.294-.3.295-.346.925h2.211q-.005-.351-.129-.625-.119-.274-.362-.434-.237-.16-.61-.16zM132.422 200.576l-1.82-5.927h-.046l.031.64q.026.425.047.905.02.48.02.868v3.514h-1.431v-7.555h2.18l1.789 5.778h.03l1.897-5.778h2.181v7.555h-1.493V197q0-.356.01-.821.015-.465.036-.884l.031-.636h-.046l-1.949 5.917zM141.46 194.69q.8 0 1.38.31.578.305.894.89.315.583.315 1.425v.765h-3.726q.026.667.398 1.05.377.377 1.044.377.553 0 1.013-.114.46-.114.945-.341v1.22q-.429.211-.899.31-.465.098-1.132.098-.868 0-1.54-.32-.666-.321-1.049-.977-.377-.657-.377-1.654 0-1.013.341-1.685.347-.677.962-1.013.614-.34 1.43-.34zm.01 1.122q-.46 0-.765.294-.3.295-.346.925h2.212q-.005-.351-.13-.625-.118-.274-.361-.434-.238-.16-.61-.16zM147.16 200.68q-.967 0-1.576-.755-.605-.76-.605-2.227 0-1.483.615-2.243.615-.765 1.607-.765.414 0 .729.114t.542.305q.233.191.393.429h.052q-.031-.166-.078-.486-.041-.326-.041-.667v-1.85h1.581v8.041h-1.209l-.305-.75h-.067q-.15.239-.377.435-.222.191-.532.305-.31.114-.73.114zm.553-1.256q.646 0 .91-.383.268-.387.283-1.162v-.17q0-.843-.258-1.288-.258-.45-.961-.45-.522 0-.817.45-.294.45-.294 1.298 0 .847.294 1.276.3.429.843.429zM153.604 194.799v5.777h-1.576V194.8zm-.786-2.264q.352 0 .605.166.253.16.253.604 0 .44-.253.61-.253.166-.605.166-.356 0-.61-.166-.247-.17-.247-.61 0-.444.248-.604.253-.166.61-.166zM157.624 194.68q1.163 0 1.783.506.62.507.62 1.54v3.85h-1.1l-.305-.785h-.042q-.248.31-.506.506-.258.197-.594.29-.336.093-.817.093-.511 0-.92-.197-.403-.196-.635-.6-.233-.407-.233-1.033 0-.92.646-1.354.646-.439 1.938-.485l1.002-.031v-.254q0-.454-.237-.666-.238-.212-.662-.212-.418 0-.821.119-.403.119-.807.3l-.521-1.065q.46-.243 1.028-.382.574-.14 1.183-.14zm.837 3.22-.61.02q-.764.02-1.064.274-.294.253-.294.667 0 .361.211.516.212.15.553.15.507 0 .853-.3.351-.3.351-.852z" style="baseline-shift:baseline;vector-effect:none;stop-color:#000;stop-opacity:1" transform="translate(38.33 48.572)"/></g><path d="M-26.124-34.876h22.317c1.662 0 3 1.338 3 3V-9.56c0 1.662-1.338 3-3 3h-22.317c-1.662 0-3-1.338-3-3v-22.317c0-1.662 1.338-3 3-3z" style="opacity:.99;fill:#fff;stroke:#333;stroke-width:1.2;stroke-linecap:round;stop-color:#000" transform="translate(36.742 42.222)"/><g style="fill-rule:evenodd"><g style="fill-rule:evenodd"><path d="M245 19a19 19 0 0 1-19 19 19 19 0 0 1-19-19 19 19 0 0 1 19-19 19 19 0 0 1 19 19ZM294 19a19 19 0 0 1-19 19 19 19 0 0 1-19-19 19 19 0 0 1 19-19 19 19 0 0 1 19 19ZM165 44h170c36.01 0 65 28.99 65 65v240c0 36.01-28.99 65-65 65H165c-36.01 0-65-28.99-65-65V109c0-36.01 28.99-65 65-65z" style="opacity:1;vector-effect:none;fill:#333;stop-color:#000;stop-opacity:1" transform="matrix(.04418 0 0 .04418 10.731 9.575)"/><g fill="#fff" style="fill-rule:evenodd"><path d="M20.362 12.137h2.872c.27 0 .486.217.486.486v.84c0 .269-.217.486-.486.486h-2.872a.485.485 0 0 1-.486-.486v-.84c0-.27.217-.486.486-.486zM18.242 14.523h7.113c.832 0 1.502.67 1.502 1.502v1.9c0 .832-.67 1.502-1.502 1.502h-7.113c-.833 0-1.503-.67-1.503-1.502v-1.9c0-.832.67-1.502 1.503-1.502zM19.39 24.993a1.325 1.325 0 0 1-1.325 1.326 1.325 1.325 0 0 1-1.326-1.326 1.325 1.325 0 0 1 1.326-1.325 1.325 1.325 0 0 1 1.325 1.325zM26.812 24.993a1.325 1.325 0 0 1-1.325 1.326 1.325 1.325 0 0 1-1.325-1.326 1.325 1.325 0 0 1 1.325-1.325 1.325 1.325 0 0 1 1.325 1.325z"/></g></g><path d="m96 530 66-98h176l66 98" style="fill:none;stroke:#333;stroke-width:36" transform="matrix(.04418 0 0 .04418 10.731 9.575)"/></g><path d="M88.983 58.753H111.3c1.662 0 3 1.338 3 3V84.07c0 1.662-1.338 3-3 3H88.983c-1.662 0-3-1.338-3-3V61.753c0-1.662 1.338-3 3-3z" style="opacity:.99;vector-effect:none;fill:#fff;stroke:#333;stroke-width:1.2;stroke-linecap:round;stop-color:#000;stop-opacity:1" transform="translate(-44.797 -51.407)"/><g style="font-variation-settings:normal;opacity:1;vector-effect:none;fill:#333;fill-opacity:1;stroke:none;stroke-width:.205668;stroke-linecap:butt;stroke-linejoin:miter;stroke-miterlimit:4;stroke-dasharray:none;stroke-dashoffset:0;stroke-opacity:1;-inkscape-stroke:none;stop-color:#000;stop-opacity:1"><path d="M39 14h22c1.1 0 1.823-.882 1.607-1.961l-1.215-6.078C61.177 4.882 60.1 4 59 4H41c-1.1 0-2.176.882-2.392 1.961l-1.216 6.078C37.176 13.118 37.9 14 39 14ZM100 45.5c0-3.025-2.475-5.5-5.5-5.5h-6.577l-4.769-12.4c-1.185-3.08-4.75-6.342-7.924-7.249C75.23 20.352 67 18 50 18s-25.231 2.352-25.231 2.352c-3.173.907-6.738 4.168-7.923 7.249L12.077 40H5.5C2.475 40 0 42.475 0 45.5S2.475 51 5.5 51h2.346l-1.692 4.4C4.969 58.479 4 63.7 4 67v26c0 3.85 3.15 7 7 7s7-3.15 7-7v-4h64v4c0 3.85 3.15 7 7 7s7-3.15 7-7V67c0-3.3-.97-8.521-2.154-11.6L92.153 51H94.5c3.025 0 5.5-2.475 5.5-5.5zm-82.309 1.624 5.617-15.247C23.689 30.845 24.9 30 26 30h48c1.1 0 2.312.845 2.691 1.876l5.617 15.247C82.688 48.155 82.1 49 81 49H19c-1.1 0-1.689-.845-1.309-1.876zM17.5 72a5.502 5.502 0 0 1-5.5-5.5c0-3.035 2.463-5.5 5.5-5.5s5.5 2.465 5.5 5.5-2.463 5.5-5.5 5.5zm65 0a5.5 5.5 0 1 1 0-11 5.5 5.5 0 1 1 0 11z" style="font-variation-settings:normal;opacity:1;vector-effect:none;fill:#333;fill-opacity:1;stroke:none;stroke-width:.205668;stroke-linecap:butt;stroke-linejoin:miter;stroke-miterlimit:4;stroke-dasharray:none;stroke-dashoffset:0;stroke-opacity:1;-inkscape-stroke:none;stop-color:#000;stop-opacity:1" transform="translate(44.605 10.334) scale(.21481)"/></g><path d="M83.036 56.607h22.317c1.662 0 3 1.338 3 3v22.317c0 1.662-1.338 3-3 3H83.036c-1.662 0-3-1.338-3-3V59.607c0-1.662 1.338-3 3-3z" style="opacity:.99;vector-effect:none;fill:#fff;stroke:#333;stroke-width:1.2;stroke-linecap:round;stop-color:#000;stop-opacity:1" transform="translate(-5.28 -49.26)"/><path d="M87.19 61.139a2.625 2.625 0 0 0-2.622 2.622V77.77a2.625 2.625 0 0 0 2.622 2.622H101.2a2.625 2.625 0 0 0 2.622-2.622V63.761a2.625 2.625 0 0 0-2.622-2.622zm2.59 2.6h3.739c1.393 0 2.304.067 2.732.2.684.218 1.246.681 1.687 1.39.448.71.671 1.624.671 2.742 0 1.016-.191 1.87-.575 2.56-.383.684-.863 1.167-1.438 1.448-.575.275-1.566.412-2.972.412H92.1v5.302h-2.32zm2.32 2.377v3.988h1.285c.863 0 1.447-.06 1.754-.182.313-.122.569-.34.767-.652.198-.32.297-.71.297-1.17 0-.466-.102-.86-.307-1.179-.204-.32-.457-.534-.757-.642-.3-.109-.936-.163-1.908-.163z" style="font-variation-settings:normal;opacity:1;vector-effect:none;fill:#333;fill-opacity:1;stroke:none;stroke-width:.0441798;stroke-linecap:butt;stroke-linejoin:miter;stroke-miterlimit:4;stroke-dasharray:none;stroke-dashoffset:0;stroke-opacity:1;-inkscape-stroke:none;stop-color:#000;stop-opacity:1" transform="translate(-5.28 -49.26)"/><path d="M122.563 57.898h22.317c1.662 0 3 1.338 3 3v22.317c0 1.662-1.338 3-3 3h-22.317c-1.662 0-3-1.338-3-3V60.898c0-1.662 1.338-3 3-3z" style="opacity:.99;vector-effect:none;fill:#fff;stroke:#333;stroke-width:1.2;stroke-linecap:round;stop-color:#000;stop-opacity:1" transform="translate(-11.237 -50.552)"/><g style="font-variation-settings:normal;opacity:1;vector-effect:none;fill:#0f4dc6;fill-opacity:1;stroke:none;stroke-width:.951418;stroke-linecap:butt;stroke-linejoin:miter;stroke-miterlimit:4;stroke-dasharray:none;stroke-dashoffset:0;stroke-opacity:1;-inkscape-stroke:none;stop-color:#000;stop-opacity:1"><g style="font-variation-settings:normal;opacity:1;vector-effect:none;fill:#333;fill-opacity:1;stroke:none;stroke-width:.951418;stroke-linecap:butt;stroke-linejoin:miter;stroke-miterlimit:4;stroke-dasharray:none;stroke-dashoffset:0;stroke-opacity:1;-inkscape-stroke:none;stop-color:#000;stop-opacity:1"><path d="M393.043 206.632c-9.813 0-19.641 1.697-29.208 5.044l-1.996.698-32.147-58.406v-25.365h38.517c7.402 0 13.424-6.022 13.424-13.425 0-7.403-6.021-13.425-13.424-13.425H317.17c-7.401 0-13.424 6.022-13.424 13.425 0 1.084.148 2.211.44 3.349l.078.306v25.69H187.152l-9.644-21.476h27.897c7.009 0 12.71-5.703 12.71-12.714 0-7.01-5.701-12.713-12.71-12.713h-95.083c-7.011 0-12.714 5.703-12.714 12.713 0 7.011 5.703 12.714 12.714 12.714h39.322l8.49 19.248-38.149 70.096-2.007-.703c-9.557-3.351-19.38-5.049-29.198-5.049-48.953 0-88.78 39.829-88.78 88.784 0 48.953 39.827 88.779 88.78 88.779 43.436 0 80.206-31.113 87.434-73.98l.351-2.086h37.787l.724.688c5.776 5.48 13.335 8.5 21.284 8.5 17.056 0 30.932-13.876 30.932-30.932 0-2.946-.422-5.881-1.255-8.719l-.293-.998 51.233-93.079 22.596 41.054-1.652 1.312c-21.39 16.999-33.657 42.316-33.657 69.462 0 48.952 39.826 88.778 88.779 88.778 48.953 0 88.78-39.826 88.78-88.778 0-48.96-39.827-88.792-88.78-88.792zM129.84 247.173l2.349 2.219c8.702 8.213 14.881 18.647 17.867 30.177l.811 3.127h-40.578zm20.216 64.092c-7.254 27.965-32.451 47.496-61.274 47.496-34.934 0-63.354-28.42-63.354-63.354s28.421-63.353 63.354-63.353c5.101 0 10.373.686 15.672 2.039l3.128.8-29.93 54.403a5.562 5.562 0 0 1-.259.59c-.208.43-.363.803-.488 1.164-.175.463-.294.838-.382 1.197-.099.373-.169.73-.239 1.193a8.487 8.487 0 0 0-.131 1.293l-.005.132a6.432 6.432 0 0 1-.06.51l-.007.056.005.041c.02.144.036.285.045.426.028.504.081.981.145 1.453.054.344.116.729.214 1.114.094.378.208.751.354 1.153.149.45.293.811.464 1.174.156.348.338.66.549 1.023l.051.089c.215.377.407.674.611.944.229.313.479.619.814.994.263.285.534.586.834.86.31.28.638.541.97.803.319.239.675.503 1.029.706l.147.092c.101.067.201.143.302.219l.092.067c.202.064.4.148.598.255.341.166.741.334 1.105.459a11.429 11.429 0 0 0 2.377.625c.499.084.962.131 1.427.148.136-.008.346.021.565.05l62.087.009zm62.486-44.608a30.9 30.9 0 0 0-6.574 13.998l-.383 2.039h-29.02l-.351-2.085c-3.637-21.568-15.111-40.981-32.312-54.661l-1.651-1.313 29.183-53.023 42.102 93.848zm34.789-9.263-1.94-.592a30.912 30.912 0 0 0-6.979-1.268l-1.502-.098-38.342-85.497h96.908zm145.712 101.367c-34.933 0-63.353-28.42-63.353-63.354 0-17.544 7.082-33.887 19.941-46.018l2.35-2.217 29.927 54.367a12.7 12.7 0 0 0 11.15 6.58c2.17 0 4.229-.529 6.122-1.575a12.591 12.591 0 0 0 6.076-7.593 12.673 12.673 0 0 0-1.077-9.688l-29.925-54.372 3.126-.8c5.291-1.354 10.564-2.04 15.678-2.04 34.934 0 63.354 28.42 63.354 63.353-.016 34.937-28.442 63.357-63.369 63.357z" style="font-variation-settings:normal;vector-effect:none;fill:#333;fill-opacity:1;stroke:none;stroke-width:.951418;stroke-linecap:butt;stroke-linejoin:miter;stroke-miterlimit:4;stroke-dasharray:none;stroke-dashoffset:0;stroke-opacity:1;-inkscape-stroke:none;stop-color:#000;stop-opacity:1" transform="matrix(.04644 0 0 .04644 111.297 10.318)"/></g></g><g aria-label="Solutions" style="font-weight:700;font-size:10.5833px;line-height:6.61458px;font-family:&quot;Open Sans&quot;;-inkscape-font-specification:&quot;Open Sans, Bold&quot;;text-align:center;letter-spacing:0;word-spacing:0;baseline-shift:baseline;text-anchor:middle;opacity:1;vector-effect:none;fill:#186a3b;stroke-width:.165;stop-color:#000;stop-opacity:1"><path d="M106.984-18.943q0 .672-.326 1.168-.325.496-.95.765-.62.269-1.51.269-.392 0-.77-.052-.372-.052-.718-.15-.34-.103-.651-.253v-1.488q.537.237 1.116.429.579.19 1.147.19.393 0 .63-.103.244-.103.352-.284.109-.18.109-.413 0-.284-.191-.486-.192-.201-.527-.377-.331-.176-.75-.377-.263-.124-.573-.3-.31-.181-.59-.44-.279-.258-.46-.625-.175-.372-.175-.888 0-.677.31-1.158.31-.48.884-.734.578-.258 1.364-.258.589 0 1.121.14.538.134 1.122.392l-.517 1.245q-.522-.211-.936-.325-.413-.119-.842-.119-.3 0-.511.098-.212.093-.32.269-.11.17-.11.398 0 .269.156.455.16.18.475.351.32.17.796.398.579.274.987.574.413.294.636.697.222.398.222.992zM113.48-19.744q0 .724-.197 1.282-.191.558-.563.946-.367.382-.889.578-.517.197-1.168.197-.61 0-1.121-.197-.507-.196-.884-.578-.372-.388-.579-.946-.201-.558-.201-1.282 0-.96.34-1.627.342-.667.972-1.013.63-.347 1.504-.347.811 0 1.437.347.63.346.987 1.013.361.666.361 1.627zm-3.995 0q0 .569.124.956.124.388.387.584.264.197.688.197.418 0 .677-.197.263-.196.382-.584.124-.387.124-.956 0-.573-.124-.95-.119-.383-.382-.574-.264-.191-.688-.191-.625 0-.91.429-.278.429-.278 1.286zM116.358-16.845h-1.576v-8.04h1.576zM123.313-22.622v5.777h-1.209l-.212-.739h-.082q-.186.295-.465.481-.28.186-.615.274-.336.088-.698.088-.62 0-1.08-.217-.46-.223-.718-.688-.254-.465-.254-1.209v-3.767h1.577v3.374q0 .62.222.936.222.315.708.315.48 0 .754-.217.274-.222.383-.646.113-.429.113-1.044v-2.718zM127.401-17.997q.258 0 .501-.052.248-.051.491-.129v1.173q-.253.114-.63.186-.372.078-.817.078-.516 0-.93-.166-.408-.17-.646-.584-.232-.418-.232-1.162v-2.786h-.755v-.666l.868-.527.455-1.22h1.008v1.23h1.617v1.183h-1.617v2.786q0 .33.186.496.191.16.501.16zM131.137-22.622v5.777h-1.576v-5.777zm-.785-2.263q.351 0 .604.165.254.16.254.605 0 .439-.254.61-.253.165-.604.165-.357 0-.61-.166-.248-.17-.248-.61 0-.444.248-.604.253-.165.61-.165zM138.041-19.744q0 .724-.196 1.282-.191.558-.563.946-.367.382-.89.578-.516.197-1.167.197-.61 0-1.122-.197-.506-.196-.883-.578-.372-.388-.579-.946-.202-.558-.202-1.282 0-.96.342-1.627.34-.667.971-1.013.63-.347 1.504-.347.811 0 1.436.347.63.346.987 1.013.362.666.362 1.627zm-3.994 0q0 .569.124.956.124.388.387.584.264.197.688.197.418 0 .676-.197.264-.196.383-.584.124-.387.124-.956 0-.573-.124-.95-.119-.383-.383-.574-.263-.191-.687-.191-.625 0-.91.429-.278.429-.278 1.286zM142.625-22.73q.925 0 1.488.506.563.501.563 1.612v3.767H143.1v-3.374q0-.62-.227-.935-.222-.316-.703-.316-.723 0-.987.491-.263.491-.263 1.416v2.718h-1.577v-5.777h1.204l.212.739h.088q.186-.3.46-.486.28-.186.615-.274.341-.088.703-.088zM150.33-18.56q0 .589-.28.997-.273.403-.82.615-.549.207-1.365.207-.605 0-1.039-.078-.429-.077-.868-.258v-1.302q.47.211 1.008.351.542.134.95.134.46 0 .657-.134.201-.14.201-.362 0-.144-.082-.258-.078-.119-.341-.264-.264-.15-.827-.387-.543-.228-.894-.46-.346-.233-.517-.548-.165-.32-.165-.811 0-.801.62-1.204.625-.409 1.669-.409.537 0 1.023.109.491.108 1.008.346l-.476 1.137q-.429-.186-.811-.305-.377-.119-.77-.119-.346 0-.522.093-.176.093-.176.285 0 .14.088.248.093.108.352.243.263.129.77.335.49.202.852.424.362.217.558.543.197.32.197.832z" style="baseline-shift:baseline;vector-effect:none;stop-color:#000;stop-opacity:1" transform="translate(38.33 42.222)"/></g><path d="M159.196 57.553h22.317c1.662 0 3 1.338 3 3V82.87c0 1.662-1.338 3-3 3h-22.317c-1.662 0-3-1.338-3-3V60.553c0-1.662 1.338-3 3-3z" style="opacity:.99;vector-effect:none;fill:#fff;stroke:#333;stroke-width:1.2;stroke-linecap:round;stop-color:#000;stop-opacity:1" transform="translate(35.473 -50.207)"/><g style="font-variation-settings:normal;opacity:1;vector-effect:none;fill:#333;fill-opacity:1;stroke:none;stroke-width:.843119;stroke-linecap:butt;stroke-linejoin:miter;stroke-miterlimit:4;stroke-dasharray:none;stroke-dashoffset:0;stroke-opacity:1;-inkscape-stroke:none;stop-color:#000;stop-opacity:1"><path d="M374.878 79.565h-15.102V52.723C359.777 23.605 336.172 0 307.054 0H94.225C65.107 0 41.502 23.605 41.502 52.723v26.842H26.401c-6.063 0-10.978 4.915-10.978 10.979v60.812c0 6.063 4.915 10.978 10.978 10.978h15.102v131.081c-5.874 5.265-9.572 12.908-9.572 21.417v20.316c0 15.883 12.875 28.758 28.758 28.758h3.558v28.914c0 4.672 3.79 8.459 8.462 8.459h38.908a8.458 8.458 0 0 0 8.458-8.459v-28.914h161.13v28.914a8.458 8.458 0 0 0 8.459 8.459h38.907a8.46 8.46 0 0 0 8.461-8.459v-28.914h3.559c15.882 0 28.758-12.875 28.758-28.758v-20.316c0-8.508-3.698-16.152-9.572-21.417V162.333h15.102c6.062 0 10.978-4.915 10.978-10.978V90.543c-.001-6.063-4.915-10.978-10.979-10.978Zm-47.703 4.29v129.731H215.019V83.855ZM144.722 27.49h111.836c7.765 0 14.06 6.294 14.06 14.06 0 7.764-6.294 14.059-14.06 14.059H144.722c-7.765 0-14.06-6.295-14.06-14.059 0-7.766 6.295-14.06 14.06-14.06zM74.105 83.855h112.156v129.731H74.105Zm50.198 187.608c0 7.643-6.216 13.858-13.86 13.858H87.572c-7.631 0-13.846-6.216-13.846-13.858v-15.42c0-7.645 6.215-13.859 13.846-13.859h22.871c7.644 0 13.86 6.215 13.86 13.859zm152.675 0v-15.42c0-7.645 6.215-13.859 13.859-13.859h22.871c7.631 0 13.846 6.215 13.846 13.859v15.42c0 7.643-6.215 13.858-13.846 13.858h-22.871c-7.643.001-13.859-6.216-13.859-13.858z" style="font-variation-settings:normal;vector-effect:none;fill:#333;fill-opacity:1;stroke:none;stroke-width:.843119;stroke-linecap:butt;stroke-linejoin:miter;stroke-miterlimit:4;stroke-dasharray:none;stroke-dashoffset:0;stroke-opacity:1;-inkscape-stroke:none;stop-color:#000;stop-opacity:1" transform="translate(195.314 10.99) scale(.0524)"/></g><path d="M187.792-34.876h22.317c1.662 0 3 1.338 3 3V-9.56c0 1.662-1.338 3-3 3h-22.317c-1.662 0-3-1.338-3-3v-22.317c0-1.662 1.338-3 3-3z" style="opacity:.99;vector-effect:none;fill:#fff;stroke:#333;stroke-width:1.2;stroke-linecap:round;stop-color:#000" transform="translate(40.446 42.222)"/><g style="font-variation-settings:normal;vector-effect:none;fill:#0f4dc6;fill-opacity:1;stroke:none;stroke-width:.374969;stroke-linecap:butt;stroke-linejoin:miter;stroke-miterlimit:4;stroke-dasharray:none;stroke-dashoffset:0;stroke-opacity:1;-inkscape-stroke:none;stop-color:#000"><g style="font-variation-settings:normal;opacity:1;vector-effect:none;fill:#333;fill-opacity:1;stroke:none;stroke-width:.0596809;stroke-linecap:butt;stroke-linejoin:miter;stroke-miterlimit:4;stroke-dasharray:none;stroke-dashoffset:0;stroke-opacity:1;-inkscape-stroke:none;stop-color:#000;stop-opacity:1"><g style="font-variation-settings:normal;vector-effect:none;fill:#333;fill-opacity:1;stroke:none;stroke-width:.0596809;stroke-linecap:butt;stroke-linejoin:miter;stroke-miterlimit:4;stroke-dasharray:none;stroke-dashoffset:0;stroke-opacity:1;-inkscape-stroke:none;stop-color:#000;stop-opacity:1"><path d="M7.592 16.86a3.203 3.203 0 0 0-3.203 3.204 3.203 3.203 0 1 0 3.203-3.204zm0 4.172a.97.97 0 0 1-.968-.967.97.97 0 0 1 .968-.967.968.968 0 0 1 0 1.934z" style="font-variation-settings:normal;vector-effect:none;fill:#333;fill-opacity:1;stroke:none;stroke-width:.0596809;stroke-linecap:butt;stroke-linejoin:miter;stroke-miterlimit:4;stroke-dasharray:none;stroke-dashoffset:0;stroke-opacity:1;-inkscape-stroke:none;stop-color:#000;stop-opacity:1" transform="matrix(.74027 0 0 .74027 227.759 11.772)"/><path d="m30.915 17.439-.524-4.262a1.57 1.57 0 0 0-1.643-1.373l-1.148.064-3.564-3.211a1.865 1.865 0 0 0-1.249-.479l-7.241-.001a7.133 7.133 0 0 0-4.468 1.573l-4.04 3.246-5.433 1.358a1.568 1.568 0 0 0-1.188 1.521v1.566a.415.415 0 0 0-.417.415v2.071c0 .295.239.534.534.534h3.067c-.013-.133-.04-.26-.04-.396a4.028 4.028 0 0 1 4.03-4.029 4.027 4.027 0 0 1 4.029 4.029c0 .137-.028.264-.041.396h8.493c-.012-.133-.039-.26-.039-.396a4.028 4.028 0 1 1 8.057 0c0 .137-.026.264-.04.396h2.861a.533.533 0 0 0 .533-.534v-1.953a.528.528 0 0 0-.529-.535Zm-10.747-5.237-10.102.511L12 11.158a5.911 5.911 0 0 1 3.706-1.305h4.462zm1.678-.085V9.854h.657c.228 0 .447.084.616.237l2.062 1.856z" style="font-variation-settings:normal;vector-effect:none;fill:#333;fill-opacity:1;stroke:none;stroke-width:.0596809;stroke-linecap:butt;stroke-linejoin:miter;stroke-miterlimit:4;stroke-dasharray:none;stroke-dashoffset:0;stroke-opacity:1;-inkscape-stroke:none;stop-color:#000;stop-opacity:1" transform="matrix(.74027 0 0 .74027 227.759 11.772)"/><path d="M24.064 16.86a3.203 3.203 0 0 0-3.203 3.204 3.203 3.203 0 1 0 3.203-3.204zm0 4.172a.968.968 0 0 1-.967-.967c0-.533.434-.967.967-.967a.97.97 0 0 1 .967.967.969.969 0 0 1-.967.967z" style="font-variation-settings:normal;vector-effect:none;fill:#333;fill-opacity:1;stroke:none;stroke-width:.0596809;stroke-linecap:butt;stroke-linejoin:miter;stroke-miterlimit:4;stroke-dasharray:none;stroke-dashoffset:0;stroke-opacity:1;-inkscape-stroke:none;stop-color:#000;stop-opacity:1" transform="matrix(.74027 0 0 .74027 227.759 11.772)"/></g></g><path d="M67.114 117.301v-35.38a3.973 3.973 0 0 1 3.969-3.969h30.58a3.973 3.973 0 0 1 3.97 3.97v2.52h49.777c1.028 0 2.365.456 3.178 1.085l5.168 3.998c.6.465.945 1.141.945 1.856 0 .715-.345 1.391-.945 1.856l-5.168 3.998c-.521.403-1.648 1.086-2.562 1.086-.963 0-2.072-.78-2.575-1.242l-3.746-3.433c-.03-.028-.132-.028-.162 0l-3.746 3.433c-.407.374-1.45 1.242-2.333 1.242-.88 0-1.924-.864-2.332-1.236-.027-.024-2.312-2.106-3.832-3.51l-.258.236-3.565 3.268c-.785.72-2.127 1.242-3.192 1.242h-24.653v18.98a3.973 3.973 0 0 1-3.968 3.969H71.083a3.973 3.973 0 0 1-3.97-3.969zm20.46-9.275c0-4.045-3.41-7.324-7.616-7.324-4.207 0-7.616 3.28-7.616 7.324 0 4.045 3.41 7.324 7.616 7.324 4.206 0 7.616-3.28 7.616-7.324z" style="font-variation-settings:normal;opacity:1;vector-effect:none;fill:#333;fill-opacity:1;stroke:none;stroke-width:.37497;stroke-linecap:butt;stroke-linejoin:miter;stroke-miterlimit:4;stroke-dasharray:none;stroke-dashoffset:0;stroke-opacity:1;-inkscape-stroke:none;stop-color:#000;stop-opacity:1" transform="translate(221.144 4.828) scale(.11782)"/></g><path d="M221.362-34.876h22.317c1.662 0 3 1.338 3 3V-9.56c0 1.662-1.338 3-3 3h-22.317c-1.662 0-3-1.338-3-3v-22.317c0-1.662 1.338-3 3-3zM254.709-34.876h22.317c1.662 0 3 1.338 3 3V-9.56c0 1.662-1.338 3-3 3h-22.317c-1.662 0-3-1.338-3-3v-22.317c0-1.662 1.338-3 3-3z" style="opacity:.99;vector-effect:none;fill:#fff;stroke:#333;stroke-width:1.2;stroke-linecap:round;stop-color:#000" transform="translate(40.446 42.222)"/><g style="font-variation-settings:normal;vector-effect:none;fill:#333;fill-opacity:1;stroke:none;stroke-width:.96943;stroke-linecap:butt;stroke-linejoin:miter;stroke-miterlimit:4;stroke-dasharray:none;stroke-dashoffset:0;stroke-opacity:1;-inkscape-stroke:none;stop-color:#000"><path d="M199.725 0v36.025H85.211v421.66l114.514.094v36.459l209.085-37.555.216-418.867Zm34.679 230.574c7.022 0 12.715 7.408 12.715 16.545 0 9.139-5.692 16.545-12.715 16.545s-12.715-7.406-12.715-16.545c-.001-9.137 5.693-16.545 12.715-16.545zM119.211 423.713V70.025h80.514v353.753z" style="font-variation-settings:normal;vector-effect:none;fill:#333;fill-opacity:1;stroke:none;stroke-width:.96943;stroke-linecap:butt;stroke-linejoin:miter;stroke-miterlimit:4;stroke-dasharray:none;stroke-dashoffset:0;stroke-opacity:1;-inkscape-stroke:none;stop-color:#000;stop-opacity:1" transform="matrix(.04557 0 0 .04557 261.705 10.243)"/></g><g style="font-variation-settings:normal;opacity:1;vector-effect:none;fill:#333;fill-opacity:1;stroke:none;stroke-width:.0326665;stroke-linecap:butt;stroke-linejoin:miter;stroke-miterlimit:4;stroke-dasharray:none;stroke-dashoffset:0;stroke-opacity:1;-inkscape-stroke:none;stop-color:#000;stop-opacity:1"><g style="font-variation-settings:normal;vector-effect:none;fill:#333;fill-opacity:1;stroke:none;stroke-width:.0326665;stroke-linecap:butt;stroke-linejoin:miter;stroke-miterlimit:4;stroke-dasharray:none;stroke-dashoffset:0;stroke-opacity:1;-inkscape-stroke:none;stop-color:#000;stop-opacity:1"><path d="m14.148 7.781-5.579 3.327-5.472-3.327-.455 2.841c.002-.004.006-.007.011-.013a.658.658 0 0 0-.102.337c0 1.003 4.418 4.094 5.821 4.094 1.404 0 6.323-3.091 6.323-4.094 0-.109-.036-.214-.092-.532z" style="font-variation-settings:normal;vector-effect:none;fill:#333;fill-opacity:1;stroke:none;stroke-width:.0326665;stroke-linecap:butt;stroke-linejoin:miter;stroke-miterlimit:4;stroke-dasharray:none;stroke-dashoffset:0;stroke-opacity:1;-inkscape-stroke:none;stop-color:#000;stop-opacity:1" transform="matrix(1.35245 0 0 1.35245 294.675 9.867)"/><path d="M17.211 4.873 8.635 2.17.975 4.613a.83.83 0 0 0-.291.093c-.098.058-.165.142-.17.266L0 11.17l.514 1.708.477-1.708-.202-5.876 7.823 4.813Zm-9.196.245H.783l.756-.413h6.385c.083-.145.279-.247.507-.247.304 0 .55.181.55.403 0 .223-.246.404-.55.404a.613.613 0 0 1-.416-.147Z" style="font-variation-settings:normal;vector-effect:none;fill:#333;fill-opacity:1;stroke:none;stroke-width:.0326665;stroke-linecap:butt;stroke-linejoin:miter;stroke-miterlimit:4;stroke-dasharray:none;stroke-dashoffset:0;stroke-opacity:1;-inkscape-stroke:none;stop-color:#000;stop-opacity:1" transform="matrix(1.35245 0 0 1.35245 294.675 9.867)"/></g></g><g aria-label="Terminals" style="font-weight:700;font-size:10.5833px;line-height:6.61458px;font-family:&quot;Open Sans&quot;;-inkscape-font-specification:&quot;Open Sans, Bold&quot;;text-align:center;letter-spacing:0;word-spacing:0;baseline-shift:baseline;text-anchor:middle;opacity:1;vector-effect:none;fill:#186a3b;stroke-width:.165;stop-color:#000;stop-opacity:1"><path d="M102.972 157.523h-1.601v-6.221h-2.052v-1.334h5.705v1.334h-2.052zM108.445 151.637q.801 0 1.38.31.579.305.894.89.315.583.315 1.426v.764h-3.726q.026.667.398 1.05.377.377 1.044.377.553 0 1.013-.114.46-.114.945-.341v1.22q-.428.211-.899.31-.465.098-1.131.098-.869 0-1.54-.32-.667-.321-1.05-.977-.377-.657-.377-1.654 0-1.013.341-1.685.347-.677.962-1.012.615-.342 1.431-.342zm.01 1.122q-.46 0-.764.294-.3.295-.347.925h2.212q-.005-.351-.13-.625-.118-.274-.36-.434-.239-.16-.61-.16zM115.54 151.637q.119 0 .274.016.16.01.258.031l-.118 1.478q-.078-.026-.223-.036-.14-.016-.243-.016-.304 0-.594.078-.284.077-.511.253-.228.17-.362.455-.13.279-.13.687v2.94h-1.575v-5.777h1.193l.233.972h.077q.17-.295.424-.538.258-.248.584-.393.33-.15.713-.15zM123.907 151.637q.981 0 1.483.507.506.501.506 1.612v3.767h-1.581v-3.374q0-.62-.212-.935-.212-.316-.656-.316-.626 0-.89.45-.263.444-.263 1.276v2.9h-1.576v-3.375q0-.413-.093-.693-.093-.279-.284-.418-.191-.14-.491-.14-.44 0-.692.223-.249.217-.357.646-.103.423-.103 1.038v2.718h-1.577v-5.777h1.205l.211.739h.088q.176-.3.44-.486.268-.186.589-.274.32-.088.65-.088.636 0 1.076.207.444.207.682.64h.14q.258-.443.728-.645.475-.202.977-.202zM129.09 151.746v5.777h-1.576v-5.777Zm-.786-2.263q.352 0 .605.165.253.16.253.605 0 .439-.253.61-.253.165-.605.165-.356 0-.61-.166-.248-.17-.248-.61 0-.444.248-.604.254-.165.61-.165zM134.025 151.637q.925 0 1.488.507.563.501.563 1.612v3.767H134.5v-3.374q0-.62-.227-.935-.222-.316-.703-.316-.723 0-.987.491t-.264 1.416v2.718h-1.576v-5.777h1.204l.212.739h.088q.186-.3.46-.486.28-.186.615-.274.341-.088.703-.088zM140.066 151.627q1.162 0 1.783.507.62.506.62 1.54v3.85h-1.101l-.305-.786h-.041q-.248.31-.507.506-.258.197-.594.29-.336.093-.816.093-.512 0-.92-.197-.403-.196-.636-.6-.232-.407-.232-1.033 0-.92.646-1.354.645-.439 1.937-.485l1.003-.031v-.253q0-.455-.238-.667-.237-.212-.661-.212-.419 0-.822.119-.403.119-.806.3l-.522-1.065q.46-.243 1.028-.382.574-.14 1.184-.14zm.837 3.22-.61.02q-.765.021-1.064.274-.295.253-.295.667 0 .362.212.517.212.15.553.15.506 0 .852-.3.352-.3.352-.853zM145.667 157.523h-1.576v-8.04h1.576zM151.352 155.808q0 .589-.28.997-.273.403-.82.615-.549.207-1.365.207-.605 0-1.039-.078-.429-.077-.868-.258v-1.302q.47.211 1.008.351.542.134.95.134.46 0 .657-.134.201-.14.201-.362 0-.144-.082-.258-.078-.119-.341-.264-.264-.15-.827-.387-.543-.228-.894-.46-.346-.233-.517-.548-.165-.32-.165-.811 0-.801.62-1.204.625-.409 1.669-.409.537 0 1.023.109.491.109 1.008.346l-.476 1.137q-.429-.186-.81-.305-.378-.119-.77-.119-.347 0-.523.093-.176.093-.176.285 0 .14.088.248.093.108.352.243.263.129.77.335.49.202.852.424.362.217.558.543.197.32.197.832z" style="baseline-shift:baseline;vector-effect:none;stop-color:#000;stop-opacity:1" transform="translate(38.33 48.572)"/></g><g style="stroke:#333;stroke-opacity:1"><path d="M159.196 57.553h22.317c1.662 0 3 1.338 3 3V82.87c0 1.662-1.338 3-3 3h-22.317c-1.662 0-3-1.338-3-3V60.553c0-1.662 1.338-3 3-3z" style="opacity:.99;vector-effect:none;fill:#fff;stroke-width:1.2;stroke-linecap:round;stop-color:#000;stop-opacity:1" transform="translate(-49.97 130.24)"/></g><path d="M37.327 139.221h22.317c1.662 0 3 1.338 3 3v22.317c0 1.662-1.338 3-3 3H37.327c-1.662 0-3-1.338-3-3v-22.317c0-1.662 1.338-3 3-3z" style="opacity:.99;vector-effect:none;fill:#fff;stroke:#333;stroke-width:1.2;stroke-linecap:round;stop-color:#000" transform="translate(38.33 48.572)"/><g style="font-variation-settings:normal;vector-effect:none;fill:#333;fill-opacity:1;stroke:none;stroke-width:.166979;stroke-linecap:butt;stroke-linejoin:miter;stroke-miterlimit:4;stroke-dasharray:none;stroke-dashoffset:0;stroke-opacity:1;-inkscape-stroke:none;stop-color:#000"><path d="M304.229 39.136H153v18.571h141.944v176.794h-15.146v-2.615a9.286 9.286 0 1 0-18.571 0v2.615h-9.693v-2.615a9.286 9.286 0 1 0-18.571 0v2.615H153v64.635h51.418a9.287 9.287 0 0 0 6.672-15.745c-.11-.112-9.545-10.375-13.629-30.319H304.23a9.285 9.285 0 0 0 9.286-9.285V48.422a9.286 9.286 0 0 0-9.287-9.286zM130.794 0H11.484a5 5 0 0 0-5 5v310a5 5 0 0 0 5 5h119.309a5 5 0 0 0 5-5V5a4.999 4.999 0 0 0-4.999-5zM85.316 266.053c0 7.817-6.359 14.178-14.178 14.178-7.817 0-14.178-6.36-14.178-14.178v-16.316c0-7.817 6.36-14.177 14.178-14.177 7.818 0 14.178 6.359 14.178 14.177zm0-53.027c0 7.817-6.359 14.178-14.178 14.178-7.817 0-14.178-6.36-14.178-14.178v-16.315c0-7.818 6.36-14.179 14.178-14.179 7.818 0 14.178 6.36 14.178 14.179zm23.416-73.098H33.545c-5.238 0-9.5-4.262-9.5-9.5s4.262-9.5 9.5-9.5h75.188c5.238 0 9.5 4.262 9.5 9.5-.001 5.238-4.262 9.5-9.501 9.5zm0-40.789H33.545c-5.238 0-9.5-4.262-9.5-9.5s4.262-9.5 9.5-9.5h75.188c5.238 0 9.5 4.262 9.5 9.5-.001 5.238-4.262 9.5-9.501 9.5zm0-40.79H33.545c-5.238 0-9.5-4.262-9.5-9.5s4.262-9.5 9.5-9.5h75.188c5.238 0 9.5 4.262 9.5 9.5-.001 5.238-4.262 9.5-9.501 9.5z" style="font-variation-settings:normal;vector-effect:none;fill:#333;fill-opacity:1;stroke:none;stroke-width:.166979;stroke-linecap:butt;stroke-linejoin:miter;stroke-miterlimit:4;stroke-dasharray:none;stroke-dashoffset:0;stroke-opacity:1;-inkscape-stroke:none;stop-color:#000;stop-opacity:1" transform="matrix(.07304 0 0 .07304 108.571 190.534)"/></g><path d="M266.958 54.945h22.317c1.662 0 3 1.338 3 3V80.26c0 1.662-1.338 3-3 3h-22.317c-1.662 0-3-1.338-3-3V57.945c0-1.662 1.338-3 3-3z" style="opacity:.99;vector-effect:none;fill:#fff;stroke:#333;stroke-width:1.2;stroke-linecap:round;stop-color:#000;stop-opacity:1" transform="translate(-37.371 132.85)"/><path d="M41.257 0H18.743A6.75 6.75 0 0 0 12 6.743v46.514A6.75 6.75 0 0 0 18.743 60h22.514A6.75 6.75 0 0 0 48 53.257V6.743A6.75 6.75 0 0 0 41.257 0ZM46 53.257A4.749 4.749 0 0 1 41.257 58H18.743A4.749 4.749 0 0 1 14 53.257V6.743A4.749 4.749 0 0 1 18.743 2h22.514A4.749 4.749 0 0 1 46 6.743Z" style="font-variation-settings:normal;opacity:1;vector-effect:none;fill:#333;fill-opacity:1;stroke:#333;stroke-width:.722237;stroke-linecap:butt;stroke-linejoin:miter;stroke-miterlimit:4;stroke-dasharray:none;stroke-dashoffset:0;stroke-opacity:1;-inkscape-stroke:none;stop-color:#000;stop-opacity:1" transform="matrix(.36634 0 0 .36634 229.786 190.8)"/><path d="M27 5h6a1 1 0 1 0 0-2h-6a1 1 0 1 0 0 2z" style="fill:#333;fill-opacity:1" transform="matrix(.36634 0 0 .36634 229.786 190.8)"/><path d="M41 5h1a1 1 0 1 0 0-2h-1a1 1 0 1 0 0 2z" style="fill:#fff;fill-opacity:1" transform="matrix(.36634 0 0 .36634 229.786 190.8)"/><path d="M37 5h1a1 1 0 1 0 0-2h-1a1 1 0 1 0 0 2zM32.5 52h-5a2.502 2.502 0 0 0-2.5 2.5c0 1.379 1.121 2.5 2.5 2.5h5c1.379 0 2.5-1.121 2.5-2.5S33.879 52 32.5 52Zm0 3h-5a.507.507 0 0 1-.5-.5c0-.271.229-.5.5-.5h5c.271 0 .5.229.5.5s-.229.5-.5.5z" style="fill:#333;fill-opacity:1" transform="matrix(.36634 0 0 .36634 229.786 190.8)"/><path d="M15 6v45h30V6Z" style="font-variation-settings:normal;opacity:1;vector-effect:none;fill:#333;fill-opacity:1;stroke:#333;stroke-width:.722237;stroke-linecap:butt;stroke-linejoin:miter;stroke-miterlimit:4;stroke-dasharray:none;stroke-dashoffset:0;stroke-opacity:1;-inkscape-stroke:none;stop-color:#000;stop-opacity:1" transform="matrix(.36634 0 0 .36634 229.786 190.8)"/><path fill="none" stroke="currentColor" stroke-linecap="round" stroke-linejoin="round" d="M176.595 101.55a2.117 2.117 0 0 0-1.497-2.592m.73 2.387a1.323 1.323 0 0 0-.936-1.62m.17 1.414a.53.53 0 0 0-.375-.648" style="stroke:#fff;stroke-width:.264583;stroke-opacity:1" transform="scale(1.38459) rotate(-15 334.934 128.73)"/><path d="M230.319 57.762h22.317c1.662 0 3 1.338 3 3V83.08c0 1.662-1.338 3-3 3h-22.317c-1.662 0-3-1.338-3-3V60.762c0-1.662 1.338-3 3-3z" style="opacity:.99;vector-effect:none;fill:#fff;stroke:#333;stroke-width:1.2;stroke-linecap:round;stop-color:#000;stop-opacity:1" transform="translate(-34.301 130.031)"/><g style="stroke:#333;stroke-opacity:1"><g style="fill:#333;fill-opacity:1;stroke:#333;stroke-opacity:1"><path d="M360.615 192.202c.112-1.485.169-2.977.169-4.473 0-32.366-26.331-58.697-58.697-58.697a58.616 58.616 0 0 0-25.24 5.698c-9.057-33.236-39.467-57.41-75.257-57.41-41.454 0-75.46 32.506-77.871 73.365a106.357 106.357 0 0 0-17.839-1.502C47.497 149.184 0 196.681 0 255.063s47.497 105.879 105.88 105.879h247.875c46.598 0 84.508-37.91 84.508-84.508 0-44.288-34.246-80.729-77.648-84.232zm-6.86 148.74H105.88c-47.354 0-85.88-38.525-85.88-85.879 0-47.354 38.525-85.879 85.88-85.879a85.873 85.873 0 0 1 25.259 3.78 10 10 0 0 0 12.868-10.737 57.972 57.972 0 0 1-.425-6.898c0-31.985 26.022-58.007 58.008-58.007 30.796 0 56.234 24.064 57.913 54.784a10.002 10.002 0 0 0 16.683 6.881 38.609 38.609 0 0 1 25.901-9.953c21.338 0 38.697 17.359 38.697 38.697 0 3.901-.578 7.75-1.719 11.44a9.998 9.998 0 0 0 10.236 12.93 64.699 64.699 0 0 1 4.453-.173c35.569 0 64.508 28.938 64.508 64.508 0 35.57-28.938 64.506-64.507 64.506z" style="fill:#333;fill-opacity:1;stroke:#333;stroke-opacity:1" transform="translate(195.866 191.095) scale(.05105)"/><path d="M202.939 243.438h-12.827v-38.955c0-5.523-4.478-10-10-10h-43.774c-5.522 0-10 4.477-10 10v38.955h-12.827a10 10 0 0 0-7.931 16.091l44.714 58.218a10.001 10.001 0 0 0 15.862 0l44.715-58.218a9.999 9.999 0 0 0-7.932-16.091zm-44.714 51.801L133.8 263.438h2.538c5.522 0 10-4.477 10-10v-38.955h23.774v38.955c0 5.523 4.478 10 10 10h2.537zM287.969 198.393a10.001 10.001 0 0 0-15.862 0l-44.714 58.218a9.999 9.999 0 0 0 7.931 16.091h12.827v38.955c0 5.523 4.478 10 10 10h43.774c5.522 0 10-4.477 10-10v-38.955h12.827a10 10 0 0 0 7.931-16.091zm13.957 54.309c-5.522 0-10 4.477-10 10v38.955h-23.774v-38.955c0-5.523-4.478-10-10-10h-2.538l24.425-31.801 24.425 31.801z" style="fill:#333;fill-opacity:1;stroke:#333;stroke-opacity:1" transform="translate(195.866 191.095) scale(.05105)"/></g></g><path d="m125.45 165.12-10.437 5.376h5.219V180.277h-5.219l10.438 5.376 10.437-5.376h-5.219V170.496h5.22zM125.45 122.81l-10.437 5.378h5.219V137.969h-5.219l10.438 5.376 10.437-5.376h-5.219V128.188h5.22z" style="font-style:normal;font-weight:400;font-size:10.5833px;line-height:6.61458px;font-family:sans-serif;font-variation-settings:normal;letter-spacing:0;word-spacing:0;opacity:1;vector-effect:none;fill:#ccc;fill-opacity:1;stroke:#000;stroke-width:.518326px;stroke-linecap:butt;stroke-linejoin:miter;stroke-miterlimit:4;stroke-dasharray:none;stroke-dashoffset:0;stroke-opacity:1;-inkscape-stroke:none;stop-color:#000;stop-opacity:1" transform="translate(38.33 48.572)"/><path d="m125.45-15.575-10.437 5.377h5.219V-.417h-5.219l10.438 5.376 10.437-5.376h-5.219V-10.198h5.22z" style="font-style:normal;font-weight:400;font-size:10.5833px;line-height:6.61458px;font-family:sans-serif;letter-spacing:0;word-spacing:0;fill:#ccc;fill-opacity:1;stroke:#000;stroke-width:.518326px;stroke-linecap:butt;stroke-linejoin:miter;stroke-opacity:1" transform="translate(38.33 48.572)"/><path d="M14.688 8.485h221.526c5.54 0 10 4.46 10 10v91.085c0 5.54-4.46 10-10 10H14.688c-5.54 0-10-4.46-10-10V18.485c0-5.54 4.46-10 10-10z" style="fill:#eafaf1;fill-rule:evenodd;stroke:#000;stroke-width:1.056;stroke-miterlimit:4.8;stop-color:#000" transform="translate(38.33 48.572)"/><g style="fill:#338000;stroke:#186a3b;stroke-opacity:1"><path d="M38.005 60.495h174.891c5.54 0 10 4.46 10 10v24.018c0 5.54-4.46 10-10 10H38.005c-5.54 0-10-4.46-10-10V70.495c0-5.54 4.46-10 10-10z" style="opacity:.99;vector-effect:none;fill:#186a3b;fill-rule:evenodd;stroke-width:1.02015;stroke-linecap:round;stop-color:#000;stop-opacity:1" transform="translate(38.33 42.222)"/><g aria-label="Keypop APIs" style="font-weight:700;font-size:10.5833px;line-height:6.61458px;font-family:&quot;Open Sans&quot;;-inkscape-font-specification:&quot;Open Sans, Bold&quot;;text-align:center;letter-spacing:0;word-spacing:0;baseline-shift:baseline;opacity:1;vector-effect:none;fill:#fff;stroke:none;stroke-width:.264583px;stop-color:#000;stop-opacity:1"><path d="M99.85 85.026h-1.819l-1.979-3.184-.677.486v2.698h-1.602V77.47h1.602v3.458q.16-.223.315-.445t.315-.444l2.047-2.569h1.778l-2.636 3.344zM103.06 79.14q.8 0 1.379.31.579.305.894.889.315.583.315 1.426v.765h-3.726q.026.666.398 1.049.378.377 1.044.377.553 0 1.013-.114.46-.114.946-.34v1.219q-.43.212-.9.31-.465.098-1.131.098-.868 0-1.54-.32-.667-.32-1.05-.977-.376-.656-.376-1.654 0-1.013.34-1.684.347-.677.962-1.013.615-.341 1.431-.341zm.01 1.121q-.46 0-.765.295-.3.294-.346.925h2.211q-.005-.352-.129-.626-.119-.274-.362-.434-.237-.16-.61-.16zM106.103 79.248h1.726l1.09 3.25q.052.156.088.316t.062.33q.026.171.042.357h.03q.032-.279.083-.522.057-.243.14-.48l1.07-3.25h1.69l-2.445 6.516q-.222.599-.579.997-.356.403-.821.604-.46.202-1.013.202-.269 0-.465-.031-.197-.026-.336-.057v-1.25q.108.025.274.046.165.02.346.02.33 0 .568-.139.238-.14.398-.377.16-.233.253-.512l.093-.284zM116.164 79.14q.977 0 1.577.76.604.759.604 2.227 0 .981-.284 1.653-.284.667-.786 1.008-.5.34-1.152.34-.419 0-.718-.102-.3-.109-.512-.274-.212-.17-.367-.362h-.082q.04.207.062.424.02.217.02.423v2.331h-1.576v-8.32h1.282l.222.75h.072q.155-.233.378-.43.222-.196.532-.31.315-.118.728-.118zm-.506 1.26q-.413 0-.656.171-.243.17-.357.512-.108.34-.119.863v.17q0 .558.104.946.108.387.356.589.253.202.693.202.361 0 .594-.202.232-.202.346-.59.119-.392.119-.955 0-.848-.264-1.277-.263-.428-.816-.428zM124.898 82.127q0 .723-.197 1.281-.19.558-.563.946-.367.382-.889.579-.517.196-1.168.196-.61 0-1.121-.196-.506-.197-.884-.58-.372-.387-.578-.945-.202-.558-.202-1.281 0-.962.341-1.628.341-.667.972-1.013.63-.346 1.503-.346.812 0 1.437.346.63.346.987 1.013.362.666.362 1.628zm-3.995 0q0 .568.124.956.124.387.388.583.263.197.687.197.419 0 .677-.197.264-.196.382-.583.124-.388.124-.956 0-.574-.124-.951-.118-.383-.382-.574-.264-.191-.687-.191-.626 0-.91.429-.279.429-.279 1.287zM129.414 79.14q.977 0 1.576.76.605.759.605 2.227 0 .981-.284 1.653-.285.667-.786 1.008-.501.34-1.152.34-.419 0-.718-.102-.3-.109-.512-.274-.212-.17-.367-.362h-.083q.042.207.062.424.021.217.021.423v2.331H126.2v-8.32h1.281l.223.75h.072q.155-.233.377-.43.222-.196.533-.31.315-.118.728-.118zm-.506 1.26q-.414 0-.657.171-.242.17-.356.512-.109.34-.119.863v.17q0 .558.103.946.109.387.357.589.253.202.692.202.362 0 .595-.202.232-.202.346-.59.119-.392.119-.955 0-.848-.264-1.277-.263-.428-.816-.428zM140.395 85.026l-.547-1.799h-2.755l-.547 1.799h-1.726l2.666-7.587h1.959l2.676 7.587zm-.93-3.142-.548-1.757q-.051-.176-.14-.45-.082-.279-.17-.563-.082-.29-.134-.501-.052.211-.145.527-.088.31-.17.589l-.119.398-.543 1.757zM145.486 77.47q1.462 0 2.134.63.672.626.672 1.727 0 .496-.15.95-.15.45-.491.802-.336.351-.9.558-.563.201-1.39.201h-.687v2.688h-1.602V77.47zm-.083 1.313h-.729v2.243h.527q.45 0 .78-.119.331-.119.512-.372t.181-.651q0-.558-.31-.827-.31-.274-.961-.274zM149.718 85.026V77.47h1.602v7.556zM157.128 83.31q0 .589-.279.997-.274.403-.822.615-.547.207-1.364.207-.604 0-1.038-.078-.43-.077-.869-.258v-1.302q.47.212 1.008.351.543.135.95.135.46 0 .657-.135.202-.14.202-.362 0-.144-.083-.258-.077-.119-.341-.263-.264-.15-.827-.388-.542-.227-.894-.46-.346-.233-.517-.548-.165-.32-.165-.811 0-.801.62-1.204.625-.408 1.67-.408.537 0 1.022.108.491.109 1.008.346l-.475 1.137q-.43-.186-.812-.305-.377-.118-.77-.118-.346 0-.521.093-.176.093-.176.284 0 .14.088.248.093.108.351.243.264.129.77.336.49.201.853.423.361.217.558.543.196.32.196.832z" style="baseline-shift:baseline;vector-effect:none;stop-color:#000;stop-opacity:1" transform="translate(38.33 42.222)"/></g></g><g aria-label="Smart Card Access Control SDK" style="font-weight:700;font-size:10.5833px;line-height:6.61458px;font-family:&quot;Open Sans&quot;;-inkscape-font-specification:&quot;Open Sans, Bold&quot;;text-align:center;letter-spacing:0;word-spacing:0;baseline-shift:baseline;text-anchor:middle;opacity:1;vector-effect:none;fill:#186a3b;stroke-width:.165;stop-color:#000;stop-opacity:1"><path d="M49.182 22.22q0 .672-.326 1.168-.325.496-.95.765-.62.269-1.51.269-.392 0-.77-.052-.372-.052-.718-.15-.341-.103-.651-.253v-1.488q.537.237 1.116.429.579.19 1.147.19.393 0 .63-.103.244-.103.352-.284.109-.18.109-.413 0-.284-.192-.486-.19-.202-.527-.377-.33-.176-.749-.377-.263-.125-.574-.3-.31-.181-.589-.44-.279-.258-.46-.625-.175-.372-.175-.889 0-.677.31-1.157t.883-.734q.58-.258 1.365-.258.589 0 1.121.14.538.134 1.121.392l-.516 1.245q-.522-.212-.936-.325-.413-.12-.842-.12-.3 0-.512.1-.211.092-.32.268-.108.17-.108.398 0 .268.155.455.16.18.475.35.32.171.796.399.579.274.987.573.413.295.635.698.223.398.223.992zM57.212 18.432q.982 0 1.483.507.507.501.507 1.612v3.767H57.62v-3.374q0-.62-.212-.936-.211-.315-.656-.315-.625 0-.889.45-.263.444-.263 1.276v2.9h-1.576v-3.375q0-.414-.093-.693-.093-.279-.285-.418-.19-.14-.49-.14-.44 0-.693.222-.248.218-.356.646-.104.424-.104 1.04v2.717h-1.576v-5.777h1.204l.212.739h.088q.176-.3.44-.486.268-.186.588-.274.32-.088.651-.088.636 0 1.075.207.445.207.682.64h.14q.258-.444.728-.645.476-.202.977-.202zM63.186 18.422q1.163 0 1.783.506.62.507.62 1.54v3.85h-1.1l-.306-.785h-.041q-.248.31-.507.506-.258.197-.594.29-.336.093-.816.093-.512 0-.92-.197-.403-.196-.636-.6-.232-.407-.232-1.033 0-.92.646-1.354.646-.439 1.938-.485l1.002-.031v-.254q0-.454-.238-.666-.237-.212-.661-.212-.419 0-.822.119-.403.119-.806.3l-.522-1.065q.46-.243 1.029-.382.573-.14 1.183-.14zm.837 3.22-.61.02q-.765.02-1.064.274-.295.253-.295.667 0 .361.212.516.212.15.553.15.506 0 .853-.3.351-.3.351-.852zM70.436 18.432q.119 0 .274.016.16.01.258.03l-.119 1.479q-.077-.026-.222-.036-.14-.016-.243-.016-.304 0-.594.078-.284.077-.511.253-.228.17-.362.455-.13.279-.13.687v2.94h-1.576v-5.777h1.194l.233.971h.077q.17-.294.424-.537.258-.248.584-.393.33-.15.713-.15zM74.451 23.166q.259 0 .502-.052.248-.051.49-.129v1.173q-.253.114-.63.186-.372.078-.816.078-.517 0-.93-.166-.409-.17-.647-.584-.232-.418-.232-1.162v-2.786h-.755v-.666l.869-.527.454-1.22h1.008v1.23h1.617v1.183h-1.617v2.786q0 .33.186.496.191.16.501.16zM82.694 17.988q-.46 0-.817.18-.351.177-.594.512-.238.336-.362.812-.124.475-.124 1.07 0 .8.197 1.369.201.563.62.863.418.294 1.08.294.46 0 .92-.103.465-.103 1.007-.295v1.344q-.501.207-.987.295-.486.093-1.09.093-1.168 0-1.923-.48-.749-.487-1.11-1.355-.362-.873-.362-2.036 0-.858.232-1.57.233-.714.682-1.236.45-.522 1.111-.806.662-.284 1.52-.284.563 0 1.126.144.569.14 1.085.388l-.516 1.302q-.424-.201-.853-.351-.429-.15-.842-.15ZM88.471 18.422q1.163 0 1.783.506.62.507.62 1.54v3.85h-1.1l-.306-.785h-.04q-.249.31-.507.506-.259.197-.595.29-.335.093-.816.093-.512 0-.92-.197-.403-.196-.636-.6-.232-.407-.232-1.033 0-.92.646-1.354.646-.439 1.938-.485l1.002-.031v-.254q0-.454-.237-.666-.238-.212-.662-.212-.418 0-.822.119-.403.119-.806.3l-.522-1.065q.46-.243 1.029-.382.573-.14 1.183-.14zm.837 3.22-.61.02q-.764.02-1.064.274-.295.253-.295.667 0 .361.212.516.212.15.553.15.507 0 .853-.3.351-.3.351-.852zM95.721 18.432q.12 0 .274.016.16.01.259.03l-.12 1.479q-.077-.026-.222-.036-.139-.016-.242-.016-.305 0-.595.078-.284.077-.511.253-.228.17-.362.455-.13.279-.13.687v2.94h-1.575v-5.777h1.193l.233.971H94q.171-.294.424-.537.259-.248.584-.393.33-.15.713-.15zM99.132 24.422q-.966 0-1.576-.755-.605-.76-.605-2.227 0-1.483.615-2.243.615-.765 1.607-.765.414 0 .729.114t.542.305q.233.191.393.429h.052q-.031-.166-.078-.486-.04-.325-.04-.667v-1.85h1.58v8.041h-1.209l-.305-.749h-.067q-.15.238-.377.434-.222.191-.532.305-.31.114-.729.114zm.553-1.256q.646 0 .91-.382.268-.388.284-1.163v-.17q0-.843-.259-1.287-.258-.45-.961-.45-.522 0-.816.45-.295.45-.295 1.297t.295 1.276q.3.429.842.429zM111.498 24.318l-.548-1.798h-2.754l-.548 1.798h-1.726l2.667-7.586h1.958l2.677 7.586zm-.93-3.142-.548-1.757q-.052-.175-.14-.45-.082-.278-.17-.562-.083-.29-.134-.502-.052.212-.145.527-.088.31-.17.59-.083.279-.12.397l-.542 1.757zM116.397 24.422q-.858 0-1.462-.31-.605-.316-.92-.972-.316-.656-.316-1.68 0-1.059.357-1.725.362-.672.997-.987.641-.316 1.483-.316.6 0 1.034.12.44.113.765.273l-.465 1.22q-.372-.15-.693-.243-.32-.098-.64-.098-.414 0-.688.196-.274.191-.408.579-.134.387-.134.971 0 .574.144.951.145.377.419.563.274.181.666.181.491 0 .874-.129.382-.134.744-.372v1.349q-.362.227-.76.325-.392.104-.997.104zM121.838 24.422q-.857 0-1.462-.31-.605-.316-.92-.972-.315-.656-.315-1.68 0-1.059.357-1.725.361-.672.997-.987.64-.316 1.483-.316.6 0 1.034.12.439.113.764.273l-.465 1.22q-.372-.15-.692-.243-.32-.098-.641-.098-.413 0-.687.196-.274.191-.409.579-.134.387-.134.971 0 .574.145.951.144.377.418.563.274.181.667.181.49 0 .873-.129.383-.134.744-.372v1.349q-.361.227-.76.325-.392.104-.997.104zM127.316 18.432q.801 0 1.38.31.579.305.894.89.315.583.315 1.426v.764h-3.726q.026.667.398 1.05.377.377 1.044.377.553 0 1.013-.114.46-.114.946-.341v1.22q-.43.211-.9.31-.465.098-1.131.098-.868 0-1.54-.32-.667-.321-1.05-.977-.377-.657-.377-1.654 0-1.013.342-1.685.346-.677.96-1.013.616-.34 1.432-.34zm.01 1.122q-.46 0-.764.294-.3.295-.347.925h2.212q-.005-.351-.129-.625-.119-.274-.362-.434-.237-.16-.61-.16zM135.217 22.603q0 .589-.279.997-.273.403-.821.615-.548.207-1.365.207-.604 0-1.038-.078-.43-.077-.868-.258v-1.302q.47.211 1.007.35.543.135.951.135.46 0 .656-.134.202-.14.202-.362 0-.145-.083-.258-.077-.12-.34-.264-.264-.15-.828-.387-.542-.228-.894-.46-.346-.233-.516-.548-.166-.32-.166-.811 0-.801.62-1.204.626-.409 1.67-.409.537 0 1.023.109.49.108 1.007.346l-.475 1.137q-.429-.186-.811-.305-.378-.119-.77-.119-.347 0-.522.093-.176.093-.176.284 0 .14.088.249.093.108.351.242.264.13.77.336.491.202.853.424.362.217.558.543.196.32.196.832zM140.478 22.603q0 .589-.279.997-.274.403-.822.615-.547.207-1.364.207-.604 0-1.039-.078-.428-.077-.868-.258v-1.302q.47.211 1.008.35.543.135.95.135.46 0 .657-.134.202-.14.202-.362 0-.145-.083-.258-.078-.12-.341-.264-.264-.15-.827-.387-.543-.228-.894-.46-.346-.233-.517-.548-.165-.32-.165-.811 0-.801.62-1.204.625-.409 1.67-.409.537 0 1.022.109.491.108 1.008.346l-.475 1.137q-.43-.186-.812-.305-.377-.119-.77-.119-.346 0-.522.093-.175.093-.175.284 0 .14.088.249.093.108.351.242.264.13.77.336.49.202.853.424.361.217.558.543.196.32.196.832zM147.79 17.988q-.46 0-.816.18-.352.177-.594.512-.238.336-.362.812-.124.475-.124 1.07 0 .8.196 1.369.202.563.62.863.419.294 1.08.294.46 0 .92-.103.465-.103 1.008-.295v1.344q-.501.207-.987.295-.486.093-1.09.093-1.168 0-1.923-.48-.75-.487-1.111-1.355-.362-.873-.362-2.036 0-.858.233-1.57.232-.714.682-1.236.45-.522 1.111-.806.661-.284 1.52-.284.563 0 1.126.144.568.14 1.085.388l-.517 1.302q-.423-.201-.852-.351-.43-.15-.843-.15zM156.451 21.42q0 .723-.196 1.28-.191.559-.563.947-.367.382-.89.578-.516.197-1.167.197-.61 0-1.121-.197-.507-.196-.884-.578-.372-.388-.579-.946-.201-.558-.201-1.282 0-.96.34-1.628.342-.666.972-1.012.63-.347 1.504-.347.811 0 1.436.347.63.346.987 1.012.362.667.362 1.628zm-3.994 0q0 .568.124.955.124.388.387.584.264.197.688.197.418 0 .676-.197.264-.196.383-.584.124-.387.124-.956 0-.573-.124-.95-.119-.383-.383-.574-.263-.191-.687-.191-.625 0-.91.429-.278.428-.278 1.286zM161.035 18.432q.925 0 1.488.507.563.501.563 1.612v3.767h-1.576v-3.374q0-.62-.227-.936-.222-.315-.703-.315-.723 0-.987.491-.263.491-.263 1.416v2.718h-1.577v-5.777h1.205l.211.739h.088q.186-.3.46-.486.28-.186.615-.274.341-.088.703-.088zM167.143 23.166q.258 0 .501-.052.248-.051.491-.129v1.173q-.253.114-.63.186-.372.078-.817.078-.516 0-.93-.166-.408-.17-.646-.584-.232-.418-.232-1.162v-2.786h-.755v-.666l.868-.527.455-1.22h1.008v1.23h1.617v1.183h-1.617v2.786q0 .33.186.496.191.16.501.16zM172.528 18.432q.119 0 .274.016.16.01.258.03l-.119 1.479q-.077-.026-.222-.036-.14-.016-.243-.016-.305 0-.594.078-.284.077-.512.253-.227.17-.362.455-.129.279-.129.687v2.94h-1.576v-5.777h1.194l.232.971h.078q.17-.294.424-.537.258-.248.584-.393.33-.15.713-.15zM179.36 21.42q0 .723-.197 1.28-.191.559-.563.947-.367.382-.89.578-.516.197-1.167.197-.61 0-1.121-.197-.507-.196-.884-.578-.372-.388-.579-.946-.201-.558-.201-1.282 0-.96.34-1.628.342-.666.972-1.012.63-.347 1.504-.347.811 0 1.437.347.63.346.987 1.012.361.667.361 1.628zm-3.995 0q0 .568.124.955.124.388.387.584.264.197.688.197.418 0 .677-.197.263-.196.382-.584.124-.387.124-.956 0-.573-.124-.95-.119-.383-.382-.574-.264-.191-.688-.191-.625 0-.91.429-.278.428-.278 1.286zM182.238 24.318h-1.576v-8.04h1.576zM191.224 22.22q0 .672-.325 1.168-.326.496-.951.765-.62.269-1.51.269-.392 0-.77-.052-.371-.052-.717-.15-.341-.103-.652-.253v-1.488q.538.237 1.117.429.578.19 1.147.19.393 0 .63-.103.243-.103.352-.284.108-.18.108-.413 0-.284-.191-.486t-.527-.377q-.33-.176-.75-.377-.263-.125-.573-.3-.31-.181-.59-.44-.278-.258-.459-.625-.176-.372-.176-.889 0-.677.31-1.157t.884-.734q.579-.258 1.364-.258.59 0 1.122.14.537.134 1.121.392l-.517 1.245q-.522-.212-.935-.325-.414-.12-.842-.12-.3 0-.512.1-.212.092-.32.268-.109.17-.109.398 0 .268.155.455.16.18.476.35.32.171.795.399.58.274.987.573.414.295.636.698.222.398.222.992zM198.862 20.468q0 1.277-.491 2.135-.486.852-1.41 1.286-.926.43-2.228.43h-2.14v-7.556h2.373q1.188 0 2.061.424.874.419 1.354 1.245.48.822.48 2.036zm-1.664.042q0-.837-.248-1.375-.243-.542-.724-.8-.475-.26-1.178-.26h-.852v4.92h.687q1.173 0 1.741-.625.574-.625.574-1.86zM206.505 24.318h-1.82l-1.978-3.183-.677.486v2.697h-1.602v-7.555h1.602v3.457q.16-.222.315-.444t.315-.444l2.047-2.569h1.777l-2.635 3.344z" style="baseline-shift:baseline;vector-effect:none;stop-color:#000;stop-opacity:1" transform="translate(38.358 55.897)"/></g><path d="M361.607 267.082h4.293v41.708h-4.293z" style="opacity:1;fill:#333;fill-rule:evenodd;stroke-width:.253;stop-color:#000;stop-opacity:1" transform="translate(-159.253 6.631) scale(.67647)"/><path d="M353.031 274.783c-.554 0-1 .446-1 1v18.718c0 .554.446 1 1 1h1.417c2.594 0 .87 5.967 2.935 7.284 3.316 2.114 9.425 2.114 12.74 0 2.066-1.317.342-7.284 2.936-7.284h1.417c.554 0 1-.446 1-1v-18.718c0-.554-.446-1-1-1z" style="font-variation-settings:normal;vector-effect:none;fill:#333;fill-opacity:1;fill-rule:evenodd;stroke:none;stroke-width:.253251px;stroke-linecap:butt;stroke-linejoin:miter;stroke-miterlimit:4;stroke-dasharray:none;stroke-dashoffset:0;stroke-opacity:1;-inkscape-stroke:none;stop-color:#000" transform="translate(-159.253 6.631) scale(.67647)"/><path fill="none" stroke="currentColor" stroke-linecap="round" stroke-linejoin="round" d="M364.552 290.917a6.719 6.719 0 0 0 0-9.502m-1.781 7.72a4.2 4.2 0 0 0 0-5.938m-1.782 4.157a1.68 1.68 0 0 0 0-2.376" style="stroke:#fff;stroke-width:.839871;stroke-opacity:1" transform="translate(-159.253 6.631) scale(.67647)"/><path d="M355.72 278.948h16.068c.83 0 1.5.67 1.5 1.5v11.436c0 .831-.67 1.5-1.5 1.5h-16.069c-.83 0-1.5-.669-1.5-1.5v-11.436c0-.83.67-1.5 1.5-1.5z" style="fill:none;fill-rule:evenodd;stroke:#fff;stroke-width:.792716;stop-color:#000" transform="translate(-159.253 6.631) scale(.67647)"/><path d="M356.332 276.603h1.076c.355 0 .64.16.64.36 0 .2-.285.362-.64.362h-1.076c-.355 0-.64-.161-.64-.361 0-.2.285-.361.64-.361z" style="opacity:1;fill:#fff;fill-rule:evenodd;stroke:#fff;stroke-width:.280967;stop-color:#000;stop-opacity:1" transform="translate(-159.403 6.631) scale(.67647)"/><path d="M361.069 276.603h1.076c.355 0 .64.16.64.36 0 .2-.285.362-.64.362h-1.076c-.355 0-.641-.161-.641-.361 0-.2.286-.361.64-.361zM365.805 276.603h1.076c.355 0 .64.16.64.36 0 .2-.285.362-.64.362h-1.076c-.355 0-.64-.161-.64-.361 0-.2.285-.361.64-.361zM370.542 276.603h1.076c.355 0 .64.16.64.36 0 .2-.285.362-.64.362h-1.076c-.355 0-.64-.161-.64-.361 0-.2.285-.361.64-.361z" style="fill:#fff;fill-rule:evenodd;stroke:#fff;stroke-width:.280967;stop-color:#000" transform="translate(-159.403 6.631) scale(.67647)"/></svg>