<?xml version="1.0" encoding="UTF-8" standalone="no"?>
<!-- Created with Inkscape (http://www.inkscape.org/) -->

<svg
   width="39.636574mm"
   height="39.636574mm"
   viewBox="0 0 39.636574 39.636574"
   version="1.1"
   id="svg1343"
   inkscape:version="1.2.2 (732a01da63, 2022-12-09)"
   sodipodi:docname="icon.svg"
   inkscape:export-filename="icon.png"
   inkscape:export-xdpi="41.012627"
   inkscape:export-ydpi="41.012627"
   xmlns:inkscape="http://www.inkscape.org/namespaces/inkscape"
   xmlns:sodipodi="http://sodipodi.sourceforge.net/DTD/sodipodi-0.dtd"
   xmlns="http://www.w3.org/2000/svg"
   xmlns:svg="http://www.w3.org/2000/svg">
  <sodipodi:namedview
     id="namedview1345"
     pagecolor="#ffffff"
     bordercolor="#666666"
     borderopacity="1.0"
     inkscape:pageshadow="2"
     inkscape:pageopacity="0.0"
     inkscape:pagecheckerboard="0"
     inkscape:document-units="mm"
     showgrid="false"
     fit-margin-top="0"
     fit-margin-left="0"
     fit-margin-right="0"
     fit-margin-bottom="0"
     inkscape:zoom="3.0574074"
     inkscape:cx="-100.57541"
     inkscape:cy="167.78922"
     inkscape:window-width="3072"
     inkscape:window-height="1796"
     inkscape:window-x="-12"
     inkscape:window-y="-12"
     inkscape:window-maximized="1"
     inkscape:current-layer="layer1"
     inkscape:showpageshadow="2"
     inkscape:deskcolor="#d1d1d1" />
  <defs
     id="defs1340" />
  <g
     inkscape:label="Calque 1"
     inkscape:groupmode="layer"
     id="layer1"
     transform="translate(-36.950943,-104.10479)">
    <circle
       style="fill:#eb6608;fill-rule:evenodd;stroke-width:0.0582959;-inkscape-stroke:none;stop-color:#000000;fill-opacity:1"
       id="path1072"
       cx="56.76923"
       cy="123.92308"
       r="19.818287" />
    <ellipse
       style="fill:#eb6608;fill-opacity:1;stroke:#000101;stroke-width:4.99999;stop-color:#000000"
       id="path13889"
       cx="197.7394"
       cy="218.20575"
       rx="0.17307691"
       ry="0.1298077" />
    <g
       transform="matrix(0.00310316,0,0,-0.00310316,41.516263,146.31018)"
       fill="#000000"
       stroke="none"
       id="g16"
       style="stroke-width:11.3684;fill:#ffffff;fill-opacity:1">
      <path
         d="m 4140,12600 c -797,-150 -1497,-482 -2105,-998 -144,-123 -404,-386 -529,-537 -481,-580 -811,-1268 -950,-1980 -69,-358 -81,-483 -79,-825 1,-232 17,-537 28,-548 5,-5 426,46 432,52 3,3 0,67 -6,143 -58,719 82,1439 406,2087 574,1148 1636,1944 2888,2166 66,12 121,23 123,25 3,3 -40,320 -55,403 -6,38 -12,39 -153,12 z"
         id="path2"
         style="stroke-width:11.3684;fill:#ffffff;fill-opacity:1" />
      <path
         d="m 5545,12608 c -7,-20 -55,-372 -55,-401 0,-22 5,-26 43,-32 692,-110 1323,-390 1889,-840 130,-103 452,-419 555,-545 395,-484 644,-963 802,-1546 104,-385 155,-865 132,-1240 -6,-99 -14,-193 -17,-211 -5,-28 -3,-33 17,-37 47,-10 411,-47 416,-42 27,27 37,640 14,881 -85,912 -408,1711 -980,2425 -128,160 -421,461 -576,592 -613,517 -1327,854 -2100,989 -130,22 -134,23 -140,7 z"
         id="path4"
         style="stroke-width:11.3684;fill:#ffffff;fill-opacity:1" />
      <path
         d="m 3975,11505 c -389,-114 -760,-296 -1075,-528 -295,-218 -566,-493 -767,-777 -228,-322 -408,-703 -512,-1080 -57,-206 -105,-519 -117,-757 l -7,-133 h 225 225 l 6,153 c 29,705 341,1410 852,1923 231,232 467,408 735,548 163,85 444,196 568,226 28,6 55,16 58,21 5,9 -94,409 -105,421 -3,3 -42,-4 -86,-17 z"
         id="path6"
         style="stroke-width:11.3684;fill:#ffffff;fill-opacity:1" />
      <path
         d="m 5761,11483 c -5,-21 -28,-108 -50,-194 -23,-86 -41,-165 -41,-175 0,-15 13,-23 63,-36 250,-65 586,-220 827,-381 217,-144 462,-364 637,-572 97,-114 245,-333 327,-482 215,-390 341,-858 359,-1333 l 3,-75 222,-3 222,-2 v 42 c 0,86 -21,327 -40,458 -90,617 -354,1204 -756,1684 -172,204 -286,315 -494,481 -340,272 -747,485 -1147,600 -114,33 -120,33 -132,-12 z"
         id="path8"
         style="stroke-width:11.3684;fill:#ffffff;fill-opacity:1" />
      <path
         d="m 4645,10615 c -278,-30 -547,-111 -814,-247 -468,-237 -845,-618 -1071,-1083 -114,-232 -173,-416 -223,-690 -21,-119 -21,-135 -27,-1670 -6,-1713 0,-1567 -70,-1706 -47,-92 -172,-214 -269,-262 -40,-21 -79,-37 -85,-37 -6,0 -27,30 -46,66 -41,77 -130,179 -208,236 -108,80 -239,121 -392,121 -509,1 -831,-540 -593,-996 56,-106 174,-222 281,-276 206,-103 419,-105 617,-7 139,70 235,168 310,320 l 40,80 90,26 c 238,70 423,200 574,404 85,115 164.7453,290.6517 180.7453,414.6517 4,28 8.8015,50.9027 10.2547,56.3483 -0.3445,8.2434 8,330 9,727 1,397 3,724 5,725 2,2 36,-38 76,-89 213,-269 515,-509 836,-665 l 134,-65 V 4621 c 0,-1118 -3,-1386 -14,-1431 -57,-234 -220,-403 -441,-460 -129,-33 -134,-31 -172,49 -66,139 -173,246 -318,316 -109,53 -171,66 -293,66 -166,-1 -297,-48 -428,-152 -247,-197 -317,-552 -166,-844 25,-49 61,-95 121,-155 100,-99 187,-148 321,-181 209,-53 444,8 609,157 62,56 139,162 167,230 20,49 28,54 87,54 78,0 230,38 335,84 129,56 229,123 325,220 175,176 279,392 306,639 7,63 11,533 11,1372 0,1227 1,1275 18,1275 10,0 65,-7 123,-16 127,-20 473,-23 599,-5 47,6 106,14 132,18 l 48,6 2,-1354 3,-1354 27,-98 c 32,-114 97,-256 159,-344 176,-248 467,-419 754,-441 l 90,-7 45,-85 c 82,-154 209,-267 374,-331 106,-41 252,-51 370,-25 395,88 626,495 499,878 -24,73 -89,186 -140,243 -73,82 -219,169 -338,200 -76,20 -241,20 -322,1 -190,-44 -359,-180 -450,-365 l -37,-73 -59,7 c -33,3 -88,17 -123,29 -182,66 -311,198 -378,386 l -31,85 -3,1393 -2,1392 42,17 c 143,57 393,207 555,333 106,83 293,270 378,379 39,49 73,90 78,90 4,1 7,-313 7,-696 0,-546 3,-717 14,-783 66,-409 357,-736 753,-848 l 93,-26 47,-95 c 39,-80 61,-110 132,-181 91,-90 173,-139 296,-176 93,-28 268,-26 365,4 197,61 338,183 427,367 109,230 71,518 -96,718 -182,218 -467,296 -745,203 -147,-50 -289,-170 -366,-311 -47,-85 -42,-83 -136,-38 -150,73 -269,217 -320,389 -17,55 -18,148 -20,1479 -2,781 -5,1469 -9,1530 -18,335 -102,652 -250,944 -187,369 -441,665 -770,896 -143,101 -451,259 -605,309 -331,110 -693,148 -1045,111 z m 517,-446 c 279,-29 587,-144 848,-317 390,-260 691,-686 804,-1139 81,-325 81,-672 1,-980 -121,-461 -410,-865 -816,-1138 -181,-122 -490,-251 -689,-289 -399,-74 -795,-35 -1148,113 -527,220 -945,677 -1116,1220 -59,186 -78,310 -83,546 -5,195 -3,235 17,349 28,165 69,310 131,457 234,553 735,985 1309,1129 274,69 445,80 742,49 z M 1551,4872 c 96,-50 147,-172 114,-272 -45,-134 -201,-204 -321,-142 -148,75 -179,257 -64,372 75,76 176,92 271,42 z m 6925,13 c 189,-79 199,-338 17,-426 -154,-74 -333,40 -333,213 0,92 64,183 151,214 47,17 123,17 165,-1 z M 2877,2696 c 140,-72 171,-254 64,-369 -85,-93 -237,-97 -325,-10 -51,51 -67,85 -73,154 -10,102 54,198 154,235 46,17 138,12 180,-10 z m 4264,9 c 152,-54 202,-261 91,-378 -46,-49 -99,-71 -173,-71 -57,0 -74,4 -115,30 -104,64 -143,196 -90,301 55,110 172,158 287,118 z"
         id="path10"
         sodipodi:nodetypes="cccccccsccccccccccccsccccscccccccccccscccsscccccccccccccccccccccccccccccscccccccccccccccccccccccccccccccccccccccsccccccccccsccc"
         style="stroke-width:11.3684;fill:#ffffff;fill-opacity:1" />
      <path
         d="m 4750,9634 c -266,-33 -506,-135 -726,-310 -264,-209 -458,-546 -510,-888 -21,-132 -13,-373 15,-499 66,-288 183,-501 390,-708 264,-265 573,-401 946,-416 277,-12 537,56 779,201 428,257 687,708 688,1196 0,331 -92,609 -287,869 -150,199 -332,343 -562,445 -180,80 -311,107 -533,111 -91,2 -181,1 -200,-1 z m 380,-459 c 281,-67 511,-245 645,-498 156,-297 150,-665 -17,-940 -238,-390 -683,-566 -1116,-441 -276,80 -518,297 -622,558 -42,103 -59,175 -72,301 -43,420 227,834 643,986 46,17 122,37 169,44 102,17 276,12 370,-10 z"
         id="path12"
         style="stroke-width:11.3684;fill:#ffffff;fill-opacity:1" />
      <path
         d="m 4800,8664 c -99,-27 -209,-108 -266,-196 -63,-98 -83,-248 -49,-365 23,-77 45,-119 94,-175 112,-127 288,-178 462,-133 79,21 119,44 187,109 188,180 188,461 2,646 -114,113 -274,156 -430,114 z"
         id="path14"
         style="stroke-width:11.3684;fill:#ffffff;fill-opacity:1" />
    </g>
  </g>
</svg>
