<?xml version="1.0" encoding="UTF-8" standalone="no"?>
<!-- Created with Inkscape (http://www.inkscape.org/) -->

<svg
   width="39.636574mm"
   height="39.636574mm"
   viewBox="0 0 39.636574 39.636574"
   version="1.1"
   id="svg1343"
   inkscape:version="1.2.2 (732a01da63, 2022-12-09)"
   sodipodi:docname="icon.svg"
   inkscape:export-filename="icon.png"
   inkscape:export-xdpi="41.012627"
   inkscape:export-ydpi="41.012627"
   xmlns:inkscape="http://www.inkscape.org/namespaces/inkscape"
   xmlns:sodipodi="http://sodipodi.sourceforge.net/DTD/sodipodi-0.dtd"
   xmlns="http://www.w3.org/2000/svg"
   xmlns:svg="http://www.w3.org/2000/svg">
  <sodipodi:namedview
     id="namedview1345"
     pagecolor="#ffffff"
     bordercolor="#666666"
     borderopacity="1.0"
     inkscape:pageshadow="2"
     inkscape:pageopacity="0.0"
     inkscape:pagecheckerboard="0"
     inkscape:document-units="mm"
     showgrid="false"
     fit-margin-top="0"
     fit-margin-left="0"
     fit-margin-right="0"
     fit-margin-bottom="0"
     inkscape:zoom="3.0574074"
     inkscape:cx="22.731678"
     inkscape:cy="115.4573"
     inkscape:window-width="3072"
     inkscape:window-height="1796"
     inkscape:window-x="-12"
     inkscape:window-y="-12"
     inkscape:window-maximized="1"
     inkscape:current-layer="layer1"
     inkscape:showpageshadow="2"
     inkscape:deskcolor="#d1d1d1" />
  <defs
     id="defs1340" />
  <g
     inkscape:label="Calque 1"
     inkscape:groupmode="layer"
     id="layer1"
     transform="translate(-36.950943,-104.10479)">
    <circle
       style="fill:#eb6608;fill-rule:evenodd;stroke-width:0.0582959;-inkscape-stroke:none;stop-color:#000000;fill-opacity:1"
       id="path1072"
       cx="56.76923"
       cy="123.92308"
       r="19.818287" />
    <ellipse
       style="fill:#eb6608;fill-opacity:1;stroke:#000101;stroke-width:4.99999;stop-color:#000000"
       id="path13889"
       cx="197.7394"
       cy="218.20575"
       rx="0.17307691"
       ry="0.1298077" />
    <g
       id="g7276"
       transform="matrix(0.00712771,0,0,-0.00712771,-276.20819,123.14878)"
       style="fill:#ffffff;fill-opacity:1;stroke:none;stroke-width:4.9494">
      <g
         id="g7261"
         style="fill:#ffffff;fill-opacity:1;stroke:none;stroke-width:4.9494">
        <path
           style="color:#000000;fill:#ffffff;fill-opacity:1;stroke:none;stroke-width:140.298;-inkscape-stroke:none"
           d="m 48262.978,-38.275505 c -181.626,19.980822 -362.296,-65.495825 -487.98,-182.480405 -72.576,-67.55187 -115.338,-170.9212 -149.262,-260.98668 -33.924,-90.06519 -53.925,-167.19987 -53.925,-167.19987 l 137.137,-35.70974 c 0,0 18.428,70.63711 49.441,152.97109 31.011,82.33427 79.724,176.04766 113.164,207.17292 99.789,92.8817 251.366,159.08885 375.923,145.38614 62.028,-6.82384 140.284,-28.8805 198.978,-62.06315 58.695,-33.18264 92.561,-72.63723 97.995,-113.38583 3.922,-29.41341 -12.409,-65.32979 -51.378,-103.75256 -38.969,-38.42278 -96.697,-73.11629 -144.39,-92.23654 -1274.838,-511.09177 -4159.953,-1128.43277 -4159.953,-1128.43277 l 29.564,-138.6317 c 0,0 2876.674,611.7431 4183.151,1135.51905 64.272,25.76693 134.274,66.80636 191.118,122.85326 56.843,56.04662 104.369,133.29496 92.347,223.44974 -13.524,101.4154 -88.098,172.372 -168.75,217.96872 -80.652,45.596719 -172.646,70.698668 -253.18,79.558325 z"
           id="path356" />
        <path
           style="color:#000000;fill:#ffffff;fill-opacity:1;stroke:none;stroke-width:140.298;-inkscape-stroke:none"
           d="m 46882.693,1437.6226 c -35.776,5.1768 -72.891,5.3925 -111.115,-1.3841 -107.284,-19.0196 -191.85,-95.9023 -237.014,-186.3005 -34.58,-69.2119 -20.31,-137.4001 -2.879,-222.3425 17.43,-84.94237 47.726,-182.33028 84.264,-279.25688 36.537,-96.92663 79.247,-192.97942 122.355,-273.88659 43.107,-80.90713 82.434,-145.2598 131.711,-187.90599 l 92.735,107.18504 c -17.739,15.35244 -59.929,73.33648 -99.379,147.37943 -39.45,74.04296 -80.277,165.57407 -114.825,257.22193 -34.548,91.64787 -62.837,183.84625 -78.008,257.77556 -15.171,73.9294 -7.507,133.8634 -9.191,130.4934 25.704,51.4467 86.133,101.4599 134.978,110.1194 82.731,14.6666 191.337,-40.4999 290.053,-103.4757 118.49,-75.5905 216.466,-194.34829 300.849,-320.28174 97.577,-145.62323 154.119,-325.13029 226.495,-504.20152 58.558,-144.88251 162.549,-453.211144 162.549,-453.211144 l 134.314,45.177166 c 0,0 -102.648,305.797608 -165.429,461.128198 -69.348,171.57935 -127.216,361.42955 -240.169,530.00125 -89.442,133.48209 -197.603,268.50819 -342.372,360.86369 -77.273,49.2959 -172.594,109.3711 -279.922,124.9016 z"
           id="path1550" />
        <path
           style="color:#000000;fill:#ffffff;fill-opacity:1;stroke:none;stroke-width:140.298;-inkscape-stroke:none"
           d="m 47904.605,1600.1165 c -69.65,-3.1785 -124.32,-39.9273 -166.258,-78.1742 -41.939,-38.247 -75.187,-80.7189 -103.808,-111.6142 -43.792,-47.2719 -81.177,-106.4319 -113.109,-160.6669 -31.932,-54.2349 -59.012,-105.2148 -70.866,-124.0711 l 119.974,-75.4613 c 19.229,30.5865 43.209,76.973 73.025,127.6144 29.816,50.6414 64.916,103.8861 94.95,136.3066 34.205,36.9233 65.4,75.8972 95.337,103.1988 29.937,27.3017 54.532,40.2104 77.233,41.2463 32.17,1.4681 91.377,-37.5205 120.417,-81.6621 55.126,-83.7923 44.293,-220.7509 48.278,-363.4658 8.715,-312.16375 -90.632,-971.032268 -90.632,-971.032268 l 140.072,-21.536674 c 0,0 101.903,650.248162 92.236,996.499742 -3.548,127.1134 21.703,295.7173 -71.53,437.4323 -49.827,75.7374 -134.142,150.4599 -245.319,145.3864 z"
           id="path1552" />
        <path
           style="color:#000000;fill:#ffffff;fill-opacity:1;stroke:none;stroke-width:140.298;-inkscape-stroke:none"
           d="m 48926.462,239.32044 c -49.466,-4.31424 -98.93,-30.93987 -130.494,-73.52362 -63.127,-85.16747 -69.531,-212.065204 -31.612,-396.57348 l 0.17,-0.9978 0.226,-0.9411 c 20.741,-88.3355 94.267,-133.47241 159.117,-152.80526 65.735,-19.59647 147.159,-16.19348 207.948,42.24302 93.119,89.51414 129.974,231.17647 102.258,357.541745 -21.401,97.567255 -97.974,157.088975 -164.82,191.892215 -45.324,23.59832 -93.317,37.47739 -142.784,33.16315 z m 12.291,-141.178621 c 13.605,1.186583 36.728,-2.998289 64.997,-17.716535 43.636,-22.719317 84.544,-63.191056 91.849,-96.499759 15.634,-71.276287 -16.074,-180.844325 -62.008,-224.999885 -9.789,-9.41103 -44.583,-15.99336 -69.26,-8.63689 -27.424,8.17541 -58.082,35.45434 -61.454,49.21881 -33.56,164.851285 -12.407,255.764382 6.976,281.914272 9.73,13.127528 15.294,15.533376 28.9,16.719987 z"
           id="path1556" />
        <path
           style="color:#000000;fill:#ffffff;fill-opacity:1;stroke:none;stroke-width:140.298;-inkscape-stroke:none"
           d="m 47632.269,-1001.1693 c 0,0 -42.284,-122.3861 -58.852,-196.5427 -17.737,-79.3882 -32.776,-218.744 -32.776,-218.744 l 140.847,-15.8893 c 0,0 16.972,144.1559 30.284,203.7402 12.143,54.3523 54.7,181.8711 54.7,181.8711 z"
           id="path1558" />
        <path
           style="color:#000000;fill:#ffffff;fill-opacity:1;stroke:none;stroke-width:140.298;-inkscape-stroke:none"
           d="m 48096.608,-838.84161 c 0,0 -41.699,-34.37065 -88.029,-80.83163 -46.329,-46.46069 -98.959,-100.97236 -125.289,-168.97126 -34.524,-89.1621 -33.047,-198.8657 -28.789,-293.1534 4.257,-94.2879 15.28,-171.2415 15.28,-171.2415 l 140.293,19.9865 c 0,0 -10.088,70.8313 -14.007,157.6219 -3.919,86.7906 2.276,191.4625 19.377,235.6299 8.908,23.0046 52.48,78.8829 93.51,120.0294 41.031,41.1469 77.898,71.64145 77.898,71.64145 z"
           id="path1560" />
        <path
           style="color:#000000;fill:#ffffff;fill-opacity:1;stroke:none;stroke-width:140.298;-inkscape-stroke:none"
           d="m 48299.463,-743.89204 c 0,0 -19.467,-48.69042 -35.6,-109.34419 -16.133,-60.65348 -34.884,-130.93002 -14.062,-204.29377 40.145,-141.4463 163.618,-270.6554 274.994,-376.0333 111.376,-105.3783 214.481,-181.7606 214.481,-181.7606 l 84.43,113.8286 c 0,0 -96.948,72.0159 -201.47,170.9093 -104.523,98.8934 -212.802,229.7653 -236.073,311.7557 -3.947,13.9076 0.964,77.62935 14.671,129.16462 13.708,51.53528 30.285,93.28848 30.285,93.28848 z"
           id="path1562" />
        <path
           style="color:#000000;fill:#ffffff;fill-opacity:1;stroke:none;stroke-width:140.298;-inkscape-stroke:none"
           d="m 49046.381,-542.97547 c 0,0 -36.655,-26.2148 -84.099,-54.64431 -47.443,-28.42952 -108.731,-57.55153 -134.534,-62.7276 -33.16,-6.65178 -112.171,-2.42645 -176.28,6.86523 -64.109,9.29027 -115.545,21.09373 -115.545,21.09373 l -31.668,-138.18897 c 0,0 56.575,-12.95207 126.894,-23.14233 70.319,-10.19027 152.141,-20.107 224.502,-5.59163 65.004,13.03966 126.665,48.45685 179.491,80.11191 52.826,31.65477 93.731,61.01121 93.731,61.01121 z"
           id="path1564" />
        <path
           style="color:#000000;fill:#ffffff;fill-opacity:1;stroke:none;stroke-width:4.9494;-inkscape-stroke:none"
           d="m 151.03125,82.6875 c -1.05628,-0.122524 -2.13766,-0.118418 -3.23438,0.04492 -3.60962,0.5376 -6.25427,3.013918 -8.07421,5.410156 -1.62173,2.135249 -3.09773,4.989124 -2.71875,8.251953 0.50009,4.305711 3.32693,7.729731 6.24609,10.105471 2.0922,1.70273 4.87294,2.61611 7.29297,3.35352 2.42003,0.73741 4.45508,1.1582 4.45508,1.1582 l 1.01562,-4.89453 c 0,0 -1.83157,-0.38197 -4.01367,-1.04688 -2.1821,-0.66491 -4.73746,-1.75233 -5.59375,-2.44922 -2.25088,-1.83186 -4.1666,-4.487136 -4.43555,-6.802733 -0.14592,-1.256383 0.60241,-3.162553 1.73242,-4.65039 1.34014,-1.764494 3.27197,-3.258177 4.83008,-3.490235 2.38656,-0.355441 5.55962,0.857652 7.91211,2.636719 1.32104,0.999039 3.44206,3.972946 4.93946,6.599609 1.49739,2.626664 2.51953,4.89063 2.51953,4.89063 l 4.55859,-2.052739 c 0,0 -1.10858,-2.462555 -2.73437,-5.314453 -1.6258,-2.851898 -3.61872,-6.108121 -6.26758,-8.111328 -2.33219,-1.763717 -5.26085,-3.271101 -8.42969,-3.638672 z"
           id="path6573"
           transform="matrix(28.346457,0,0,-28.346457,42929.636,2659.7317)" />
        <g
           id="path5075"
           transform="matrix(28.346457,0,0,-28.346457,42929.636,2659.7314)"
           style="fill:#ffffff;fill-opacity:1;stroke:none;stroke-width:4.9494">
          <path
             style="color:#000000;fill:#ffffff;fill-opacity:1;stroke:none;stroke-width:24.747;-inkscape-stroke:none"
             d="m 187.98628,81.423645 c 6.89654,0.667406 6.4516,11.123449 6.4516,11.123449"
             id="path6565" />
          <path
             style="color:#000000;fill:#ffffff;fill-opacity:1;stroke:none;stroke-width:4.9494;-inkscape-stroke:none"
             d="m 188.22656,78.935547 -0.48047,4.976562 c 1.09862,0.106318 1.68165,0.490178 2.26563,1.166016 0.58398,0.675838 1.06798,1.711113 1.3789,2.828125 0.62185,2.234024 0.54883,4.535156 0.54883,4.535156 l 4.9961,0.212891 c 0,0 0.1513,-2.929 -0.72852,-6.089844 -0.43991,-1.580422 -1.13986,-3.283484 -2.41211,-4.755859 -1.27224,-1.472376 -3.21871,-2.645662 -5.56836,-2.873047 z"
             id="path6567" />
        </g>
      </g>
    </g>
  </g>
</svg>
