<?xml version="1.0" encoding="UTF-8" standalone="no"?>
<!-- Created with Inkscape (http://www.inkscape.org/) -->

<svg
   width="39.636574mm"
   height="39.636574mm"
   viewBox="0 0 39.636574 39.636574"
   version="1.1"
   id="svg1343"
   inkscape:version="1.2.2 (732a01da63, 2022-12-09)"
   sodipodi:docname="icon.svg"
   xmlns:inkscape="http://www.inkscape.org/namespaces/inkscape"
   xmlns:sodipodi="http://sodipodi.sourceforge.net/DTD/sodipodi-0.dtd"
   xmlns="http://www.w3.org/2000/svg"
   xmlns:svg="http://www.w3.org/2000/svg">
  <sodipodi:namedview
     id="namedview1345"
     pagecolor="#ffffff"
     bordercolor="#666666"
     borderopacity="1.0"
     inkscape:pageshadow="2"
     inkscape:pageopacity="0.0"
     inkscape:pagecheckerboard="0"
     inkscape:document-units="mm"
     showgrid="false"
     fit-margin-top="0"
     fit-margin-left="0"
     fit-margin-right="0"
     fit-margin-bottom="0"
     inkscape:zoom="3.0574074"
     inkscape:cx="108.75227"
     inkscape:cy="188.39491"
     inkscape:window-width="4480"
     inkscape:window-height="2396"
     inkscape:window-x="3572"
     inkscape:window-y="-12"
     inkscape:window-maximized="1"
     inkscape:current-layer="layer1"
     inkscape:showpageshadow="2"
     inkscape:deskcolor="#d1d1d1" />
  <defs
     id="defs1340" />
  <g
     inkscape:label="Calque 1"
     inkscape:groupmode="layer"
     id="layer1"
     transform="translate(-36.950943,-104.10479)">
    <circle
       style="fill:#eb6608;fill-rule:evenodd;stroke-width:0.0582959;-inkscape-stroke:none;stop-color:#000000;fill-opacity:1"
       id="path1072"
       cx="56.76923"
       cy="123.92308"
       r="19.818287" />
    <g
       id="g14"
       transform="matrix(1.1810864,0,0,1.1810864,-9.0832545,102.07551)"
       style="fill:#ffffff;fill-opacity:1">
      <g
         transform="matrix(0.01264326,0,0,-0.01264326,5.7158754,47.687953)"
         fill="#000000"
         stroke="none"
         id="g4248"
         style="stroke-width:2.36244;fill:#ffffff;fill-opacity:1">
        <path
           d="m 4160,3349 c -47,-19 -90,-59 -90,-85 0,-28 32,-64 59,-64 10,0 30,9 44,20 38,30 97,27 130,-7 52,-55 75,-149 55,-228 l -13,-50 -83,-7 c -96,-8 -157,-24 -300,-80 l -103,-40 -157,26 c -307,51 -484,21 -591,-100 -55,-63 -75,-131 -69,-238 6,-101 36,-174 90,-220 l 39,-34 -25,-50 c -14,-28 -38,-90 -52,-139 -49,-166 -32,-466 30,-528 37,-37 188,-68 331,-69 128,0 226,19 350,69 l 60,25 37,-44 c 58,-67 121,-91 243,-91 84,0 109,4 152,24 159,71 222,273 178,566 -8,55 -20,125 -26,155 -11,53 -10,58 24,135 66,149 80,202 85,318 5,121 4,120 88,132 63,8 123,-7 164,-41 36,-31 39,-62 9,-129 -25,-56 -16,-90 27,-101 36,-9 54,3 86,62 30,53 37,129 17,181 -16,44 -69,93 -129,121 -71,34 -199,37 -273,8 l -48,-19 -23,23 c -24,21 -24,24 -10,63 58,164 -9,369 -141,428 -43,20 -125,24 -165,8 z m 207,-565 c 53,-40 67,-70 71,-149 3,-60 -1,-89 -23,-155 -15,-45 -31,-78 -35,-73 -4,4 -24,52 -45,106 -21,55 -46,109 -56,121 -9,12 -65,42 -123,66 -123,51 -123,57 -6,89 93,26 179,23 217,-5 z m -751,-55 c 122,-17 326,-72 457,-124 9,-4 17,-10 17,-15 0,-9 -235,-121 -362,-171 -215,-86 -404,-112 -489,-68 -52,26 -78,81 -79,162 0,119 60,194 173,217 62,12 195,12 283,-1 z m 641,-345 c 45,-129 92,-331 104,-442 19,-171 -7,-309 -68,-364 -88,-80 -272,-58 -317,37 -39,83 -13,269 64,470 48,122 172,376 184,372 5,-2 20,-34 33,-73 z m -243,-2 c 15,-18 14,-23 -20,-97 l -36,-78 -59,59 c -32,32 -59,60 -59,62 0,3 141,70 151,71 3,1 13,-7 23,-17 z m -261,-260 127,-128 -22,-97 -23,-97 -204,204 -204,204 39,7 c 21,4 59,13 84,20 25,8 52,14 60,14 8,1 73,-57 143,-127 z m -43,-494 c 0,-8 -82,-33 -142,-43 l -38,-6 -172,172 -171,173 18,70 c 32,127 9,137 271,-125 129,-129 234,-237 234,-241 z"
           id="path4222"
           style="stroke-width:2.36244;fill:#ffffff;fill-opacity:1" />
      </g>
    </g>
    <ellipse
       style="fill:#eb6608;fill-opacity:1;stroke:#000101;stroke-width:4.99999;stop-color:#000000"
       id="path13889"
       cx="197.7394"
       cy="218.20575"
       rx="0.17307691"
       ry="0.1298077" />
  </g>
</svg>
