<?xml version="1.0" encoding="UTF-8" standalone="no"?>
<!-- Created with Inkscape (http://www.inkscape.org/) -->

<svg
   width="39.636574mm"
   height="39.636574mm"
   viewBox="0 0 39.636574 39.636573"
   version="1.1"
   id="svg1343"
   inkscape:version="1.2.2 (732a01da63, 2022-12-09)"
   sodipodi:docname="icon.svg"
   inkscape:export-filename="icon.png"
   inkscape:export-xdpi="41.012627"
   inkscape:export-ydpi="41.012627"
   xmlns:inkscape="http://www.inkscape.org/namespaces/inkscape"
   xmlns:sodipodi="http://sodipodi.sourceforge.net/DTD/sodipodi-0.dtd"
   xmlns="http://www.w3.org/2000/svg"
   xmlns:svg="http://www.w3.org/2000/svg">
  <sodipodi:namedview
     id="namedview1345"
     pagecolor="#ffffff"
     bordercolor="#666666"
     borderopacity="1.0"
     inkscape:pageshadow="2"
     inkscape:pageopacity="0.0"
     inkscape:pagecheckerboard="0"
     inkscape:document-units="mm"
     showgrid="false"
     fit-margin-top="0"
     fit-margin-left="0"
     fit-margin-right="0"
     fit-margin-bottom="0"
     inkscape:zoom="3.0574074"
     inkscape:cx="322.49546"
     inkscape:cy="135.08177"
     inkscape:window-width="4480"
     inkscape:window-height="2396"
     inkscape:window-x="3572"
     inkscape:window-y="-12"
     inkscape:window-maximized="1"
     inkscape:current-layer="layer1"
     inkscape:showpageshadow="2"
     inkscape:deskcolor="#d1d1d1" />
  <defs
     id="defs1340" />
  <g
     inkscape:label="Calque 1"
     inkscape:groupmode="layer"
     id="layer1"
     transform="translate(-36.950943,-105.19347)">
    <circle
       style="fill:#eb6608;fill-opacity:1;fill-rule:evenodd;stroke-width:0.0582959;-inkscape-stroke:none;stop-color:#000000"
       id="path1072"
       cx="56.76923"
       cy="125.01176"
       r="19.818287" />
    <g
       id="SvgjsG1012"
       featurekey="nRdZyp-0"
       transform="matrix(0.44054231,0,0,0.44054231,34.979409,102.97186)"
       fill="#ffffff"
       style="fill:#ffffff;fill-opacity:1;fill-rule:evenodd">
      <g
         id="g12"
         style="fill:#ffffff;fill-opacity:1;fill-rule:evenodd">
        <path
           id="path4"
           style="fill:#ffffff;fill-opacity:1;fill-rule:evenodd"
           d="m 44.059468,35.001977 c -0.767749,0 -1.535428,0.293033 -2.121427,0.879033 l -10.06109,10.061983 -3.965923,-3.966035 c -1.170999,-1.170999 -3.071079,-1.171999 -4.243078,0 -4.588995,4.587996 -7.115904,10.68901 -7.115904,17.179004 0,5.471439 1.802678,10.662541 5.116081,14.907721 l 1.955823,2.259422 2.286585,2.011349 0.01251,-0.01251 c 4.247996,3.320997 9.44402,5.127024 14.922015,5.127024 6.488993,0 12.590003,-2.527015 17.177998,-7.11501 0.563,-0.563 0.878922,-1.325987 0.878922,-2.121986 0,-0.794999 -0.315922,-1.558981 -0.878922,-2.12098 L 54.05903,68.12697 64.188012,58.071017 c 1.175999,-1.166999 1.182962,-3.066967 0.01496,-4.242966 -1.165998,-1.174999 -3.064962,-1.182074 -4.24196,-0.01508 L 49.816957,63.884004 36.119023,50.185959 46.181007,40.123976 c 1.171998,-1.171999 1.171998,-3.070967 0,-4.242966 -0.586,-0.586 -1.35379,-0.879033 -2.121539,-0.879033 z m -18.097455,13.51 25.527028,25.527028 c -3.083997,2.214998 -6.772096,3.41005 -10.643092,3.41005 -4.707995,0 -9.133973,-1.781063 -12.541969,-5.00006 -0.109197,-0.110858 -0.209472,-0.190159 -0.336398,-0.31987 -0.126925,-0.12971 -0.283545,-0.291135 -0.414555,-0.432087 -3.218996,-3.406997 -5.00006,-7.833086 -5.00006,-12.542081 0,-3.871996 1.195048,-7.559983 3.409046,-10.64298 z"
           sodipodi:nodetypes="sccccsccccssscccccccsssccsczcsc" />
        <path
           id="path6"
           style="fill:#ffffff;fill-opacity:1;fill-rule:evenodd"
           d="m 59.099959,16.609054 c -6.489993,0 -12.591008,2.526908 -17.179003,7.115904 -1.170999,1.170999 -1.170999,3.071078 0,4.243077 l 30.114036,30.11292 c 0.562,0.563 1.325982,0.879033 2.120981,0.879033 0.795999,0 1.558986,-0.316033 2.121985,-0.879033 8.718006,-8.719002 9.392538,-22.46156 2.060793,-31.980642 0,0 -1.302309,-1.618782 -2.036285,-2.357998 -0.733976,-0.739216 -2.357877,-2.065643 -2.357877,-2.065643 -4.234027,-3.282663 -9.399928,-5.067618 -14.84463,-5.067618 z m 0,5.999916 c 4.886996,0 9.480037,1.902059 12.935033,5.357055 6.409994,6.410994 7.059,16.434016 1.947005,23.577008 L 48.456979,26.018015 c 3.082997,-2.213998 6.770984,-3.409045 10.64298,-3.409045 z"
           sodipodi:nodetypes="scccscczcsscccs" />
        <path
           fill="#ffffff"
           d="m 24.004,36.992 c 0.585,0.586 1.354,0.879 2.121,0.879 0.767,0 1.536,-0.293 2.121,-0.879 1.172,-1.171 1.172,-3.071 0,-4.242 l -7.573,-7.573 c -1.171,-1.172 -3.071,-1.172 -4.242,0 -1.172,1.171 -1.172,3.071 0,4.242 z"
           id="path8"
           style="fill:#ffffff;fill-opacity:1;fill-rule:evenodd" />
        <path
           fill="#ffffff"
           d="m 30.685,30.357 c 0.242,1.47 1.514,2.514 2.957,2.514 0.161,0 0.325,-0.013 0.49,-0.04 1.635,-0.269 2.743,-1.812 2.474,-3.447 l -1.573,-9.573 c -0.269,-1.635 -1.812,-2.743 -3.447,-2.474 -1.635,0.269 -2.743,1.812 -2.474,3.447 z"
           id="path10"
           style="fill:#ffffff;fill-opacity:1;fill-rule:evenodd" />
      </g>
    </g>
  </g>
</svg>
