<?xml version="1.0" encoding="UTF-8" standalone="no"?>
<svg
        version="1.0"
        width="1560.6902pt"
        height="357.54401pt"
        viewBox="0 0 1560.6902 357.54401"
        preserveAspectRatio="xMidYMid"
        id="svg8"
        sodipodi:docname="logo-keypop.svg"
        inkscape:version="1.2.2 (732a01da63, 2022-12-09)"
        xmlns:inkscape="http://www.inkscape.org/namespaces/inkscape"
        xmlns:sodipodi="http://sodipodi.sourceforge.net/DTD/sodipodi-0.dtd"
        xmlns="http://www.w3.org/2000/svg"
        xmlns:svg="http://www.w3.org/2000/svg">
    <defs
            id="defs12" />
    <sodipodi:namedview
            id="namedview10"
            pagecolor="#ffffff"
            bordercolor="#000000"
            borderopacity="0.25"
            inkscape:showpageshadow="2"
            inkscape:pageopacity="0.0"
            inkscape:pagecheckerboard="0"
            inkscape:deskcolor="#d1d1d1"
            inkscape:document-units="pt"
            showgrid="false"
            inkscape:zoom="0.48889805"
            inkscape:cx="600.32966"
            inkscape:cy="-253.63161"
            inkscape:window-width="3072"
            inkscape:window-height="1796"
            inkscape:window-x="-12"
            inkscape:window-y="-12"
            inkscape:window-maximized="1"
            inkscape:current-layer="g6" />
    <g
            transform="matrix(0.1,0,0,-0.1,-1685.6141,628.94445)"
            fill="#000000"
            stroke="none"
            id="g6">
        <g
                id="g3865"
                transform="translate(23604.068,-575.99548)"
                style="fill:#ffffff;fill-opacity:1">
            <path
                    d="m 4290,6856 c -399,-47 -825,-194 -1115,-386 -128,-85 -161,-110 -315,-246 -315,-277 -538,-590 -885,-1239 -26,-49 -69,-126 -95,-170 -134,-229 -180,-317 -180,-343 0,-24 -11,-27 -155,-42 -171,-18 -172,-18 -199,-51 -49,-57 -25,-148 47,-182 92,-44 564,-1 598,54 4,7 25,-1 56,-20 28,-17 55,-31 62,-31 13,0 14,-12 3,-25 -5,-6 -24,-53 -41,-105 -44,-127 -128,-309 -198,-428 -101,-171 -116,-207 -109,-247 4,-20 20,-50 36,-68 l 28,-32 556,-3 556,-2 33,22 c 17,12 49,38 71,58 46,42 311,358 351,418 18,28 31,39 39,33 14,-11 280,-47 463,-62 89,-7 252,-10 435,-6 257,5 318,9 498,36 267,39 467,81 539,112 19,8 28,6 45,-10 56,-53 253,-119 429,-145 237,-36 575,-7 762,64 15,6 29,9 30,8 1,-2 -1,-113 -6,-248 -7,-218 -6,-246 8,-262 15,-17 44,-18 384,-18 h 367 l 32,58 c 18,31 49,77 69,102 20,25 48,63 61,85 14,22 82,115 153,207 226,296 307,456 307,604 0,109 -38,216 -106,300 l -33,41 52,74 c 100,142 93,136 158,143 89,10 153,32 279,97 156,79 214,119 357,244 97,84 125,115 134,145 16,53 6,496 -13,570 -55,215 -173,294 -496,334 -379,47 -662,23 -860,-75 -139,-68 -287,-226 -378,-402 -21,-43 -43,-77 -47,-77 -15,0 -120,76 -252,181 -205,163 -538,395 -728,507 -348,205 -774,352 -1212,418 -142,21 -435,26 -575,10 z m 549,-312 c 103,-15 328,-61 344,-71 4,-2 -28,-39 -71,-81 -137,-135 -172,-203 -217,-424 -26,-132 -69,-525 -80,-745 l -7,-132 -77,-40 c -107,-55 -172,-65 -355,-58 -453,20 -583,75 -600,259 -36,365 -143,872 -202,956 -8,13 -34,34 -56,48 l -41,26 53,29 c 192,105 527,208 785,242 86,11 425,6 524,-9 z m 875,-275 c 169,-85 339,-186 467,-280 228,-166 261,-189 270,-189 15,0 11,-11 -30,-86 -154,-282 -359,-512 -537,-603 -120,-60 -409,-118 -546,-108 -78,5 -151,37 -216,94 l -43,38 15,75 c 8,41 20,118 26,170 24,207 73,533 101,669 33,165 50,198 138,265 30,22 61,48 70,56 14,14 23,13 80,-8 35,-12 128,-55 205,-93 z M 3308,6063 c 63,-215 122,-502 167,-808 7,-49 16,-97 19,-105 6,-14 -72,-81 -159,-136 -44,-28 -321,-25 -498,5 -143,25 -397,87 -410,100 -10,10 20,72 104,213 161,269 327,480 516,655 83,77 211,181 224,182 3,1 20,-47 37,-106 z m 4937,-53 c 147,-11 237,-31 269,-58 44,-39 59,-99 63,-257 l 4,-150 -91,-44 c -69,-33 -97,-53 -116,-80 -13,-20 -31,-46 -40,-58 -19,-27 -13,-50 17,-61 17,-7 10,-13 -53,-44 -102,-49 -195,-78 -312,-97 l -100,-17 -36,-96 c -50,-131 -121,-269 -135,-259 -21,17 -199,71 -294,90 -55,11 -158,26 -230,32 -123,12 -146,18 -121,34 6,4 39,64 74,133 63,127 97,219 156,426 50,175 120,300 219,394 58,56 102,78 199,102 91,22 304,26 527,10 z M 6788,5533 c 53,-42 111,-90 129,-106 l 31,-29 -18,-52 c -68,-200 -221,-391 -461,-576 l -77,-60 -49,68 c -28,37 -71,97 -96,133 l -47,66 118,119 c 64,66 149,165 187,219 79,112 159,241 169,273 4,12 9,22 12,22 3,0 48,-35 102,-77 z M 2390,4841 c 52,-17 202,-53 333,-80 131,-26 240,-51 244,-54 10,-11 -33,-284 -72,-455 -7,-29 -18,-27 -185,29 -179,59 -578,228 -613,259 -17,15 168,344 188,336 5,-3 53,-19 105,-35 z m 3652,-13 c 14,-18 55,-77 93,-132 52,-76 64,-101 53,-108 -104,-68 -377,-206 -563,-284 -90,-37 -397,-146 -400,-141 -1,1 -18,58 -39,127 -20,69 -65,209 -99,312 -34,103 -58,190 -54,194 3,4 46,-11 94,-32 l 88,-39 140,1 c 203,1 494,56 603,114 50,26 56,25 84,-12 z M 3724,4727 c 87,-127 125,-209 201,-442 35,-104 66,-197 70,-206 6,-15 -2,-16 -62,-12 -248,17 -751,84 -816,109 -12,4 -14,11 -7,30 11,28 100,467 100,492 0,14 8,17 46,13 25,-2 74,2 108,9 74,14 215,70 253,99 14,12 29,18 33,14 4,-4 37,-52 74,-106 z m 391,-2 c 187,-23 589,-17 676,10 16,5 25,-18 77,-182 105,-330 131,-424 118,-428 -69,-24 -575,-84 -706,-85 h -45 l -13,56 c -32,136 -131,401 -207,556 -24,48 -38,88 -32,88 7,0 66,-7 132,-15 z m 2887,-76 c 296,-34 537,-90 619,-144 154,-101 96,-281 -220,-680 -61,-77 -130,-165 -153,-196 -34,-44 -50,-58 -78,-63 -54,-9 -328,-7 -334,3 -3,4 8,33 24,64 59,108 179,377 204,457 30,94 33,146 9,172 -9,10 -19,18 -22,18 -4,0 -71,-36 -150,-79 -160,-89 -321,-157 -456,-192 -80,-21 -112,-24 -290,-24 -176,0 -212,3 -303,24 l -102,24 277,138 c 281,139 481,260 627,378 145,117 161,129 168,125 4,-3 85,-14 180,-25 z M 2527,4028 c 90,-33 314,-94 454,-124 74,-15 136,-29 137,-30 2,-1 -53,-70 -122,-152 l -125,-150 -158,-7 c -151,-7 -540,-2 -549,8 -3,2 4,20 15,38 26,46 131,294 167,395 l 28,82 51,-20 c 27,-11 74,-29 102,-40 z"
                    id="path3857"
                    style="fill:#ffffff;fill-opacity:1" />
            <path
                    d="m 7985,5847 c -44,-44 -45,-77 -7,-138 63,-99 194,-169 232,-124 7,8 43,38 81,66 l 68,50 -52,70 c -64,85 -96,102 -204,107 l -83,4 z"
                    id="path3854"
                    style="fill:#ffffff;fill-opacity:1" />
        </g>
        <g
                id="g30"
                style="fill:#ffffff;fill-opacity:1;stroke:none;stroke-opacity:1"
                transform="matrix(6.3942776,0,0,-6.3942776,16894.353,11630.747)">






            <g
                    id="g7520"
                    transform="matrix(0.10838208,0,0,-0.10838208,-64.502317,1288.2931)"
                    style="fill:#ffffff;fill-opacity:1">
                <path
                        d="m 546,4165 c -8,-21 -8,-248 0,-269 5,-13 23,-16 93,-16 97,-1 117,-10 131,-61 6,-21 10,-455 10,-1121 V 1610 h 175 175 v 430 430 h 113 c 97,0 117,-3 151,-23 43,-24 38,-16 271,-447 211,-393 199,-383 483,-388 l 192,-4 v 151 151 h -72 c -94,0 -141,14 -170,49 -14,15 -91,151 -174,301 -91,167 -165,290 -191,318 -24,25 -43,47 -43,49 0,2 25,29 55,61 30,31 169,215 310,407 l 255,350 -192,3 c -106,1 -197,1 -203,-2 -5,-2 -109,-141 -229,-310 -265,-369 -249,-356 -438,-356 h -118 v 613 c 0,336 -5,630 -10,651 -12,53 -38,87 -86,111 -35,18 -63,20 -260,23 -199,3 -222,2 -228,-13 z"
                        id="path7377"
                        style="fill:#ffffff;fill-opacity:1" />
                <path
                        d="m 9590,3494 c -14,-2 -59,-9 -100,-15 -293,-42 -570,-241 -703,-505 -80,-160 -110,-315 -97,-506 9,-128 19,-176 55,-276 71,-196 215,-371 396,-479 107,-64 188,-96 317,-123 134,-29 353,-25 474,8 295,80 523,265 647,525 116,243 115,567 -3,823 -150,324 -476,531 -864,548 -53,3 -108,3 -122,0 z m 285,-338 c 152,-51 290,-170 359,-311 49,-101 69,-189 69,-315 2,-208 -80,-388 -232,-514 -64,-53 -116,-81 -206,-111 -160,-54 -376,-30 -511,57 -199,127 -305,327 -306,578 -1,114 17,194 71,305 131,275 458,409 756,311 z"
                        id="path7379"
                        style="fill:#ffffff;fill-opacity:1" />
                <path
                        d="m 3238,3480 c -287,-52 -527,-231 -648,-486 -176,-369 -116,-842 143,-1120 89,-95 169,-155 281,-209 256,-124 571,-130 856,-18 117,46 299,162 300,190 0,13 -138,243 -146,243 -2,0 -27,-18 -56,-40 -113,-86 -288,-153 -432,-166 -191,-17 -418,74 -531,213 -80,98 -145,259 -145,360 v 43 h 669 668 l 6,73 c 7,86 -6,245 -29,335 -70,278 -243,471 -499,558 -71,24 -98,27 -235,30 -85,1 -176,-1 -202,-6 z m 281,-281 c 114,-26 206,-101 263,-216 36,-72 66,-197 55,-227 -6,-14 -56,-16 -487,-16 -391,0 -480,2 -480,13 0,7 7,38 16,68 84,282 351,442 633,378 z"
                        id="path7381"
                        style="fill:#ffffff;fill-opacity:1" />
                <path
                        d="m 7443,3480 c -154,-28 -324,-135 -426,-270 l -26,-35 -1,70 c 0,92 -28,150 -85,179 -37,19 -58,21 -253,21 h -213 l -1,-145 v -145 l 95,-5 c 59,-3 101,-10 109,-18 10,-10 14,-234 18,-1130 l 5,-1117 h 175 175 l 2,475 c 1,261 2,479 3,483 0,4 19,-16 43,-45 147,-181 397,-262 671,-218 255,41 485,228 591,480 149,352 116,805 -79,1099 -54,80 -158,181 -240,230 -31,18 -95,47 -143,64 -79,27 -103,30 -228,33 -77,2 -163,-1 -192,-6 z m 187,-304 c 204,-43 343,-191 401,-426 17,-67 22,-116 22,-230 0,-129 -3,-155 -27,-235 -36,-119 -85,-204 -159,-276 -104,-102 -220,-145 -367,-137 -77,5 -99,10 -172,46 -144,70 -245,203 -294,387 -26,98 -27,371 -1,465 80,296 326,463 597,406 z"
                        id="path7383"
                        style="fill:#ffffff;fill-opacity:1" />
                <path
                        d="m 11895,3481 c -159,-27 -350,-146 -422,-263 -31,-50 -40,-41 -40,36 -1,102 -27,148 -106,181 -29,12 -80,15 -242,15 h -205 v -150 -150 h 93 c 83,0 96,-3 113,-21 18,-20 19,-56 22,-1135 l 2,-1114 h 175 175 l 2,485 3,485 43,-55 c 112,-144 304,-227 522,-227 137,1 236,24 360,85 89,43 118,64 191,137 134,132 200,253 251,459 32,124 32,433 1,567 -75,322 -260,546 -528,638 -69,24 -99,28 -220,31 -77,2 -162,0 -190,-4 z m 243,-322 c 243,-84 377,-344 359,-694 -14,-264 -122,-451 -314,-546 -80,-40 -95,-44 -180,-47 -253,-11 -444,145 -522,428 -58,209 -28,482 71,647 121,200 364,288 586,212 z"
                        id="path7385"
                        style="fill:#ffffff;fill-opacity:1" />
                <path
                        d="m 4420,3300 v -150 h 41 c 55,0 95,-25 118,-75 16,-36 170,-390 505,-1169 64,-149 116,-278 116,-289 0,-28 -88,-234 -125,-292 -35,-55 -97,-115 -143,-139 -110,-57 -261,-31 -363,61 l -38,34 -14,-23 c -13,-22 -29,-49 -100,-176 l -29,-53 23,-25 c 37,-40 140,-101 209,-125 87,-30 248,-37 343,-15 166,39 318,161 405,324 17,31 87,197 156,367 68,171 229,567 356,880 127,314 241,594 253,624 25,64 62,91 125,91 h 42 v 150 150 h -144 c -187,0 -239,-18 -292,-102 -14,-21 -70,-161 -125,-311 -55,-150 -148,-400 -205,-556 -58,-156 -117,-326 -132,-378 -14,-51 -29,-88 -32,-81 -4,7 -15,45 -25,83 -15,61 -84,237 -390,996 -83,207 -113,266 -150,296 -54,46 -84,53 -240,53 h -145 z"
                        id="path7387"
                        style="fill:#ffffff;fill-opacity:1" />
            </g>
        </g>
    </g>
</svg>
