<?xml version="1.0" encoding="UTF-8"?>
<svg width="4289.3pt" height="1751.6pt" preserveAspectRatio="xMidYMid" version="1.0" viewBox="-1 0 4289.3 1751.6" xmlns="http://www.w3.org/2000/svg" xmlns:xlink="http://www.w3.org/1999/xlink">
 <g transform="matrix(.1 0 0 -.1 -808.95 1538.4)">
  <g transform="matrix(10.532 0 0 -10.532 19249 16124)" fill="#7e7979">
   <g transform="matrix(.2004 0 0 -.2004 -1168.8 1405.9)" fill="#7e7979" stroke-width=".54084">
    <g fill="#fff" stroke-width=".54084">
     <path d="m546 4165c-8-21-8-248 0-269 5-13 23-16 93-16 97-1 117-10 131-61 6-21 10-455 10-1121v-1088h350v860h113c97 0 117-3 151-23 43-24 38-16 271-447 211-393 199-383 483-388l192-4v302h-72c-94 0-141 14-170 49-14 15-91 151-174 301-91 167-165 290-191 318-24 25-43 47-43 49s25 29 55 61c30 31 169 215 310 407l255 350-192 3c-106 1-197 1-203-2-5-2-109-141-229-310-265-369-249-356-438-356h-118v613c0 336-5 630-10 651-12 53-38 87-86 111-35 18-63 20-260 23-199 3-222 2-228-13z"/>
     <path d="m9590 3494c-14-2-59-9-100-15-293-42-570-241-703-505-80-160-110-315-97-506 9-128 19-176 55-276 71-196 215-371 396-479 107-64 188-96 317-123 134-29 353-25 474 8 295 80 523 265 647 525 116 243 115 567-3 823-150 324-476 531-864 548-53 3-108 3-122 0zm285-338c152-51 290-170 359-311 49-101 69-189 69-315 2-208-80-388-232-514-64-53-116-81-206-111-160-54-376-30-511 57-199 127-305 327-306 578-1 114 17 194 71 305 131 275 458 409 756 311z"/>
     <path d="m3238 3480c-287-52-527-231-648-486-176-369-116-842 143-1120 89-95 169-155 281-209 256-124 571-130 856-18 117 46 299 162 300 190 0 13-138 243-146 243-2 0-27-18-56-40-113-86-288-153-432-166-191-17-418 74-531 213-80 98-145 259-145 360v43h1337l6 73c7 86-6 245-29 335-70 278-243 471-499 558-71 24-98 27-235 30-85 1-176-1-202-6zm281-281c114-26 206-101 263-216 36-72 66-197 55-227-6-14-56-16-487-16-391 0-480 2-480 13 0 7 7 38 16 68 84 282 351 442 633 378z"/>
     <path d="m7443 3480c-154-28-324-135-426-270l-26-35-1 70c0 92-28 150-85 179-37 19-58 21-253 21h-213l-1-145v-145l95-5c59-3 101-10 109-18 10-10 14-234 18-1130l5-1117h350l2 475c1 261 2 479 3 483 0 4 19-16 43-45 147-181 397-262 671-218 255 41 485 228 591 480 149 352 116 805-79 1099-54 80-158 181-240 230-31 18-95 47-143 64-79 27-103 30-228 33-77 2-163-1-192-6zm187-304c204-43 343-191 401-426 17-67 22-116 22-230 0-129-3-155-27-235-36-119-85-204-159-276-104-102-220-145-367-137-77 5-99 10-172 46-144 70-245 203-294 387-26 98-27 371-1 465 80 296 326 463 597 406z"/>
     <path d="m11895 3481c-159-27-350-146-422-263-31-50-40-41-40 36-1 102-27 148-106 181-29 12-80 15-242 15h-205v-300h93c83 0 96-3 113-21 18-20 19-56 22-1135l2-1114h350l2 485 3 485 43-55c112-144 304-227 522-227 137 1 236 24 360 85 89 43 118 64 191 137 134 132 200 253 251 459 32 124 32 433 1 567-75 322-260 546-528 638-69 24-99 28-220 31-77 2-162 0-190-4zm243-322c243-84 377-344 359-694-14-264-122-451-314-546-80-40-95-44-180-47-253-11-444 145-522 428-58 209-28 482 71 647 121 200 364 288 586 212z"/>
     <path d="m4420 3300v-150h41c55 0 95-25 118-75 16-36 170-390 505-1169 64-149 116-278 116-289 0-28-88-234-125-292-35-55-97-115-143-139-110-57-261-31-363 61l-38 34-14-23c-13-22-29-49-100-176l-29-53 23-25c37-40 140-101 209-125 87-30 248-37 343-15 166 39 318 161 405 324 17 31 87 197 156 367 68 171 229 567 356 880 127 314 241 594 253 624 25 64 62 91 125 91h42v300h-144c-187 0-239-18-292-102-14-21-70-161-125-311s-148-400-205-556c-58-156-117-326-132-378-14-51-29-88-32-81-4 7-15 45-25 83-15 61-84 237-390 996-83 207-113 266-150 296-54 46-84 53-240 53h-145z"/>
    </g>
   </g>
  </g>
  <g transform="matrix(5.1247 0 0 5.1247 -201383 7182.7)" fill="#fff">
   <g fill="#fff">
    <path d="m48263-38.276c-181.63 19.981-362.3-65.496-487.98-182.48-72.576-67.552-115.34-170.92-149.26-260.99-33.924-90.065-53.925-167.2-53.925-167.2l137.14-35.71s18.428 70.637 49.441 152.97c31.011 82.334 79.724 176.05 113.16 207.17 99.789 92.882 251.37 159.09 375.92 145.39 62.028-6.8238 140.28-28.88 198.98-62.063 58.695-33.183 92.561-72.637 97.995-113.39 3.922-29.413-12.409-65.33-51.378-103.75-38.969-38.423-96.697-73.116-144.39-92.237-1274.8-511.09-4160-1128.4-4160-1128.4l29.564-138.63s2876.7 611.74 4183.2 1135.5c64.272 25.767 134.27 66.806 191.12 122.85 56.843 56.047 104.37 133.29 92.347 223.45-13.524 101.42-88.098 172.37-168.75 217.97-80.652 45.597-172.65 70.699-253.18 79.558z" color="#000000" style="-inkscape-stroke:none"/>
    <path d="m46883 1437.6c-35.776 5.1768-72.891 5.3925-111.12-1.3841-107.28-19.02-191.85-95.902-237.01-186.3-34.58-69.212-20.31-137.4-2.879-222.34 17.43-84.942 47.726-182.33 84.264-279.26 36.537-96.927 79.247-192.98 122.36-273.89 43.107-80.907 82.434-145.26 131.71-187.91l92.735 107.19c-17.739 15.352-59.929 73.336-99.379 147.38-39.45 74.043-80.277 165.57-114.82 257.22-34.548 91.648-62.837 183.85-78.008 257.78-15.171 73.929-7.507 133.86-9.191 130.49 25.704 51.447 86.133 101.46 134.98 110.12 82.731 14.667 191.34-40.5 290.05-103.48 118.49-75.59 216.47-194.35 300.85-320.28 97.577-145.62 154.12-325.13 226.5-504.2 58.558-144.88 162.55-453.21 162.55-453.21l134.31 45.177s-102.65 305.8-165.43 461.13c-69.348 171.58-127.22 361.43-240.17 530-89.442 133.48-197.6 268.51-342.37 360.86-77.273 49.296-172.59 109.37-279.92 124.9z" color="#000000" style="-inkscape-stroke:none"/>
    <path d="m47905 1600.1c-69.65-3.1785-124.32-39.927-166.26-78.174-41.939-38.247-75.187-80.719-103.81-111.61-43.792-47.272-81.177-106.43-113.11-160.67-31.932-54.235-59.012-105.21-70.866-124.07l119.97-75.461c19.229 30.586 43.209 76.973 73.025 127.61s64.916 103.89 94.95 136.31c34.205 36.923 65.4 75.897 95.337 103.2 29.937 27.302 54.532 40.21 77.233 41.246 32.17 1.4681 91.377-37.52 120.42-81.662 55.126-83.792 44.293-220.75 48.278-363.47 8.715-312.16-90.632-971.03-90.632-971.03l140.07-21.537s101.9 650.25 92.236 996.5c-3.548 127.11 21.703 295.72-71.53 437.43-49.827 75.737-134.14 150.46-245.32 145.39z" color="#000000" style="-inkscape-stroke:none"/>
    <path d="m48926 239.32c-49.466-4.3142-98.93-30.94-130.49-73.524-63.127-85.167-69.531-212.07-31.612-396.57l0.17-0.9978 0.226-0.9411c20.741-88.336 94.267-133.47 159.12-152.81 65.735-19.596 147.16-16.193 207.95 42.243 93.119 89.514 129.97 231.18 102.26 357.54-21.401 97.567-97.974 157.09-164.82 191.89-45.324 23.598-93.317 37.477-142.78 33.163zm12.291-141.18c13.605 1.1866 36.728-2.9983 64.997-17.717 43.636-22.719 84.544-63.191 91.849-96.5 15.634-71.276-16.074-180.84-62.008-225-9.789-9.411-44.583-15.993-69.26-8.6369-27.424 8.1754-58.082 35.454-61.454 49.219-33.56 164.85-12.407 255.76 6.976 281.91 9.73 13.128 15.294 15.533 28.9 16.72z" color="#000000" style="-inkscape-stroke:none"/>
    <path d="m47632-1001.2s-42.284-122.39-58.852-196.54c-17.737-79.388-32.776-218.74-32.776-218.74l140.85-15.889s16.972 144.16 30.284 203.74c12.143 54.352 54.7 181.87 54.7 181.87z" color="#000000" style="-inkscape-stroke:none"/>
    <path d="m48097-838.84s-41.699-34.371-88.029-80.832c-46.329-46.461-98.959-100.97-125.29-168.97-34.524-89.162-33.047-198.87-28.789-293.15 4.257-94.288 15.28-171.24 15.28-171.24l140.29 19.986s-10.088 70.831-14.007 157.62 2.276 191.46 19.377 235.63c8.908 23.005 52.48 78.883 93.51 120.03 41.031 41.147 77.898 71.641 77.898 71.641z" color="#000000" style="-inkscape-stroke:none"/>
    <path d="m48299-743.89s-19.467-48.69-35.6-109.34c-16.133-60.653-34.884-130.93-14.062-204.29 40.145-141.45 163.62-270.66 274.99-376.03 111.38-105.38 214.48-181.76 214.48-181.76l84.43 113.83s-96.948 72.016-201.47 170.91c-104.52 98.893-212.8 229.77-236.07 311.76-3.947 13.908 0.964 77.629 14.671 129.16 13.708 51.535 30.285 93.288 30.285 93.288z" color="#000000" style="-inkscape-stroke:none"/>
    <path d="m49046-542.98s-36.655-26.215-84.099-54.644c-47.443-28.43-108.73-57.552-134.53-62.728-33.16-6.6518-112.17-2.4264-176.28 6.8652-64.109 9.2903-115.54 21.094-115.54 21.094l-31.668-138.19s56.575-12.952 126.89-23.142c70.319-10.19 152.14-20.107 224.5-5.5916 65.004 13.04 126.66 48.457 179.49 80.112 52.826 31.655 93.731 61.011 93.731 61.011z" color="#000000" style="-inkscape-stroke:none"/>
    <path transform="matrix(28.346 0 0 -28.346 42930 2659.7)" d="m151.03 82.688c-1.0563-0.12252-2.1377-0.11842-3.2344 0.04492-3.6096 0.5376-6.2543 3.0139-8.0742 5.4102-1.6217 2.1352-3.0977 4.9891-2.7188 8.252 0.50009 4.3057 3.3269 7.7297 6.2461 10.105 2.0922 1.7027 4.8729 2.6161 7.293 3.3535s4.4551 1.1582 4.4551 1.1582l1.0156-4.8945s-1.8316-0.38197-4.0137-1.0469-4.7375-1.7523-5.5938-2.4492c-2.2509-1.8319-4.1666-4.4871-4.4356-6.8027-0.14592-1.2564 0.60241-3.1626 1.7324-4.6504 1.3401-1.7645 3.272-3.2582 4.8301-3.4902 2.3866-0.35544 5.5596 0.85765 7.9121 2.6367 1.321 0.99904 3.4421 3.9729 4.9395 6.5996 1.4974 2.6267 2.5195 4.8906 2.5195 4.8906l4.5586-2.0527s-1.1086-2.4626-2.7344-5.3145c-1.6258-2.8519-3.6187-6.1081-6.2676-8.1113-2.3322-1.7637-5.2608-3.2711-8.4297-3.6387z" color="#000000" style="-inkscape-stroke:none"/>
    <g transform="matrix(28.346 0 0 -28.346 42930 2659.7)">
     <path d="m187.99 81.424c6.8965 0.66741 6.4516 11.123 6.4516 11.123" color="#000000" style="-inkscape-stroke:none"/>
     <path d="m188.23 78.936-0.48047 4.9766c1.0986 0.10632 1.6816 0.49018 2.2656 1.166s1.068 1.7111 1.3789 2.8281c0.62185 2.234 0.54883 4.5352 0.54883 4.5352l4.9961 0.21289s0.1513-2.929-0.72852-6.0898c-0.43991-1.5804-1.1399-3.2835-2.4121-4.7559-1.2722-1.4724-3.2187-2.6457-5.5684-2.873z" color="#000000" style="-inkscape-stroke:none"/>
    </g>
   </g>
  </g>
 </g>
</svg>
