<?xml version="1.0" encoding="UTF-8" standalone="no"?>
<svg
   version="1.0"
   width="3748.8391pt"
   height="861.71283pt"
   viewBox="-1 0 3748.838 861.71251"
   preserveAspectRatio="xMidYMid"
   id="svg8"
   sodipodi:docname="logo-src.svg"
   inkscape:version="1.2.2 (732a01da63, 2022-12-09)"
   xmlns:inkscape="http://www.inkscape.org/namespaces/inkscape"
   xmlns:sodipodi="http://sodipodi.sourceforge.net/DTD/sodipodi-0.dtd"
   xmlns:xlink="http://www.w3.org/1999/xlink"
   xmlns="http://www.w3.org/2000/svg"
   xmlns:svg="http://www.w3.org/2000/svg">
  <defs
     id="defs12">
    <color-profile
       name="_09D5"
       xlink:href="../../../../../Windows/system32/spool/drivers/color/Dell_Inspiron_16_Plus_7620_3K_BOE09D5.icm"
       id="color-profile1759" />
  </defs>
  <sodipodi:namedview
     id="namedview10"
     pagecolor="#868686"
     bordercolor="#000000"
     borderopacity="0.25"
     inkscape:showpageshadow="2"
     inkscape:pageopacity="0"
     inkscape:pagecheckerboard="true"
     inkscape:deskcolor="#d1d1d1"
     inkscape:document-units="pt"
     showgrid="false"
     inkscape:zoom="0.17285156"
     inkscape:cx="4220.3842"
     inkscape:cy="1799.2316"
     inkscape:window-width="4480"
     inkscape:window-height="2396"
     inkscape:window-x="3572"
     inkscape:window-y="-12"
     inkscape:window-maximized="1"
     inkscape:current-layer="g6" />
  <g
     transform="matrix(0.1,0,0,-0.1,-805.69574,1022.2269)"
     fill="#000000"
     stroke="none"
     id="g6">
    <g
       id="g30"
       style="fill:#ffffff;fill-opacity:1;stroke:none;stroke-opacity:1"
       transform="matrix(10.531547,0,0,-10.531547,19216.504,15416.251)">
      <g
         id="g7520"
         transform="matrix(0.20039657,0,0,-0.20039657,-1168.794,1405.9389)"
         style="fill:#ffffff;fill-opacity:1;stroke-width:0.540838">
        <path
           d="m 546,4165 c -8,-21 -8,-248 0,-269 5,-13 23,-16 93,-16 97,-1 117,-10 131,-61 6,-21 10,-455 10,-1121 V 1610 h 175 175 v 430 430 h 113 c 97,0 117,-3 151,-23 43,-24 38,-16 271,-447 211,-393 199,-383 483,-388 l 192,-4 v 151 151 h -72 c -94,0 -141,14 -170,49 -14,15 -91,151 -174,301 -91,167 -165,290 -191,318 -24,25 -43,47 -43,49 0,2 25,29 55,61 30,31 169,215 310,407 l 255,350 -192,3 c -106,1 -197,1 -203,-2 -5,-2 -109,-141 -229,-310 -265,-369 -249,-356 -438,-356 h -118 v 613 c 0,336 -5,630 -10,651 -12,53 -38,87 -86,111 -35,18 -63,20 -260,23 -199,3 -222,2 -228,-13 z"
           id="path7377"
           style="fill:#ffffff;fill-opacity:1;stroke-width:0.540838" />
        <path
           d="m 9590,3494 c -14,-2 -59,-9 -100,-15 -293,-42 -570,-241 -703,-505 -80,-160 -110,-315 -97,-506 9,-128 19,-176 55,-276 71,-196 215,-371 396,-479 107,-64 188,-96 317,-123 134,-29 353,-25 474,8 295,80 523,265 647,525 116,243 115,567 -3,823 -150,324 -476,531 -864,548 -53,3 -108,3 -122,0 z m 285,-338 c 152,-51 290,-170 359,-311 49,-101 69,-189 69,-315 2,-208 -80,-388 -232,-514 -64,-53 -116,-81 -206,-111 -160,-54 -376,-30 -511,57 -199,127 -305,327 -306,578 -1,114 17,194 71,305 131,275 458,409 756,311 z"
           id="path7379"
           style="fill:#ffffff;fill-opacity:1;stroke-width:0.540838" />
        <path
           d="m 3238,3480 c -287,-52 -527,-231 -648,-486 -176,-369 -116,-842 143,-1120 89,-95 169,-155 281,-209 256,-124 571,-130 856,-18 117,46 299,162 300,190 0,13 -138,243 -146,243 -2,0 -27,-18 -56,-40 -113,-86 -288,-153 -432,-166 -191,-17 -418,74 -531,213 -80,98 -145,259 -145,360 v 43 h 669 668 l 6,73 c 7,86 -6,245 -29,335 -70,278 -243,471 -499,558 -71,24 -98,27 -235,30 -85,1 -176,-1 -202,-6 z m 281,-281 c 114,-26 206,-101 263,-216 36,-72 66,-197 55,-227 -6,-14 -56,-16 -487,-16 -391,0 -480,2 -480,13 0,7 7,38 16,68 84,282 351,442 633,378 z"
           id="path7381"
           style="fill:#ffffff;fill-opacity:1;stroke-width:0.540838" />
        <path
           d="m 7443,3480 c -154,-28 -324,-135 -426,-270 l -26,-35 -1,70 c 0,92 -28,150 -85,179 -37,19 -58,21 -253,21 h -213 l -1,-145 v -145 l 95,-5 c 59,-3 101,-10 109,-18 10,-10 14,-234 18,-1130 l 5,-1117 h 175 175 l 2,475 c 1,261 2,479 3,483 0,4 19,-16 43,-45 147,-181 397,-262 671,-218 255,41 485,228 591,480 149,352 116,805 -79,1099 -54,80 -158,181 -240,230 -31,18 -95,47 -143,64 -79,27 -103,30 -228,33 -77,2 -163,-1 -192,-6 z m 187,-304 c 204,-43 343,-191 401,-426 17,-67 22,-116 22,-230 0,-129 -3,-155 -27,-235 -36,-119 -85,-204 -159,-276 -104,-102 -220,-145 -367,-137 -77,5 -99,10 -172,46 -144,70 -245,203 -294,387 -26,98 -27,371 -1,465 80,296 326,463 597,406 z"
           id="path7383"
           style="fill:#ffffff;fill-opacity:1;stroke-width:0.540838" />
        <path
           d="m 11895,3481 c -159,-27 -350,-146 -422,-263 -31,-50 -40,-41 -40,36 -1,102 -27,148 -106,181 -29,12 -80,15 -242,15 h -205 v -150 -150 h 93 c 83,0 96,-3 113,-21 18,-20 19,-56 22,-1135 l 2,-1114 h 175 175 l 2,485 3,485 43,-55 c 112,-144 304,-227 522,-227 137,1 236,24 360,85 89,43 118,64 191,137 134,132 200,253 251,459 32,124 32,433 1,567 -75,322 -260,546 -528,638 -69,24 -99,28 -220,31 -77,2 -162,0 -190,-4 z m 243,-322 c 243,-84 377,-344 359,-694 -14,-264 -122,-451 -314,-546 -80,-40 -95,-44 -180,-47 -253,-11 -444,145 -522,428 -58,209 -28,482 71,647 121,200 364,288 586,212 z"
           id="path7385"
           style="fill:#ffffff;fill-opacity:1;stroke-width:0.540838" />
        <path
           d="m 4420,3300 v -150 h 41 c 55,0 95,-25 118,-75 16,-36 170,-390 505,-1169 64,-149 116,-278 116,-289 0,-28 -88,-234 -125,-292 -35,-55 -97,-115 -143,-139 -110,-57 -261,-31 -363,61 l -38,34 -14,-23 c -13,-22 -29,-49 -100,-176 l -29,-53 23,-25 c 37,-40 140,-101 209,-125 87,-30 248,-37 343,-15 166,39 318,161 405,324 17,31 87,197 156,367 68,171 229,567 356,880 127,314 241,594 253,624 25,64 62,91 125,91 h 42 v 150 150 h -144 c -187,0 -239,-18 -292,-102 -14,-21 -70,-161 -125,-311 -55,-150 -148,-400 -205,-556 -58,-156 -117,-326 -132,-378 -14,-51 -29,-88 -32,-81 -4,7 -15,45 -25,83 -15,61 -84,237 -390,996 -83,207 -113,266 -150,296 -54,46 -84,53 -240,53 h -145 z"
           id="path7387"
           style="fill:#ffffff;fill-opacity:1;stroke-width:0.540838" />
      </g>
    </g>
    <g
       id="SvgjsG1012"
       featurekey="nRdZyp-0"
       transform="matrix(131.18104,0,0,-131.18104,34674.632,12477.042)"
       fill="#ffffff"
       style="fill:#ffffff;fill-opacity:1;fill-rule:evenodd">
      <g
         id="g12"
         style="fill:#ffffff;fill-opacity:1;fill-rule:evenodd">
        <path
           id="path4"
           style="fill:#ffffff;fill-opacity:1;fill-rule:evenodd"
           d="m 44.009766,35.566406 c -1.806396,0.187746 -2.694783,1.984785 -3.977376,3.03203 -2.716192,2.716867 -5.43504,5.431109 -8.149578,8.149611 -1.814883,-1.611997 -3.267789,-3.665303 -5.34321,-4.96041 -1.398241,-0.460426 -2.714588,0.560218 -3.478798,1.682439 -6.220547,6.874728 -7.732593,17.533774 -3.648082,25.851306 3.572234,7.583805 11.368422,13.017794 19.779157,13.499864 6.85154,0.477423 13.999753,-2.121736 18.684254,-7.229575 0.88708,-1.157935 0.334276,-2.841996 -0.774266,-3.641651 -1.293635,-1.265896 -2.57034,-2.546673 -3.85382,-3.823067 3.665484,-3.72074 7.517106,-7.277377 11.02519,-11.142177 0.898162,-1.681425 -0.939999,-4.070696 -2.807857,-3.371133 -1.543009,0.547389 -2.376101,2.079797 -3.593575,3.080499 -2.685041,2.667149 -5.370812,5.333565 -8.055399,8.00117 -4.834308,-4.83819 -9.670249,-9.67483 -14.507812,-14.509765 3.637331,-3.680565 7.392269,-7.247407 10.90039,-11.054688 0.875686,-1.503094 -0.448104,-3.695578 -2.199218,-3.564453 z M 25.992188,47.716797 c 8.785778,8.803889 17.584267,17.595449 26.375,26.394531 -6.403151,5.072546 -16.212476,5.205815 -22.706722,0.227619 -5.702715,-4.173426 -8.798025,-11.727874 -7.346043,-18.693308 0.548793,-2.908256 1.793049,-5.675688 3.582061,-8.028451 l 0.06928,0.07211 z" />
        <path
           id="path6"
           style="fill:#ffffff;fill-opacity:1;fill-rule:evenodd"
           d="m 58.269531,17.201172 c -6.141883,0.252979 -12.287341,2.830349 -16.378906,7.521484 -0.698517,1.286645 0.09559,2.864602 1.211322,3.625412 9.90374,9.902015 19.784393,19.827355 29.757428,29.659744 1.277499,0.854922 3.023016,0.09958 3.758498,-1.121028 6.132743,-6.576687 7.913138,-16.832677 4.362145,-25.084386 C 77.977149,24.50114 71.11201,18.842266 63.273942,17.561225 61.618583,17.256137 59.944599,17.148209 58.269531,17.201172 Z m 0.830078,4.832031 c 8.105711,-0.112316 15.917007,5.662165 18.078904,13.492855 1.652961,5.587548 0.591788,11.968734 -2.918747,16.626286 C 73.573609,52.393638 73.255074,51.449578 72.78804,51.143886 64.381015,42.746133 55.978846,34.343495 47.574219,25.943359 50.862902,23.441871 54.9641,22.036053 59.099609,22.033203 Z" />
        <path
           id="path8"
           style="fill:#ffffff;fill-opacity:1;fill-rule:evenodd"
           d="m 18.146484,24.892578 c -1.856542,0.223153 -2.767877,3.013907 -1.210396,4.172892 2.480183,2.531139 4.956348,5.068934 7.52485,7.508749 0.804129,0.867389 2.208831,0.979503 3.111594,0.205492 1.017303,-0.69547 1.327641,-2.188343 0.571605,-3.186696 -0.846957,-1.253901 -2.19152,-2.164495 -3.2108,-3.338545 -1.799788,-1.758526 -3.464417,-3.684135 -5.469967,-5.194831 -0.416423,-0.185093 -0.89125,-0.198654 -1.316886,-0.167061 z" />
        <path
           id="path10"
           style="fill:#ffffff;fill-opacity:1;fill-rule:evenodd"
           d="m 31.8125,17.875 c -1.607493,0.155865 -2.617685,2.048567 -2.021908,3.508674 0.612904,3.257313 0.899865,6.59617 1.793392,9.788201 0.928994,1.634247 3.88228,1.390619 4.326103,-0.488834 0.43193,-1.580607 -0.36186,-3.155184 -0.458513,-4.769286 C 35.028345,23.593452 34.851461,21.210479 34.097069,18.974634 33.61573,18.222773 32.69612,17.799861 31.8125,17.875 Z" />
      </g>
    </g>
  </g>
</svg>
