<?xml version="1.0" encoding="UTF-8" standalone="no"?>
<svg
   version="1.0"
   width="3885.7581pt"
   height="1026.5942pt"
   viewBox="-1 0 3885.7569 1026.5939"
   preserveAspectRatio="xMidYMid"
   id="svg8"
   sodipodi:docname="logo-src.svg"
   inkscape:version="1.2.2 (732a01da63, 2022-12-09)"
   xmlns:inkscape="http://www.inkscape.org/namespaces/inkscape"
   xmlns:sodipodi="http://sodipodi.sourceforge.net/DTD/sodipodi-0.dtd"
   xmlns:xlink="http://www.w3.org/1999/xlink"
   xmlns="http://www.w3.org/2000/svg"
   xmlns:svg="http://www.w3.org/2000/svg">
  <defs
     id="defs12">
    <color-profile
       name="_09D5"
       xlink:href="../../../../../Windows/system32/spool/drivers/color/Dell_Inspiron_16_Plus_7620_3K_BOE09D5.icm"
       id="color-profile600" />
  </defs>
  <sodipodi:namedview
     id="namedview10"
     pagecolor="#868686"
     bordercolor="#000000"
     borderopacity="0.25"
     inkscape:showpageshadow="2"
     inkscape:pageopacity="0"
     inkscape:pagecheckerboard="true"
     inkscape:deskcolor="#d1d1d1"
     inkscape:document-units="pt"
     showgrid="false"
     inkscape:zoom="0.48889804"
     inkscape:cx="4372.0772"
     inkscape:cy="1329.5206"
     inkscape:window-width="3072"
     inkscape:window-height="1796"
     inkscape:window-x="-12"
     inkscape:window-y="-12"
     inkscape:window-maximized="1"
     inkscape:current-layer="g12" />
  <g
     transform="matrix(0.1,0,0,-0.1,-805.69574,1009.21)"
     fill="#000000"
     stroke="none"
     id="g6">
    <g
       id="g30"
       style="fill:#ffffff;fill-opacity:1;stroke:none;stroke-opacity:1"
       transform="matrix(10.531547,0,0,-10.531547,19216.504,16078.331)">
      <g
         id="g7520"
         transform="matrix(0.20039657,0,0,-0.20039657,-1168.794,1405.9389)"
         style="fill:#ffffff;fill-opacity:1;stroke-width:0.540838">
        <path
           d="m 546,4165 c -8,-21 -8,-248 0,-269 5,-13 23,-16 93,-16 97,-1 117,-10 131,-61 6,-21 10,-455 10,-1121 V 1610 h 175 175 v 430 430 h 113 c 97,0 117,-3 151,-23 43,-24 38,-16 271,-447 211,-393 199,-383 483,-388 l 192,-4 v 151 151 h -72 c -94,0 -141,14 -170,49 -14,15 -91,151 -174,301 -91,167 -165,290 -191,318 -24,25 -43,47 -43,49 0,2 25,29 55,61 30,31 169,215 310,407 l 255,350 -192,3 c -106,1 -197,1 -203,-2 -5,-2 -109,-141 -229,-310 -265,-369 -249,-356 -438,-356 h -118 v 613 c 0,336 -5,630 -10,651 -12,53 -38,87 -86,111 -35,18 -63,20 -260,23 -199,3 -222,2 -228,-13 z"
           id="path7377"
           style="fill:#ffffff;fill-opacity:1;stroke-width:0.540838" />
        <path
           d="m 9590,3494 c -14,-2 -59,-9 -100,-15 -293,-42 -570,-241 -703,-505 -80,-160 -110,-315 -97,-506 9,-128 19,-176 55,-276 71,-196 215,-371 396,-479 107,-64 188,-96 317,-123 134,-29 353,-25 474,8 295,80 523,265 647,525 116,243 115,567 -3,823 -150,324 -476,531 -864,548 -53,3 -108,3 -122,0 z m 285,-338 c 152,-51 290,-170 359,-311 49,-101 69,-189 69,-315 2,-208 -80,-388 -232,-514 -64,-53 -116,-81 -206,-111 -160,-54 -376,-30 -511,57 -199,127 -305,327 -306,578 -1,114 17,194 71,305 131,275 458,409 756,311 z"
           id="path7379"
           style="fill:#ffffff;fill-opacity:1;stroke-width:0.540838" />
        <path
           d="m 3238,3480 c -287,-52 -527,-231 -648,-486 -176,-369 -116,-842 143,-1120 89,-95 169,-155 281,-209 256,-124 571,-130 856,-18 117,46 299,162 300,190 0,13 -138,243 -146,243 -2,0 -27,-18 -56,-40 -113,-86 -288,-153 -432,-166 -191,-17 -418,74 -531,213 -80,98 -145,259 -145,360 v 43 h 669 668 l 6,73 c 7,86 -6,245 -29,335 -70,278 -243,471 -499,558 -71,24 -98,27 -235,30 -85,1 -176,-1 -202,-6 z m 281,-281 c 114,-26 206,-101 263,-216 36,-72 66,-197 55,-227 -6,-14 -56,-16 -487,-16 -391,0 -480,2 -480,13 0,7 7,38 16,68 84,282 351,442 633,378 z"
           id="path7381"
           style="fill:#ffffff;fill-opacity:1;stroke-width:0.540838" />
        <path
           d="m 7443,3480 c -154,-28 -324,-135 -426,-270 l -26,-35 -1,70 c 0,92 -28,150 -85,179 -37,19 -58,21 -253,21 h -213 l -1,-145 v -145 l 95,-5 c 59,-3 101,-10 109,-18 10,-10 14,-234 18,-1130 l 5,-1117 h 175 175 l 2,475 c 1,261 2,479 3,483 0,4 19,-16 43,-45 147,-181 397,-262 671,-218 255,41 485,228 591,480 149,352 116,805 -79,1099 -54,80 -158,181 -240,230 -31,18 -95,47 -143,64 -79,27 -103,30 -228,33 -77,2 -163,-1 -192,-6 z m 187,-304 c 204,-43 343,-191 401,-426 17,-67 22,-116 22,-230 0,-129 -3,-155 -27,-235 -36,-119 -85,-204 -159,-276 -104,-102 -220,-145 -367,-137 -77,5 -99,10 -172,46 -144,70 -245,203 -294,387 -26,98 -27,371 -1,465 80,296 326,463 597,406 z"
           id="path7383"
           style="fill:#ffffff;fill-opacity:1;stroke-width:0.540838" />
        <path
           d="m 11895,3481 c -159,-27 -350,-146 -422,-263 -31,-50 -40,-41 -40,36 -1,102 -27,148 -106,181 -29,12 -80,15 -242,15 h -205 v -150 -150 h 93 c 83,0 96,-3 113,-21 18,-20 19,-56 22,-1135 l 2,-1114 h 175 175 l 2,485 3,485 43,-55 c 112,-144 304,-227 522,-227 137,1 236,24 360,85 89,43 118,64 191,137 134,132 200,253 251,459 32,124 32,433 1,567 -75,322 -260,546 -528,638 -69,24 -99,28 -220,31 -77,2 -162,0 -190,-4 z m 243,-322 c 243,-84 377,-344 359,-694 -14,-264 -122,-451 -314,-546 -80,-40 -95,-44 -180,-47 -253,-11 -444,145 -522,428 -58,209 -28,482 71,647 121,200 364,288 586,212 z"
           id="path7385"
           style="fill:#ffffff;fill-opacity:1;stroke-width:0.540838" />
        <path
           d="m 4420,3300 v -150 h 41 c 55,0 95,-25 118,-75 16,-36 170,-390 505,-1169 64,-149 116,-278 116,-289 0,-28 -88,-234 -125,-292 -35,-55 -97,-115 -143,-139 -110,-57 -261,-31 -363,61 l -38,34 -14,-23 c -13,-22 -29,-49 -100,-176 l -29,-53 23,-25 c 37,-40 140,-101 209,-125 87,-30 248,-37 343,-15 166,39 318,161 405,324 17,31 87,197 156,367 68,171 229,567 356,880 127,314 241,594 253,624 25,64 62,91 125,91 h 42 v 150 150 h -144 c -187,0 -239,-18 -292,-102 -14,-21 -70,-161 -125,-311 -55,-150 -148,-400 -205,-556 -58,-156 -117,-326 -132,-378 -14,-51 -29,-88 -32,-81 -4,7 -15,45 -25,83 -15,61 -84,237 -390,996 -83,207 -113,266 -150,296 -54,46 -84,53 -240,53 h -145 z"
           id="path7387"
           style="fill:#ffffff;fill-opacity:1;stroke-width:0.540838" />
      </g>
    </g>
    <g
       id="SvgjsG1012"
       featurekey="nRdZyp-0"
       transform="matrix(156.28141,0,0,-156.28141,33965.718,12778.304)"
       fill="#ffffff"
       style="fill:#ffffff;fill-opacity:1;fill-rule:evenodd">
      <g
         id="g12"
         style="fill:#ffffff;fill-opacity:1;fill-rule:evenodd">
        <path
           id="path4"
           style="fill:#ffffff;fill-opacity:1;fill-rule:evenodd"
           d="m 43.697266,35.714844 c -1.688547,0.44286 -2.526676,2.137665 -3.813669,3.167235 -2.666606,2.665927 -5.330596,5.334508 -7.998831,7.99878 -1.867052,-1.623528 -3.314816,-3.772265 -5.479289,-5.028264 -1.42277,-0.392735 -2.65445,0.758022 -3.403788,1.831627 -6.247464,7.011131 -7.589725,17.92459 -3.192858,26.225219 3.843542,7.574732 12.015689,12.812124 20.532775,12.866076 6.508986,0.120015 13.126602,-2.458419 17.520505,-7.333331 0.816326,-1.19216 0.120395,-2.80817 -0.971191,-3.565163 -1.263263,-1.245931 -2.524232,-2.494239 -3.777639,-3.75007 3.692729,-3.775583 7.623986,-7.335664 11.123269,-11.287457 0.777121,-1.700536 -1.170926,-3.926298 -2.928011,-3.059906 -1.526508,0.695132 -2.388636,2.235073 -3.656763,3.267947 -2.612041,2.593924 -5.22208,5.189887 -7.83537,7.782541 -4.88248,-4.879857 -9.763354,-9.761419 -14.642578,-14.644531 3.664108,-3.735434 7.5125,-7.31575 11.000659,-11.203263 0.788965,-1.538777 -0.72952,-3.708301 -2.477221,-3.26744 z M 25.966797,47.550781 c 8.845075,8.860543 17.698509,17.712969 26.546875,26.570313 -6.563687,5.270172 -16.763808,5.306935 -23.309622,-0.0084 -5.741711,-4.433054 -8.642172,-12.353734 -6.780324,-19.421998 0.630742,-2.618767 1.82743,-5.084963 3.462993,-7.22198 l 0.06985,0.07156 z" />
        <path
           id="path6"
           style="fill:#ffffff;fill-opacity:1;fill-rule:evenodd"
           d="m 58.275391,17.296875 c -6.116453,0.259342 -12.239746,2.823768 -16.302735,7.478516 -0.684924,1.291245 0.165251,2.825724 1.267972,3.574621 9.878567,9.876408 19.739155,19.770987 29.681247,29.583582 1.276124,0.833827 2.980812,0.02273 3.68993,-1.185669 6.348541,-6.85976 7.924863,-17.647354 3.774906,-26.040178 C 77.026405,23.632398 69.955595,18.378643 62.14342,17.48204 60.862196,17.310542 59.567041,17.25819 58.275391,17.296875 Z m 0.824218,4.640625 c 8.338264,-0.122185 16.337606,5.974864 18.320313,14.091797 1.437272,5.499268 0.344468,11.709004 -3.136719,16.216797 -0.786531,0.234056 -1.103299,-0.741777 -1.63518,-1.103898 C 64.241594,42.738348 55.832495,34.337137 47.427734,25.931641 50.75029,23.383331 54.905613,21.941962 59.099609,21.9375 Z" />
        <path
           id="path8"
           style="fill:#ffffff;fill-opacity:1;fill-rule:evenodd"
           d="m 18.162109,24.988281 c -1.831175,0.221269 -2.652814,2.998455 -1.088008,4.082942 2.566811,2.587655 5.123634,5.263667 7.775508,7.715886 1.362957,1.058733 3.497308,-0.0452 3.609375,-1.720703 0.105278,-1.406429 -1.192286,-2.33872 -2.068052,-3.238062 -2.361295,-2.185697 -4.412031,-4.713145 -6.974916,-6.68186 -0.390808,-0.173066 -0.833421,-0.187188 -1.253907,-0.158203 z" />
        <path
           id="path10"
           style="fill:#ffffff;fill-opacity:1;fill-rule:evenodd"
           d="m 31.816406,17.970703 c -1.590898,0.161821 -2.525662,2.075266 -1.914235,3.493005 0.622566,3.248753 0.864405,6.580953 1.824425,9.754049 0.981706,1.527322 3.871703,1.147092 4.134864,-0.756808 0.298041,-1.667734 -0.472153,-3.277899 -0.572615,-4.931533 -0.404119,-2.201663 -0.541862,-4.484707 -1.337537,-6.589575 -0.470499,-0.671677 -1.325034,-1.033146 -2.134902,-0.969138 z" />
      </g>
    </g>
  </g>
</svg>
