<?xml version="1.0" encoding="UTF-8" standalone="no"?>
<svg
   version="1.0"
   width="2398.5117pt"
   height="893.82495pt"
   viewBox="-1 0 2398.5111 893.82464"
   preserveAspectRatio="xMidYMid"
   id="svg8"
   sodipodi:docname="logo.svg"
   inkscape:version="1.2.2 (732a01da63, 2022-12-09)"
   xmlns:inkscape="http://www.inkscape.org/namespaces/inkscape"
   xmlns:sodipodi="http://sodipodi.sourceforge.net/DTD/sodipodi-0.dtd"
   xmlns:xlink="http://www.w3.org/1999/xlink"
   xmlns="http://www.w3.org/2000/svg"
   xmlns:svg="http://www.w3.org/2000/svg">
  <defs
     id="defs12">
    <color-profile
       name="_09D5"
       xlink:href="../../../../../Windows/system32/spool/drivers/color/Dell_Inspiron_16_Plus_7620_3K_BOE09D5.icm"
       id="color-profile8803" />
  </defs>
  <sodipodi:namedview
     id="namedview10"
     pagecolor="#ffffff"
     bordercolor="#000000"
     borderopacity="0.25"
     inkscape:showpageshadow="2"
     inkscape:pageopacity="0"
     inkscape:pagecheckerboard="true"
     inkscape:deskcolor="#d1d1d1"
     inkscape:document-units="pt"
     showgrid="false"
     inkscape:zoom="0.48889805"
     inkscape:cx="1901.2144"
     inkscape:cy="656.57861"
     inkscape:window-width="3072"
     inkscape:window-height="1796"
     inkscape:window-x="-12"
     inkscape:window-y="-12"
     inkscape:window-maximized="1"
     inkscape:current-layer="g8735" />
  <g
     transform="matrix(0.1,0,0,-0.1,-1241.7416,870.60996)"
     fill="#000000"
     stroke="none"
     id="g6">
    <g
       id="g30"
       style="fill:#ffffff;fill-opacity:1;stroke:none;stroke-opacity:1"
       transform="matrix(10.531547,0,0,-10.531547,12470.352,15086.713)">
      <g
         id="g7520"
         transform="matrix(0.10838208,0,0,-0.10838208,-64.502317,1288.2931)"
         style="fill:#ffffff;fill-opacity:1">
        <path
           d="m 546,4165 c -8,-21 -8,-248 0,-269 5,-13 23,-16 93,-16 97,-1 117,-10 131,-61 6,-21 10,-455 10,-1121 V 1610 h 175 175 v 430 430 h 113 c 97,0 117,-3 151,-23 43,-24 38,-16 271,-447 211,-393 199,-383 483,-388 l 192,-4 v 151 151 h -72 c -94,0 -141,14 -170,49 -14,15 -91,151 -174,301 -91,167 -165,290 -191,318 -24,25 -43,47 -43,49 0,2 25,29 55,61 30,31 169,215 310,407 l 255,350 -192,3 c -106,1 -197,1 -203,-2 -5,-2 -109,-141 -229,-310 -265,-369 -249,-356 -438,-356 h -118 v 613 c 0,336 -5,630 -10,651 -12,53 -38,87 -86,111 -35,18 -63,20 -260,23 -199,3 -222,2 -228,-13 z"
           id="path7377"
           style="fill:#ffffff;fill-opacity:1" />
        <path
           d="m 9590,3494 c -14,-2 -59,-9 -100,-15 -293,-42 -570,-241 -703,-505 -80,-160 -110,-315 -97,-506 9,-128 19,-176 55,-276 71,-196 215,-371 396,-479 107,-64 188,-96 317,-123 134,-29 353,-25 474,8 295,80 523,265 647,525 116,243 115,567 -3,823 -150,324 -476,531 -864,548 -53,3 -108,3 -122,0 z m 285,-338 c 152,-51 290,-170 359,-311 49,-101 69,-189 69,-315 2,-208 -80,-388 -232,-514 -64,-53 -116,-81 -206,-111 -160,-54 -376,-30 -511,57 -199,127 -305,327 -306,578 -1,114 17,194 71,305 131,275 458,409 756,311 z"
           id="path7379"
           style="fill:#ffffff;fill-opacity:1" />
        <path
           d="m 3238,3480 c -287,-52 -527,-231 -648,-486 -176,-369 -116,-842 143,-1120 89,-95 169,-155 281,-209 256,-124 571,-130 856,-18 117,46 299,162 300,190 0,13 -138,243 -146,243 -2,0 -27,-18 -56,-40 -113,-86 -288,-153 -432,-166 -191,-17 -418,74 -531,213 -80,98 -145,259 -145,360 v 43 h 669 668 l 6,73 c 7,86 -6,245 -29,335 -70,278 -243,471 -499,558 -71,24 -98,27 -235,30 -85,1 -176,-1 -202,-6 z m 281,-281 c 114,-26 206,-101 263,-216 36,-72 66,-197 55,-227 -6,-14 -56,-16 -487,-16 -391,0 -480,2 -480,13 0,7 7,38 16,68 84,282 351,442 633,378 z"
           id="path7381"
           style="fill:#ffffff;fill-opacity:1" />
        <path
           d="m 7443,3480 c -154,-28 -324,-135 -426,-270 l -26,-35 -1,70 c 0,92 -28,150 -85,179 -37,19 -58,21 -253,21 h -213 l -1,-145 v -145 l 95,-5 c 59,-3 101,-10 109,-18 10,-10 14,-234 18,-1130 l 5,-1117 h 175 175 l 2,475 c 1,261 2,479 3,483 0,4 19,-16 43,-45 147,-181 397,-262 671,-218 255,41 485,228 591,480 149,352 116,805 -79,1099 -54,80 -158,181 -240,230 -31,18 -95,47 -143,64 -79,27 -103,30 -228,33 -77,2 -163,-1 -192,-6 z m 187,-304 c 204,-43 343,-191 401,-426 17,-67 22,-116 22,-230 0,-129 -3,-155 -27,-235 -36,-119 -85,-204 -159,-276 -104,-102 -220,-145 -367,-137 -77,5 -99,10 -172,46 -144,70 -245,203 -294,387 -26,98 -27,371 -1,465 80,296 326,463 597,406 z"
           id="path7383"
           style="fill:#ffffff;fill-opacity:1" />
        <path
           d="m 11895,3481 c -159,-27 -350,-146 -422,-263 -31,-50 -40,-41 -40,36 -1,102 -27,148 -106,181 -29,12 -80,15 -242,15 h -205 v -150 -150 h 93 c 83,0 96,-3 113,-21 18,-20 19,-56 22,-1135 l 2,-1114 h 175 175 l 2,485 3,485 43,-55 c 112,-144 304,-227 522,-227 137,1 236,24 360,85 89,43 118,64 191,137 134,132 200,253 251,459 32,124 32,433 1,567 -75,322 -260,546 -528,638 -69,24 -99,28 -220,31 -77,2 -162,0 -190,-4 z m 243,-322 c 243,-84 377,-344 359,-694 -14,-264 -122,-451 -314,-546 -80,-40 -95,-44 -180,-47 -253,-11 -444,145 -522,428 -58,209 -28,482 71,647 121,200 364,288 586,212 z"
           id="path7385"
           style="fill:#ffffff;fill-opacity:1" />
        <path
           d="m 4420,3300 v -150 h 41 c 55,0 95,-25 118,-75 16,-36 170,-390 505,-1169 64,-149 116,-278 116,-289 0,-28 -88,-234 -125,-292 -35,-55 -97,-115 -143,-139 -110,-57 -261,-31 -363,61 l -38,34 -14,-23 c -13,-22 -29,-49 -100,-176 l -29,-53 23,-25 c 37,-40 140,-101 209,-125 87,-30 248,-37 343,-15 166,39 318,161 405,324 17,31 87,197 156,367 68,171 229,567 356,880 127,314 241,594 253,624 25,64 62,91 125,91 h 42 v 150 150 h -144 c -187,0 -239,-18 -292,-102 -14,-21 -70,-161 -125,-311 -55,-150 -148,-400 -205,-556 -58,-156 -117,-326 -132,-378 -14,-51 -29,-88 -32,-81 -4,7 -15,45 -25,83 -15,61 -84,237 -390,996 -83,207 -113,266 -150,296 -54,46 -84,53 -240,53 h -145 z"
           id="path7387"
           style="fill:#ffffff;fill-opacity:1" />
      </g>
    </g>
    <g
       id="g8735"
       transform="translate(33191.429,124.70473)">
      <g
         id="g8801"
         transform="matrix(2.55761,0,0,2.55761,-7589.0428,-1968.4505)"
         style="stroke-width:109.47720723;stroke-dasharray:none;stroke:#ffffff;stroke-opacity:1">
        <path
           style="fill:none;stroke:#ffffff;stroke-width:109.47720723;stroke-dasharray:none;stroke-opacity:1"
           d="m 735.85528,3029.6117 c 0,0 203.49627,84.0322 289.95252,38.921 71.2767,-37.1908 106.1579,-134.1462 110.4165,-214.4294 3.2766,-61.7693 -21.2513,-131.5084 -67.0232,-173.0421 -63.324,-57.46 -138.26004,-103.2038 -152.09161,-180.7899 -13.33416,-74.7958 19.85752,-164.8004 77.33471,-214.3655 79.6989,-68.7278 206.452,-83.7496 309.3387,-61.9852 146.0176,30.8883 273.602,140.8959 366.0508,258.2715 61.8773,78.5616 122.6089,179.5534 110.8464,278.9333 -15.6095,131.8817 -190.94,198.3375 -229.4264,325.4222 -38.683,127.7345 -43.7712,278.3285 10.3113,400.3208 59.7055,134.6761 187.9199,239.2078 319.65,304.7604 100.5822,50.0526 220.3819,60.0176 332.5392,54.2371 108.4553,-5.5898 223.2842,-26.1733 314.4941,-85.2296 114.8596,-74.3688 215.5688,-188.215 260.3601,-317.6739 41.9423,-121.2242 36.8288,-264.5425 -7.7334,-384.8247 -38.0172,-102.6158 -174.8193,-149.0796 -208.8036,-253.106 -23.026,-70.4834 -15.2894,-153.5346 12.8891,-222.1136 37.0799,-90.2425 116.5237,-159.5208 193.3367,-219.5308 69.4019,-54.2201 148.9331,-101.1102 234.5819,-121.3876 66.0685,-15.6417 142.059,-26.0298 203.648,2.5826 78.4674,36.4538 144.2264,113.6091 170.1362,196.2865 26.5856,84.8338 -24.0668,144.4792 -97.9572,258.2715 -39.0952,60.2074 -91.9032,149.8269 -51.5565,209.1999 47.3271,69.6452 172.4529,66.0534 250.0488,33.5752 60.5752,-25.3541 95.8059,-95.8566 118.5799,-157.5455 9.5574,-25.8887 5.1555,-82.647 5.1555,-82.647"
           id="path476"
           sodipodi:nodetypes="caasssssssssssssssssssssssc" />
        <path
           style="fill:none;stroke:#ffffff;stroke-width:109.47720723;stroke-dasharray:none;stroke-opacity:1"
           d="m 718.68323,1952.3338 c 0,0 41.12241,93.4611 83.13563,115.466 37.51083,19.6468 86.8043,15.5893 127.0126,2.3093 92.25184,-30.4689 139.12704,-146.0279 230.93214,-177.8177 69.1067,-23.9299 149.5699,-24.0842 219.3856,-2.3093 67.4873,21.0487 121.4133,74.2711 173.1992,122.3939 57.6879,53.6074 108.797,115.3901 150.1059,182.4365 52.9702,85.9732 122.3941,277.1186 122.3941,277.1186"
           id="path1758"
           sodipodi:nodetypes="caaaaaac" />
        <path
           style="fill:none;stroke:#ffffff;stroke-width:109.47720723;stroke-dasharray:none;stroke-opacity:1"
           d="m 899.25462,1369.5745 c 0,0 83.41352,146.5755 145.95888,193.8662 151.6595,114.6702 353.9278,130.0665 521.4939,191.8176 81.9173,30.1878 165.7216,85.9445 210.4863,168.5321 86.4326,159.4614 178.2019,509.5966 178.2019,509.5966"
           id="path1814"
           sodipodi:nodetypes="cassc" />
        <path
           style="fill:none;stroke:#ffffff;stroke-width:109.47720723;stroke-dasharray:none;stroke-opacity:1"
           d="m 1343.0408,1196.1948 c 0,0 68.8474,149.0835 129.322,200.911 97.8621,83.869 228.3431,89.0686 353.3263,157.0339 103.3782,56.2165 199.2096,318.0677 223.632,433.1801 27.4455,129.3616 40.3603,322.7738 46.2436,442.3116"
           id="path1816"
           sodipodi:nodetypes="cassc" />
        <path
           style="fill:none;stroke:#ffffff;stroke-width:109.47720723;stroke-dasharray:none;stroke-opacity:1"
           d="m 2245.0373,2419.3105 c 0,0 -29.5374,-381.6783 11.5467,-565.7839 35.05,-157.0655 87.3474,-322.6361 196.2923,-441.0805 72.5329,-78.8574 188.7429,-101.5122 281.7373,-154.7246 109.837,-62.8498 203.2203,-281.73725 203.2203,-281.73725"
           id="path1818"
           sodipodi:nodetypes="caasc" />
        <path
           style="fill:none;stroke:#ffffff;stroke-width:109.47720723;stroke-dasharray:none;stroke-opacity:1"
           d="m 2380.0647,2424.0791 c 0,0 79.1287,-289.5547 150.106,-420.2966 44.8079,-82.5372 95.5387,-167.9475 170.8898,-224.0041 106.911,-79.5353 251.6086,-88.4359 374.1102,-140.8686 63.62,-27.2305 137.7577,-41.4965 187.0551,-90.0636 45.3682,-44.6962 85.4449,-170.8899 85.4449,-170.8899"
           id="path1822"
           sodipodi:nodetypes="caaaac" />
        <path
           style="fill:none;stroke:#ffffff;stroke-width:109.47720723;stroke-dasharray:none;stroke-opacity:1"
           d="m 2507.4877,2448.4431 c 0,0 102.0436,-219.7441 170.8898,-318.6864 60.4276,-86.8436 121.9799,-179.3825 210.1483,-237.8602 86.6215,-57.4518 192.0189,-90.5623 295.5932,-99.3008 93.9502,-7.9265 192.2632,7.936 279.428,43.8771 86.7745,35.7801 172.0256,146.2253 219.3856,163.9619 64.0245,23.9775 146.1447,9.9236 203.2203,-27.7119 33.7248,-22.238 62.3517,-103.9195 62.3517,-103.9195"
           id="path1824"
           sodipodi:nodetypes="caaassac" />
      </g>
    </g>
  </g>
</svg>
