<?xml version="1.0" encoding="UTF-8"?>
<svg width="3748.8pt" height="861.71pt" preserveAspectRatio="xMidYMid" version="1.0" viewBox="-1 0 3748.8 861.71" xmlns="http://www.w3.org/2000/svg" xmlns:xlink="http://www.w3.org/1999/xlink">
 <g transform="matrix(.1 0 0 -.1 -805.7 1022.2)">
  <g transform="matrix(10.532 0 0 -10.532 19217 15416)">
   <g transform="matrix(.2004 0 0 -.2004 -1168.8 1405.9)" stroke-width=".54084">
    <g>
     <path d="m546 4165c-8-21-8-248 0-269 5-13 23-16 93-16 97-1 117-10 131-61 6-21 10-455 10-1121v-1088h350v860h113c97 0 117-3 151-23 43-24 38-16 271-447 211-393 199-383 483-388l192-4v302h-72c-94 0-141 14-170 49-14 15-91 151-174 301-91 167-165 290-191 318-24 25-43 47-43 49s25 29 55 61c30 31 169 215 310 407l255 350-192 3c-106 1-197 1-203-2-5-2-109-141-229-310-265-369-249-356-438-356h-118v613c0 336-5 630-10 651-12 53-38 87-86 111-35 18-63 20-260 23-199 3-222 2-228-13z"/>
     <path d="m9590 3494c-14-2-59-9-100-15-293-42-570-241-703-505-80-160-110-315-97-506 9-128 19-176 55-276 71-196 215-371 396-479 107-64 188-96 317-123 134-29 353-25 474 8 295 80 523 265 647 525 116 243 115 567-3 823-150 324-476 531-864 548-53 3-108 3-122 0zm285-338c152-51 290-170 359-311 49-101 69-189 69-315 2-208-80-388-232-514-64-53-116-81-206-111-160-54-376-30-511 57-199 127-305 327-306 578-1 114 17 194 71 305 131 275 458 409 756 311z"/>
     <path d="m3238 3480c-287-52-527-231-648-486-176-369-116-842 143-1120 89-95 169-155 281-209 256-124 571-130 856-18 117 46 299 162 300 190 0 13-138 243-146 243-2 0-27-18-56-40-113-86-288-153-432-166-191-17-418 74-531 213-80 98-145 259-145 360v43h1337l6 73c7 86-6 245-29 335-70 278-243 471-499 558-71 24-98 27-235 30-85 1-176-1-202-6zm281-281c114-26 206-101 263-216 36-72 66-197 55-227-6-14-56-16-487-16-391 0-480 2-480 13 0 7 7 38 16 68 84 282 351 442 633 378z"/>
     <path d="m7443 3480c-154-28-324-135-426-270l-26-35-1 70c0 92-28 150-85 179-37 19-58 21-253 21h-213l-1-145v-145l95-5c59-3 101-10 109-18 10-10 14-234 18-1130l5-1117h350l2 475c1 261 2 479 3 483 0 4 19-16 43-45 147-181 397-262 671-218 255 41 485 228 591 480 149 352 116 805-79 1099-54 80-158 181-240 230-31 18-95 47-143 64-79 27-103 30-228 33-77 2-163-1-192-6zm187-304c204-43 343-191 401-426 17-67 22-116 22-230 0-129-3-155-27-235-36-119-85-204-159-276-104-102-220-145-367-137-77 5-99 10-172 46-144 70-245 203-294 387-26 98-27 371-1 465 80 296 326 463 597 406z"/>
     <path d="m11895 3481c-159-27-350-146-422-263-31-50-40-41-40 36-1 102-27 148-106 181-29 12-80 15-242 15h-205v-300h93c83 0 96-3 113-21 18-20 19-56 22-1135l2-1114h350l2 485 3 485 43-55c112-144 304-227 522-227 137 1 236 24 360 85 89 43 118 64 191 137 134 132 200 253 251 459 32 124 32 433 1 567-75 322-260 546-528 638-69 24-99 28-220 31-77 2-162 0-190-4zm243-322c243-84 377-344 359-694-14-264-122-451-314-546-80-40-95-44-180-47-253-11-444 145-522 428-58 209-28 482 71 647 121 200 364 288 586 212z"/>
    </g>
    <path d="m4420 3300v-150h41c55 0 95-25 118-75 16-36 170-390 505-1169 64-149 116-278 116-289 0-28-88-234-125-292-35-55-97-115-143-139-110-57-261-31-363 61l-38 34-14-23c-13-22-29-49-100-176l-29-53 23-25c37-40 140-101 209-125 87-30 248-37 343-15 166 39 318 161 405 324 17 31 87 197 156 367 68 171 229 567 356 880 127 314 241 594 253 624 25 64 62 91 125 91h42v300h-144c-187 0-239-18-292-102-14-21-70-161-125-311s-148-400-205-556c-58-156-117-326-132-378-14-51-29-88-32-81-4 7-15 45-25 83-15 61-84 237-390 996-83 207-113 266-150 296-54 46-84 53-240 53h-145z" fill="#0194d5"/>
   </g>
  </g>
  <g transform="matrix(131.18 0 0 -131.18 34675 12477)" fill-rule="evenodd" featurekey="nRdZyp-0">
   <g fill-rule="evenodd">
    <path d="m44.01 35.566c-1.8064 0.18775-2.6948 1.9848-3.9774 3.032-2.7162 2.7169-5.435 5.4311-8.1496 8.1496-1.8149-1.612-3.2678-3.6653-5.3432-4.9604-1.3982-0.46043-2.7146 0.56022-3.4788 1.6824-6.2205 6.8747-7.7326 17.534-3.6481 25.851 3.5722 7.5838 11.368 13.018 19.779 13.5 6.8515 0.47742 14-2.1217 18.684-7.2296 0.88708-1.1579 0.33428-2.842-0.77427-3.6417-1.2936-1.2659-2.5703-2.5467-3.8538-3.8231 3.6655-3.7207 7.5171-7.2774 11.025-11.142 0.89816-1.6814-0.94-4.0707-2.8079-3.3711-1.543 0.54739-2.3761 2.0798-3.5936 3.0805-2.685 2.6671-5.3708 5.3336-8.0554 8.0012-4.8343-4.8382-9.6702-9.6748-14.508-14.51 3.6373-3.6806 7.3923-7.2474 10.9-11.055 0.87569-1.5031-0.4481-3.6956-2.1992-3.5645zm-18.018 12.15c8.7858 8.8039 17.584 17.595 26.375 26.395-6.4032 5.0725-16.212 5.2058-22.707 0.22762-5.7027-4.1734-8.798-11.728-7.346-18.693 0.54879-2.9083 1.793-5.6757 3.5821-8.0285l0.06928 0.07211z"/>
    <path d="m58.27 17.201c-6.1419 0.25298-12.287 2.8303-16.379 7.5215-0.69852 1.2866 0.09559 2.8646 1.2113 3.6254 9.9037 9.902 19.784 19.827 29.757 29.66 1.2775 0.85492 3.023 0.09958 3.7585-1.121 6.1327-6.5767 7.9131-16.833 4.3621-25.084-3.0029-7.3013-9.868-12.96-17.706-14.241-1.6554-0.30509-3.3293-0.41302-5.0044-0.36005zm0.83008 4.832c8.1057-0.11232 15.917 5.6622 18.079 13.493 1.653 5.5875 0.59179 11.969-2.9187 16.626-0.68616 0.24129-1.0047-0.70277-1.4717-1.0085-8.407-8.3978-16.809-16.8-25.214-25.201 3.2887-2.5015 7.3899-3.9073 11.525-3.9102z" fill="#0194d5"/>
    <path d="m18.146 24.893c-1.8565 0.22315-2.7679 3.0139-1.2104 4.1729 2.4802 2.5311 4.9563 5.0689 7.5248 7.5087 0.80413 0.86739 2.2088 0.9795 3.1116 0.20549 1.0173-0.69547 1.3276-2.1883 0.5716-3.1867-0.84696-1.2539-2.1915-2.1645-3.2108-3.3385-1.7998-1.7585-3.4644-3.6841-5.47-5.1948-0.41642-0.18509-0.89125-0.19865-1.3169-0.16706z" fill="#0194d5"/>
    <path d="m31.812 17.875c-1.6075 0.15586-2.6177 2.0486-2.0219 3.5087 0.6129 3.2573 0.89986 6.5962 1.7934 9.7882 0.92899 1.6342 3.8823 1.3906 4.3261-0.48883 0.43193-1.5806-0.36186-3.1552-0.45851-4.7693-0.42323-2.3203-0.60011-4.7033-1.3545-6.9391-0.48134-0.75186-1.4009-1.1748-2.2846-1.0996z"/>
   </g>
  </g>
 </g>
</svg>
