<?xml version="1.0" encoding="UTF-8" standalone="no"?>
<svg
   version="1.0"
   width="3668.6338pt"
   height="1070.7466pt"
   viewBox="-1 0 3668.6327 1070.7462"
   preserveAspectRatio="xMidYMid"
   id="svg8"
   sodipodi:docname="logo-src.svg"
   inkscape:version="1.2.2 (732a01da63, 2022-12-09)"
   xmlns:inkscape="http://www.inkscape.org/namespaces/inkscape"
   xmlns:sodipodi="http://sodipodi.sourceforge.net/DTD/sodipodi-0.dtd"
   xmlns:xlink="http://www.w3.org/1999/xlink"
   xmlns="http://www.w3.org/2000/svg"
   xmlns:svg="http://www.w3.org/2000/svg">
  <defs
     id="defs12">
    <color-profile
       name="_09D5"
       xlink:href="../../../../../Windows/system32/spool/drivers/color/Dell_Inspiron_16_Plus_7620_3K_BOE09D5.icm"
       id="color-profile1216" />
  </defs>
  <sodipodi:namedview
     id="namedview10"
     pagecolor="#ffffff"
     bordercolor="#000000"
     borderopacity="0.25"
     inkscape:showpageshadow="2"
     inkscape:pageopacity="0"
     inkscape:pagecheckerboard="true"
     inkscape:deskcolor="#d1d1d1"
     inkscape:document-units="pt"
     showgrid="false"
     inkscape:zoom="0.48889806"
     inkscape:cx="3911.8584"
     inkscape:cy="1075.8889"
     inkscape:window-width="4480"
     inkscape:window-height="2396"
     inkscape:window-x="3572"
     inkscape:window-y="-12"
     inkscape:window-maximized="1"
     inkscape:current-layer="g6" />
  <g
     transform="matrix(0.1,0,0,-0.1,-805.69574,1154.0412)"
     fill="#000000"
     stroke="none"
     id="g6">
    <g
       id="g30"
       style="fill:#ffffff;fill-opacity:1;stroke:none;stroke-opacity:1"
       transform="matrix(10.531547,0,0,-10.531547,19216.504,15684.997)">
      <g
         id="g7520"
         transform="matrix(0.20039657,0,0,-0.20039657,-1168.794,1405.9389)"
         style="fill:#ffffff;fill-opacity:1;stroke-width:0.540838">
        <path
           d="m 546,4165 c -8,-21 -8,-248 0,-269 5,-13 23,-16 93,-16 97,-1 117,-10 131,-61 6,-21 10,-455 10,-1121 V 1610 h 175 175 v 430 430 h 113 c 97,0 117,-3 151,-23 43,-24 38,-16 271,-447 211,-393 199,-383 483,-388 l 192,-4 v 151 151 h -72 c -94,0 -141,14 -170,49 -14,15 -91,151 -174,301 -91,167 -165,290 -191,318 -24,25 -43,47 -43,49 0,2 25,29 55,61 30,31 169,215 310,407 l 255,350 -192,3 c -106,1 -197,1 -203,-2 -5,-2 -109,-141 -229,-310 -265,-369 -249,-356 -438,-356 h -118 v 613 c 0,336 -5,630 -10,651 -12,53 -38,87 -86,111 -35,18 -63,20 -260,23 -199,3 -222,2 -228,-13 z"
           id="path7377"
           style="fill:#ffffff;fill-opacity:1;stroke-width:0.540838" />
        <path
           d="m 9590,3494 c -14,-2 -59,-9 -100,-15 -293,-42 -570,-241 -703,-505 -80,-160 -110,-315 -97,-506 9,-128 19,-176 55,-276 71,-196 215,-371 396,-479 107,-64 188,-96 317,-123 134,-29 353,-25 474,8 295,80 523,265 647,525 116,243 115,567 -3,823 -150,324 -476,531 -864,548 -53,3 -108,3 -122,0 z m 285,-338 c 152,-51 290,-170 359,-311 49,-101 69,-189 69,-315 2,-208 -80,-388 -232,-514 -64,-53 -116,-81 -206,-111 -160,-54 -376,-30 -511,57 -199,127 -305,327 -306,578 -1,114 17,194 71,305 131,275 458,409 756,311 z"
           id="path7379"
           style="fill:#ffffff;fill-opacity:1;stroke-width:0.540838" />
        <path
           d="m 3238,3480 c -287,-52 -527,-231 -648,-486 -176,-369 -116,-842 143,-1120 89,-95 169,-155 281,-209 256,-124 571,-130 856,-18 117,46 299,162 300,190 0,13 -138,243 -146,243 -2,0 -27,-18 -56,-40 -113,-86 -288,-153 -432,-166 -191,-17 -418,74 -531,213 -80,98 -145,259 -145,360 v 43 h 669 668 l 6,73 c 7,86 -6,245 -29,335 -70,278 -243,471 -499,558 -71,24 -98,27 -235,30 -85,1 -176,-1 -202,-6 z m 281,-281 c 114,-26 206,-101 263,-216 36,-72 66,-197 55,-227 -6,-14 -56,-16 -487,-16 -391,0 -480,2 -480,13 0,7 7,38 16,68 84,282 351,442 633,378 z"
           id="path7381"
           style="fill:#ffffff;fill-opacity:1;stroke-width:0.540838" />
        <path
           d="m 7443,3480 c -154,-28 -324,-135 -426,-270 l -26,-35 -1,70 c 0,92 -28,150 -85,179 -37,19 -58,21 -253,21 h -213 l -1,-145 v -145 l 95,-5 c 59,-3 101,-10 109,-18 10,-10 14,-234 18,-1130 l 5,-1117 h 175 175 l 2,475 c 1,261 2,479 3,483 0,4 19,-16 43,-45 147,-181 397,-262 671,-218 255,41 485,228 591,480 149,352 116,805 -79,1099 -54,80 -158,181 -240,230 -31,18 -95,47 -143,64 -79,27 -103,30 -228,33 -77,2 -163,-1 -192,-6 z m 187,-304 c 204,-43 343,-191 401,-426 17,-67 22,-116 22,-230 0,-129 -3,-155 -27,-235 -36,-119 -85,-204 -159,-276 -104,-102 -220,-145 -367,-137 -77,5 -99,10 -172,46 -144,70 -245,203 -294,387 -26,98 -27,371 -1,465 80,296 326,463 597,406 z"
           id="path7383"
           style="fill:#ffffff;fill-opacity:1;stroke-width:0.540838" />
        <path
           d="m 11895,3481 c -159,-27 -350,-146 -422,-263 -31,-50 -40,-41 -40,36 -1,102 -27,148 -106,181 -29,12 -80,15 -242,15 h -205 v -150 -150 h 93 c 83,0 96,-3 113,-21 18,-20 19,-56 22,-1135 l 2,-1114 h 175 175 l 2,485 3,485 43,-55 c 112,-144 304,-227 522,-227 137,1 236,24 360,85 89,43 118,64 191,137 134,132 200,253 251,459 32,124 32,433 1,567 -75,322 -260,546 -528,638 -69,24 -99,28 -220,31 -77,2 -162,0 -190,-4 z m 243,-322 c 243,-84 377,-344 359,-694 -14,-264 -122,-451 -314,-546 -80,-40 -95,-44 -180,-47 -253,-11 -444,145 -522,428 -58,209 -28,482 71,647 121,200 364,288 586,212 z"
           id="path7385"
           style="fill:#ffffff;fill-opacity:1;stroke-width:0.540838" />
        <path
           d="m 4420,3300 v -150 h 41 c 55,0 95,-25 118,-75 16,-36 170,-390 505,-1169 64,-149 116,-278 116,-289 0,-28 -88,-234 -125,-292 -35,-55 -97,-115 -143,-139 -110,-57 -261,-31 -363,61 l -38,34 -14,-23 c -13,-22 -29,-49 -100,-176 l -29,-53 23,-25 c 37,-40 140,-101 209,-125 87,-30 248,-37 343,-15 166,39 318,161 405,324 17,31 87,197 156,367 68,171 229,567 356,880 127,314 241,594 253,624 25,64 62,91 125,91 h 42 v 150 150 h -144 c -187,0 -239,-18 -292,-102 -14,-21 -70,-161 -125,-311 -55,-150 -148,-400 -205,-556 -58,-156 -117,-326 -132,-378 -14,-51 -29,-88 -32,-81 -4,7 -15,45 -25,83 -15,61 -84,237 -390,996 -83,207 -113,266 -150,296 -54,46 -84,53 -240,53 h -145 z"
           id="path7387"
           style="fill:#ffffff;fill-opacity:1;stroke-width:0.540838" />
      </g>
    </g>
    <g
       transform="matrix(0.99058345,0,0,0.99058345,35467.569,-959.67811)"
       fill="#000000"
       stroke="none"
       id="g16"
       style="fill:#ffffff;fill-opacity:1;stroke-width:1.00952">
      <path
         id="path1000"
         style="fill:#ffffff;fill-opacity:1;stroke-width:1.00952"
         d="m 5568.5072,12618.758 c -17.9994,1 -20.4979,-2.752 -23.4979,-10.752 -7,-20 -55.011,-372.009 -55.011,-401.009 0,-22 5.0079,-26.002 43.0079,-32.002 691.9958,-110 1322.9879,-390.003 1888.9849,-840.003 129.9988,-103 452.018,-418.988 555.0168,-544.988 394.9982,-484 644.0007,-963 801.9995,-1545.997 103.9994,-384.9976 154.9946,-865.0177 131.9952,-1240.0153 -6,-98.9994 -14.0077,-192.9928 -17.0077,-210.9928 -5,-28 -2.9923,-33.0064 17.0077,-37.0064 46.9994,-9.9994 411.0036,-46.9913 416.0036,-41.9913 27,27 36.9971,639.9984 13.9971,880.9972 -84.9994,911.9946 -408.0161,1711.0056 -980.0131,2424.9996 -127.9988,160 -420.9941,461.004 -575.9929,592.004 -612.9964,517 -1327.0021,854.006 -2099.9973,989.006 -65,11 -98.4928,16.75 -116.4928,17.75 z m -1301.3797,-0.391 c -19.875,1.625 -56.6275,-4.876 -127.1275,-18.376 -796.9952,-150 -1497.0054,-481.998 -2105.0018,-997.998 -143.9988,-123 -403.9977,-385.993 -528.9971,-536.993 -480.997,-579.994 -811.00611,-1268.0091 -950.00527,-1980.0049 -68.99958,-357.9976 -80.99768,-482.9915 -78.99768,-824.9891 1,-231.9988 16.99429,-536.9988 27.99423,-547.9988 4.99994,-5 426.01435,46.0005 432.01429,52.0005 3,3 -0.002,67.0018 -6.00155,143.0012 -57.9997,718.9958 81.99688,1439.0008 405.99448,2086.9972 573.997,1147.9939 1636.0069,1943.9949 2887.9997,2165.9949 65.9994,12 121.0031,23.003 123.0025,25.003 3,3 -40.011,320.004 -55.011,403.004 -3,19 -5.9889,28.734 -25.8633,30.359 z m -206.1251,-1096.369 c -3,3 -41.9963,-4.007 -85.9963,-17.007 -388.9976,-114 -760.0042,-296.006 -1075.0018,-528 -294.9988,-218 -566.0079,-492.997 -767.0067,-776.997 -227.9988,-321.9964 -407.9901,-702.9889 -511.9895,-1079.9865 -56.9994,-205.9988 -105.001,-519.0184 -117.001,-757.0172 l -6.9985,-132.9921 h 224.9899 225.0095 l 6.0015,153.0103 c 29,704.9958 340.9894,1410.0023 851.9864,1923.0005 230.9988,232 467.0067,407.999 735.0049,547.999 162.9988,84.994 443.9981,195.992 567.9975,225.986 27.9994,6 55.002,16.016 58.002,21.016 5,9 -93.9985,408.988 -104.9979,420.988 z m 1727.7444,-3.753 c -17.25,-1.5 -21.7401,-12.747 -27.7401,-35.247 -5,-21 -28.0065,-108.005 -50.0065,-194.005 -23,-86 -40.9943,-165.003 -40.9943,-175.003 0,-15 12.987,-22.99 62.987,-35.99 249.9982,-64.994 586.0039,-219.991 827.0027,-380.991 216.9988,-144 462.0067,-364.005 637.0055,-572.005 96.9994,-114 244.9975,-333.0022 326.9969,-482.001 214.9988,-389.9976 340.9986,-858.0131 358.9986,-1333.0101 l 3.0106,-74.9902 221.9989,-3.0105 221.9989,-1.994 v 42.0109 c 0,85.9994 -20.9973,326.9956 -39.9973,457.995 -89.9994,616.9958 -354.003,1203.9951 -756.0006,1683.9939 -171.9988,203.994 -286.0055,315.004 -494.0043,481.004 -339.9982,272 -747.0034,484.999 -1147.001,599.999 -56.9994,16.5 -87.0056,24.744 -104.255,23.244 z m 145.2298,-1119.574 -113.0717,-437.2141 c 64.792,-33.2403 128.3532,-69.1911 189.0979,-109.4551 389.9976,-259.9982 690.9941,-686.0084 803.9935,-1139.0054 20.4245,-81.95 35.5657,-165.3052 45.7057,-249.0744 h 443.9392 c -28.9125,294.5823 -106.9024,575.1718 -238.6352,835.0765 -186.9988,368.9976 -440.9995,665.0135 -769.9977,896.0105 -84.8924,59.96 -226.5784,138.05 -361.0317,203.662 z m -2018.4973,-5.043 -84.4714,-25.629 c -467.9976,-237 -845.0151,-618.0006 -1071.0139,-1082.9976 -113.9994,-231.9988 -172.9965,-416.0048 -222.9959,-690.003 -4.5272,-25.6542 -5.4042,-98.745 -8.2497,-131.0764 h 442.5512 c 2.8933,22.2592 3.837,42.3684 8.6993,70.0833 28,164.9994 68.9982,309.9992 130.9982,456.998 178.2458,421.2394 511.8816,771.2658 914.2305,978.2732 z M 2508.8866,6777.9344 c -4.751,-1451.2156 -2.4575,-1427.0216 -68.8909,-1558.9384 -46.9994,-91.9994 -171.9954,-213.9963 -268.9948,-261.9963 -40,-21 -78.9992,-37.0063 -84.9992,-37.0063 -6,0 -26.9995,29.9981 -45.9989,65.9975 -41,77 -130.0019,179.0162 -208.0019,236.0156 -107.9988,79.9994 -238.998,120.9891 -391.9974,120.9891 -508.9967,1 -830.99918,-540.0072 -593.00062,-996.0042 55.99964,-105.9994 173.99852,-221.994 280.99792,-275.9934 205.9988,-102.9994 419.0081,-104.998 617.0069,-6.9986 138.9994,70 234.9898,167.9995 309.9892,319.9983 l 39.9973,79.9947 90.0038,26.0002 c 237.9988,70 423.0002,200.0017 573.999,404.0005 84.9994,114.9994 164.7505,290.6554 180.7505,414.6548 4,28 8.7905,50.9143 10.2437,56.3599 -0.3445,8.2434 8.0121,329.9922 9.0121,726.9898 0.9461,375.6093 2.8409,652.4601 4.7308,685.9368 z m 488.4719,0 c 10.6761,-12.3005 20.2259,-23.2504 32.3536,-37.8861 v 37.8861 z m 3877.6113,0 v -155.4735 c 2.4294,-102.3786 5.0241,-224.6164 5.0241,-499.4585 0,-545.997 2.9971,-716.9979 13.9971,-782.9979 65.9994,-408.997 357.012,-735.9989 753.0096,-847.9983 l 92.9948,-26.0003 46.9959,-95.0083 c 38.9994,-79.9994 61.0152,-110.0052 132.0146,-181.0046 90.9994,-89.9994 172.9927,-139.0006 295.9921,-176 92.9994,-28 268.0008,-25.9919 365.0002,4.0075 196.9988,61 338.0103,182.9954 427.0097,366.9942 108.9994,229.9988 70.9935,517.9985 -96.0053,717.9973 -181.9994,217.9982 -466.9963,296.0162 -744.9945,203.0168 -146.9994,-50 -289.0173,-170.0064 -366.0167,-311.0058 -47,-84.9994 -41.9838,-83.0033 -135.9832,-38.0033 -149.9988,72.9994 -269.0184,217.0076 -320.0178,389.0064 -16.6715,53.9369 -17.8931,173.139 -19.8227,1431.9283 z M 4009.9989,5762.6744 V 4620.9908 c 0,-1117.9934 -2.9971,-1385.99 -13.9971,-1430.99 -57,-233.9982 -220.0081,-403.0091 -441.0069,-460.0085 -128.9988,-33 -133.993,-30.9905 -171.9924,49.0095 -66,138.9988 -173.0055,245.9907 -318.0043,315.9907 -108.9994,52.9994 -171.0017,66.0171 -293.0011,66.0171 -165.9988,-1 -297.0079,-48.014 -428.0067,-152.0134 -246.9988,-196.9988 -316.9903,-551.9926 -165.9909,-843.9908 24.9994,-48.9994 61.0091,-95.0049 121.0085,-155.0043 99.9994,-98.9994 186.9959,-148.0052 320.9953,-181.0046 208.9988,-53 443.993,7.9995 608.9918,156.9983 61.9994,56 139.0075,162.0141 167.0075,230.0141 19.9994,48.9994 27.9938,53.9944 86.9932,53.9944 77.9994,0 230.0126,38.0023 335.012,84.0023 128.9988,55.9994 228.9838,122.9859 324.9832,219.9853 174.9994,175.9994 279.0012,392.0008 306.0012,638.9996 7,62.9994 11.0061,533.0153 11.0061,1372.0105 0,776.4193 0.8905,1058.8547 5.4933,1177.6734 z m 1370.1533,0 1.8572,-1253.6801 2.991,-1353.9863 26.9972,-97.9993 c 32,-113.9994 97.0125,-256.0051 159.0119,-344.0045 175.9988,-247.9988 466.9888,-419.0069 753.987,-441.0069 l 90.0038,-6.9985 45.0019,-84.9993 c 81.9994,-153.9988 208.9934,-267.0044 373.9928,-331.0044 105.9994,-40.9994 252.0053,-51.0032 370.0047,-25.0032 394.9976,87.9994 626.0077,495.0086 499.0089,878.0062 -24,72.9994 -89.0103,185.9946 -140.0103,242.9946 -72.9994,81.9994 -219.0035,169.0068 -338.0029,200.0062 -76,20 -240.9929,19.997 -321.9923,0.997 -189.9988,-43.9994 -359,-180.0013 -449.9994,-365.0001 l -37.0064,-72.9962 -58.999,6.9986 c -32.9994,3 -88.0026,17.0108 -123.0026,29.0108 -181.9988,65.9994 -311.0008,197.997 -378.0002,385.9958 l -31.0048,84.9993 -2.991,1392.9865 -1.6617,1154.6838 z M 8395.377,4898.6263 c 30.125,-0.125 59.6203,-4.6257 80.6203,-13.6257 188.9988,-78.9994 199.007,-337.9938 17.0076,-425.9932 -153.9988,-73.9994 -332.9984,39.988 -332.9984,212.9868 0,91.9994 63.9974,183.0034 150.9968,214.0034 23.5,8.5 54.2487,12.7537 84.3737,12.6287 z m -6987.3752,-0.3715 c 46.4994,7.25 95.5018,-1.2549 143.0012,-26.2543 95.9994,-50 146.9899,-172.006 113.9905,-272.0054 -45,-133.9994 -200.9959,-204.0037 -320.9953,-142.0043 -147.9994,75 -179.003,257.0189 -64.0036,372.0183 37.5,38 81.5072,60.9957 128.0072,68.2457 z M 7055.3683,2718.908 c 28,0.5937 56.8754,-3.8994 85.6248,-13.8994 151.9994,-53.9994 202.0002,-261.0009 91.0008,-378.0003 -45.9994,-48.9994 -98.99,-71.0021 -172.9894,-71.0021 -57,0 -74.0071,3.9888 -115.0071,29.9882 -103.9994,64 -143.0032,195.9973 -90.0038,300.9967 41.25,82.4994 117.3753,130.1356 201.3747,131.9169 z m -4266.8718,-3.2842 c 34,-1.875 67.4985,-8.6273 88.4985,-19.6273 139.9994,-71.9994 171.003,-253.9888 64.0036,-368.9882 -84.9994,-92.9994 -237.0034,-97.0085 -325.0028,-10.0091 -51,51 -66.9962,85.008 -72.9962,154.0074 -10,101.9994 54.008,197.9996 154.0074,234.999 23,8.5 57.4895,11.4932 91.4895,9.6182 z" />
    </g>
  </g>
</svg>
