<?xml version="1.0" encoding="UTF-8" standalone="no"?>
<svg
   version="1.0"
   width="4289.3247pt"
   height="1751.6117pt"
   viewBox="-1 0 4289.3234 1751.6111"
   preserveAspectRatio="xMidYMid"
   id="svg8"
   sodipodi:docname="logo-src.svg"
   inkscape:version="1.2.2 (732a01da63, 2022-12-09)"
   xmlns:inkscape="http://www.inkscape.org/namespaces/inkscape"
   xmlns:sodipodi="http://sodipodi.sourceforge.net/DTD/sodipodi-0.dtd"
   xmlns:xlink="http://www.w3.org/1999/xlink"
   xmlns="http://www.w3.org/2000/svg"
   xmlns:svg="http://www.w3.org/2000/svg">
  <defs
     id="defs12">
    <color-profile
       name="_09D5"
       xlink:href="../../../../../Windows/system32/spool/drivers/color/Dell_Inspiron_16_Plus_7620_3K_BOE09D5.icm"
       id="color-profile8573" />
  </defs>
  <sodipodi:namedview
     id="namedview10"
     pagecolor="#ffffff"
     bordercolor="#000000"
     borderopacity="0.25"
     inkscape:showpageshadow="2"
     inkscape:pageopacity="0"
     inkscape:pagecheckerboard="true"
     inkscape:deskcolor="#d1d1d1"
     inkscape:document-units="pt"
     showgrid="false"
     inkscape:zoom="0.12222452"
     inkscape:cx="4724.9114"
     inkscape:cy="-621.80652"
     inkscape:window-width="3072"
     inkscape:window-height="1796"
     inkscape:window-x="-12"
     inkscape:window-y="-12"
     inkscape:window-maximized="1"
     inkscape:current-layer="g7520" />
  <g
     transform="matrix(0.1,0,0,-0.1,-808.94994,1538.4059)"
     fill="#000000"
     stroke="none"
     id="g6">
    <g
       id="g30"
       style="fill:#7e7979;fill-opacity:1;stroke:none;stroke-opacity:1"
       transform="matrix(10.531547,0,0,-10.531547,19249.046,16124.319)">
      <g
         id="g7520"
         transform="matrix(0.20039657,0,0,-0.20039657,-1168.794,1405.9389)"
         style="fill:#7e7979;fill-opacity:1;stroke-width:0.540838">
        <g
           id="g8511">
          <path
             d="m 546,4165 c -8,-21 -8,-248 0,-269 5,-13 23,-16 93,-16 97,-1 117,-10 131,-61 6,-21 10,-455 10,-1121 V 1610 h 175 175 v 430 430 h 113 c 97,0 117,-3 151,-23 43,-24 38,-16 271,-447 211,-393 199,-383 483,-388 l 192,-4 v 151 151 h -72 c -94,0 -141,14 -170,49 -14,15 -91,151 -174,301 -91,167 -165,290 -191,318 -24,25 -43,47 -43,49 0,2 25,29 55,61 30,31 169,215 310,407 l 255,350 -192,3 c -106,1 -197,1 -203,-2 -5,-2 -109,-141 -229,-310 -265,-369 -249,-356 -438,-356 h -118 v 613 c 0,336 -5,630 -10,651 -12,53 -38,87 -86,111 -35,18 -63,20 -260,23 -199,3 -222,2 -228,-13 z"
             id="path7377"
             style="fill:#ffffff;fill-opacity:1;stroke-width:0.540838" />
          <path
             d="m 9590,3494 c -14,-2 -59,-9 -100,-15 -293,-42 -570,-241 -703,-505 -80,-160 -110,-315 -97,-506 9,-128 19,-176 55,-276 71,-196 215,-371 396,-479 107,-64 188,-96 317,-123 134,-29 353,-25 474,8 295,80 523,265 647,525 116,243 115,567 -3,823 -150,324 -476,531 -864,548 -53,3 -108,3 -122,0 z m 285,-338 c 152,-51 290,-170 359,-311 49,-101 69,-189 69,-315 2,-208 -80,-388 -232,-514 -64,-53 -116,-81 -206,-111 -160,-54 -376,-30 -511,57 -199,127 -305,327 -306,578 -1,114 17,194 71,305 131,275 458,409 756,311 z"
             id="path7379"
             style="fill:#ffffff;fill-opacity:1;stroke-width:0.540838" />
          <path
             d="m 3238,3480 c -287,-52 -527,-231 -648,-486 -176,-369 -116,-842 143,-1120 89,-95 169,-155 281,-209 256,-124 571,-130 856,-18 117,46 299,162 300,190 0,13 -138,243 -146,243 -2,0 -27,-18 -56,-40 -113,-86 -288,-153 -432,-166 -191,-17 -418,74 -531,213 -80,98 -145,259 -145,360 v 43 h 669 668 l 6,73 c 7,86 -6,245 -29,335 -70,278 -243,471 -499,558 -71,24 -98,27 -235,30 -85,1 -176,-1 -202,-6 z m 281,-281 c 114,-26 206,-101 263,-216 36,-72 66,-197 55,-227 -6,-14 -56,-16 -487,-16 -391,0 -480,2 -480,13 0,7 7,38 16,68 84,282 351,442 633,378 z"
             id="path7381"
             style="fill:#ffffff;fill-opacity:1;stroke-width:0.540838" />
          <path
             d="m 7443,3480 c -154,-28 -324,-135 -426,-270 l -26,-35 -1,70 c 0,92 -28,150 -85,179 -37,19 -58,21 -253,21 h -213 l -1,-145 v -145 l 95,-5 c 59,-3 101,-10 109,-18 10,-10 14,-234 18,-1130 l 5,-1117 h 175 175 l 2,475 c 1,261 2,479 3,483 0,4 19,-16 43,-45 147,-181 397,-262 671,-218 255,41 485,228 591,480 149,352 116,805 -79,1099 -54,80 -158,181 -240,230 -31,18 -95,47 -143,64 -79,27 -103,30 -228,33 -77,2 -163,-1 -192,-6 z m 187,-304 c 204,-43 343,-191 401,-426 17,-67 22,-116 22,-230 0,-129 -3,-155 -27,-235 -36,-119 -85,-204 -159,-276 -104,-102 -220,-145 -367,-137 -77,5 -99,10 -172,46 -144,70 -245,203 -294,387 -26,98 -27,371 -1,465 80,296 326,463 597,406 z"
             id="path7383"
             style="fill:#ffffff;fill-opacity:1;stroke-width:0.540838" />
          <path
             d="m 11895,3481 c -159,-27 -350,-146 -422,-263 -31,-50 -40,-41 -40,36 -1,102 -27,148 -106,181 -29,12 -80,15 -242,15 h -205 v -150 -150 h 93 c 83,0 96,-3 113,-21 18,-20 19,-56 22,-1135 l 2,-1114 h 175 175 l 2,485 3,485 43,-55 c 112,-144 304,-227 522,-227 137,1 236,24 360,85 89,43 118,64 191,137 134,132 200,253 251,459 32,124 32,433 1,567 -75,322 -260,546 -528,638 -69,24 -99,28 -220,31 -77,2 -162,0 -190,-4 z m 243,-322 c 243,-84 377,-344 359,-694 -14,-264 -122,-451 -314,-546 -80,-40 -95,-44 -180,-47 -253,-11 -444,145 -522,428 -58,209 -28,482 71,647 121,200 364,288 586,212 z"
             id="path7385"
             style="fill:#ffffff;fill-opacity:1;stroke-width:0.540838" />
          <path
             d="m 4420,3300 v -150 h 41 c 55,0 95,-25 118,-75 16,-36 170,-390 505,-1169 64,-149 116,-278 116,-289 0,-28 -88,-234 -125,-292 -35,-55 -97,-115 -143,-139 -110,-57 -261,-31 -363,61 l -38,34 -14,-23 c -13,-22 -29,-49 -100,-176 l -29,-53 23,-25 c 37,-40 140,-101 209,-125 87,-30 248,-37 343,-15 166,39 318,161 405,324 17,31 87,197 156,367 68,171 229,567 356,880 127,314 241,594 253,624 25,64 62,91 125,91 h 42 v 150 150 h -144 c -187,0 -239,-18 -292,-102 -14,-21 -70,-161 -125,-311 -55,-150 -148,-400 -205,-556 -58,-156 -117,-326 -132,-378 -14,-51 -29,-88 -32,-81 -4,7 -15,45 -25,83 -15,61 -84,237 -390,996 -83,207 -113,266 -150,296 -54,46 -84,53 -240,53 h -145 z"
             id="path7387"
             style="fill:#ffffff;fill-opacity:1;stroke-width:0.540838" />
        </g>
      </g>
    </g>
    <g
       id="path5073"
       transform="matrix(28.346457,0,0,-28.346457,42929.636,2659.7314)" />
    <g
       id="g7276"
       transform="matrix(5.12469,0,0,5.12469,-201382.78,7182.7051)"
       style="fill:#ffffff;fill-opacity:1;stroke:none;stroke-width:0.195134">
      <g
         id="g7261"
         style="fill:#ffffff;fill-opacity:1;stroke:none;stroke-width:0.195134">
        <path
           style="color:#000000;fill:#ffffff;fill-opacity:1;stroke:none;stroke-width:5.53136;-inkscape-stroke:none"
           d="m 48262.978,-38.275505 c -181.626,19.980822 -362.296,-65.495825 -487.98,-182.480405 -72.576,-67.55187 -115.338,-170.9212 -149.262,-260.98668 -33.924,-90.06519 -53.925,-167.19987 -53.925,-167.19987 l 137.137,-35.70974 c 0,0 18.428,70.63711 49.441,152.97109 31.011,82.33427 79.724,176.04766 113.164,207.17292 99.789,92.8817 251.366,159.08885 375.923,145.38614 62.028,-6.82384 140.284,-28.8805 198.978,-62.06315 58.695,-33.18264 92.561,-72.63723 97.995,-113.38583 3.922,-29.41341 -12.409,-65.32979 -51.378,-103.75256 -38.969,-38.42278 -96.697,-73.11629 -144.39,-92.23654 -1274.838,-511.09177 -4159.953,-1128.43277 -4159.953,-1128.43277 l 29.564,-138.6317 c 0,0 2876.674,611.7431 4183.151,1135.51905 64.272,25.76693 134.274,66.80636 191.118,122.85326 56.843,56.04662 104.369,133.29496 92.347,223.44974 -13.524,101.4154 -88.098,172.372 -168.75,217.96872 -80.652,45.596719 -172.646,70.698668 -253.18,79.558325 z"
           id="path356" />
        <path
           style="color:#000000;fill:#ffffff;fill-opacity:1;stroke:none;stroke-width:5.53136;-inkscape-stroke:none"
           d="m 46882.693,1437.6226 c -35.776,5.1768 -72.891,5.3925 -111.115,-1.3841 -107.284,-19.0196 -191.85,-95.9023 -237.014,-186.3005 -34.58,-69.2119 -20.31,-137.4001 -2.879,-222.3425 17.43,-84.94237 47.726,-182.33028 84.264,-279.25688 36.537,-96.92663 79.247,-192.97942 122.355,-273.88659 43.107,-80.90713 82.434,-145.2598 131.711,-187.90599 l 92.735,107.18504 c -17.739,15.35244 -59.929,73.33648 -99.379,147.37943 -39.45,74.04296 -80.277,165.57407 -114.825,257.22193 -34.548,91.64787 -62.837,183.84625 -78.008,257.77556 -15.171,73.9294 -7.507,133.8634 -9.191,130.4934 25.704,51.4467 86.133,101.4599 134.978,110.1194 82.731,14.6666 191.337,-40.4999 290.053,-103.4757 118.49,-75.5905 216.466,-194.34829 300.849,-320.28174 97.577,-145.62323 154.119,-325.13029 226.495,-504.20152 58.558,-144.88251 162.549,-453.211144 162.549,-453.211144 l 134.314,45.177166 c 0,0 -102.648,305.797608 -165.429,461.128198 -69.348,171.57935 -127.216,361.42955 -240.169,530.00125 -89.442,133.48209 -197.603,268.50819 -342.372,360.86369 -77.273,49.2959 -172.594,109.3711 -279.922,124.9016 z"
           id="path1550" />
        <path
           style="color:#000000;fill:#ffffff;fill-opacity:1;stroke:none;stroke-width:5.53136;-inkscape-stroke:none"
           d="m 47904.605,1600.1165 c -69.65,-3.1785 -124.32,-39.9273 -166.258,-78.1742 -41.939,-38.247 -75.187,-80.7189 -103.808,-111.6142 -43.792,-47.2719 -81.177,-106.4319 -113.109,-160.6669 -31.932,-54.2349 -59.012,-105.2148 -70.866,-124.0711 l 119.974,-75.4613 c 19.229,30.5865 43.209,76.973 73.025,127.6144 29.816,50.6414 64.916,103.8861 94.95,136.3066 34.205,36.9233 65.4,75.8972 95.337,103.1988 29.937,27.3017 54.532,40.2104 77.233,41.2463 32.17,1.4681 91.377,-37.5205 120.417,-81.6621 55.126,-83.7923 44.293,-220.7509 48.278,-363.4658 8.715,-312.16375 -90.632,-971.032268 -90.632,-971.032268 l 140.072,-21.536674 c 0,0 101.903,650.248162 92.236,996.499742 -3.548,127.1134 21.703,295.7173 -71.53,437.4323 -49.827,75.7374 -134.142,150.4599 -245.319,145.3864 z"
           id="path1552" />
        <path
           style="color:#000000;fill:#ffffff;fill-opacity:1;stroke:none;stroke-width:5.53136;-inkscape-stroke:none"
           d="m 48926.462,239.32044 c -49.466,-4.31424 -98.93,-30.93987 -130.494,-73.52362 -63.127,-85.16747 -69.531,-212.065204 -31.612,-396.57348 l 0.17,-0.9978 0.226,-0.9411 c 20.741,-88.3355 94.267,-133.47241 159.117,-152.80526 65.735,-19.59647 147.159,-16.19348 207.948,42.24302 93.119,89.51414 129.974,231.17647 102.258,357.541745 -21.401,97.567255 -97.974,157.088975 -164.82,191.892215 -45.324,23.59832 -93.317,37.47739 -142.784,33.16315 z m 12.291,-141.178621 c 13.605,1.186583 36.728,-2.998289 64.997,-17.716535 43.636,-22.719317 84.544,-63.191056 91.849,-96.499759 15.634,-71.276287 -16.074,-180.844325 -62.008,-224.999885 -9.789,-9.41103 -44.583,-15.99336 -69.26,-8.63689 -27.424,8.17541 -58.082,35.45434 -61.454,49.21881 -33.56,164.851285 -12.407,255.764382 6.976,281.914272 9.73,13.127528 15.294,15.533376 28.9,16.719987 z"
           id="path1556" />
        <path
           style="color:#000000;fill:#ffffff;fill-opacity:1;stroke:none;stroke-width:5.53136;-inkscape-stroke:none"
           d="m 47632.269,-1001.1693 c 0,0 -42.284,-122.3861 -58.852,-196.5427 -17.737,-79.3882 -32.776,-218.744 -32.776,-218.744 l 140.847,-15.8893 c 0,0 16.972,144.1559 30.284,203.7402 12.143,54.3523 54.7,181.8711 54.7,181.8711 z"
           id="path1558" />
        <path
           style="color:#000000;fill:#ffffff;fill-opacity:1;stroke:none;stroke-width:5.53136;-inkscape-stroke:none"
           d="m 48096.608,-838.84161 c 0,0 -41.699,-34.37065 -88.029,-80.83163 -46.329,-46.46069 -98.959,-100.97236 -125.289,-168.97126 -34.524,-89.1621 -33.047,-198.8657 -28.789,-293.1534 4.257,-94.2879 15.28,-171.2415 15.28,-171.2415 l 140.293,19.9865 c 0,0 -10.088,70.8313 -14.007,157.6219 -3.919,86.7906 2.276,191.4625 19.377,235.6299 8.908,23.0046 52.48,78.8829 93.51,120.0294 41.031,41.1469 77.898,71.64145 77.898,71.64145 z"
           id="path1560" />
        <path
           style="color:#000000;fill:#ffffff;fill-opacity:1;stroke:none;stroke-width:5.53136;-inkscape-stroke:none"
           d="m 48299.463,-743.89204 c 0,0 -19.467,-48.69042 -35.6,-109.34419 -16.133,-60.65348 -34.884,-130.93002 -14.062,-204.29377 40.145,-141.4463 163.618,-270.6554 274.994,-376.0333 111.376,-105.3783 214.481,-181.7606 214.481,-181.7606 l 84.43,113.8286 c 0,0 -96.948,72.0159 -201.47,170.9093 -104.523,98.8934 -212.802,229.7653 -236.073,311.7557 -3.947,13.9076 0.964,77.62935 14.671,129.16462 13.708,51.53528 30.285,93.28848 30.285,93.28848 z"
           id="path1562" />
        <path
           style="color:#000000;fill:#ffffff;fill-opacity:1;stroke:none;stroke-width:5.53136;-inkscape-stroke:none"
           d="m 49046.381,-542.97547 c 0,0 -36.655,-26.2148 -84.099,-54.64431 -47.443,-28.42952 -108.731,-57.55153 -134.534,-62.7276 -33.16,-6.65178 -112.171,-2.42645 -176.28,6.86523 -64.109,9.29027 -115.545,21.09373 -115.545,21.09373 l -31.668,-138.18897 c 0,0 56.575,-12.95207 126.894,-23.14233 70.319,-10.19027 152.141,-20.107 224.502,-5.59163 65.004,13.03966 126.665,48.45685 179.491,80.11191 52.826,31.65477 93.731,61.01121 93.731,61.01121 z"
           id="path1564" />
        <path
           style="color:#000000;fill:#ffffff;fill-opacity:1;stroke:none;stroke-width:0.195134;-inkscape-stroke:none"
           d="m 151.03125,82.6875 c -1.05628,-0.122524 -2.13766,-0.118418 -3.23438,0.04492 -3.60962,0.5376 -6.25427,3.013918 -8.07421,5.410156 -1.62173,2.135249 -3.09773,4.989124 -2.71875,8.251953 0.50009,4.305711 3.32693,7.729731 6.24609,10.105471 2.0922,1.70273 4.87294,2.61611 7.29297,3.35352 2.42003,0.73741 4.45508,1.1582 4.45508,1.1582 l 1.01562,-4.89453 c 0,0 -1.83157,-0.38197 -4.01367,-1.04688 -2.1821,-0.66491 -4.73746,-1.75233 -5.59375,-2.44922 -2.25088,-1.83186 -4.1666,-4.487136 -4.43555,-6.802733 -0.14592,-1.256383 0.60241,-3.162553 1.73242,-4.65039 1.34014,-1.764494 3.27197,-3.258177 4.83008,-3.490235 2.38656,-0.355441 5.55962,0.857652 7.91211,2.636719 1.32104,0.999039 3.44206,3.972946 4.93946,6.599609 1.49739,2.626664 2.51953,4.89063 2.51953,4.89063 l 4.55859,-2.052739 c 0,0 -1.10858,-2.462555 -2.73437,-5.314453 -1.6258,-2.851898 -3.61872,-6.108121 -6.26758,-8.111328 -2.33219,-1.763717 -5.26085,-3.271101 -8.42969,-3.638672 z"
           id="path6573"
           transform="matrix(28.346457,0,0,-28.346457,42929.636,2659.7317)" />
        <g
           id="path5075"
           transform="matrix(28.346457,0,0,-28.346457,42929.636,2659.7314)"
           style="fill:#ffffff;fill-opacity:1;stroke:none;stroke-width:0.195134">
          <path
             style="color:#000000;fill:#ffffff;fill-opacity:1;stroke:none;stroke-width:0.975671;-inkscape-stroke:none"
             d="m 187.98628,81.423645 c 6.89654,0.667406 6.4516,11.123449 6.4516,11.123449"
             id="path6565" />
          <path
             style="color:#000000;fill:#ffffff;fill-opacity:1;stroke:none;stroke-width:0.195134;-inkscape-stroke:none"
             d="m 188.22656,78.935547 -0.48047,4.976562 c 1.09862,0.106318 1.68165,0.490178 2.26563,1.166016 0.58398,0.675838 1.06798,1.711113 1.3789,2.828125 0.62185,2.234024 0.54883,4.535156 0.54883,4.535156 l 4.9961,0.212891 c 0,0 0.1513,-2.929 -0.72852,-6.089844 -0.43991,-1.580422 -1.13986,-3.283484 -2.41211,-4.755859 -1.27224,-1.472376 -3.21871,-2.645662 -5.56836,-2.873047 z"
             id="path6567" />
        </g>
      </g>
    </g>
  </g>
</svg>
