<?xml version="1.0" encoding="UTF-8" standalone="no"?>
<svg
   version="1.0"
   width="3670.355pt"
   height="1080.9237pt"
   viewBox="-1 0 3670.3539 1080.9233"
   preserveAspectRatio="xMidYMid"
   id="svg8"
   sodipodi:docname="logo.svg"
   inkscape:version="1.2.2 (732a01da63, 2022-12-09)"
   xmlns:inkscape="http://www.inkscape.org/namespaces/inkscape"
   xmlns:sodipodi="http://sodipodi.sourceforge.net/DTD/sodipodi-0.dtd"
   xmlns:xlink="http://www.w3.org/1999/xlink"
   xmlns="http://www.w3.org/2000/svg"
   xmlns:svg="http://www.w3.org/2000/svg">
  <defs
     id="defs12">
    <color-profile
       name="_09D5"
       xlink:href="../../../../../Windows/system32/spool/drivers/color/Dell_Inspiron_16_Plus_7620_3K_BOE09D5.icm"
       id="color-profile6921" />
  </defs>
  <sodipodi:namedview
     id="namedview10"
     pagecolor="#ffffff"
     bordercolor="#000000"
     borderopacity="0.25"
     inkscape:showpageshadow="2"
     inkscape:pageopacity="0"
     inkscape:pagecheckerboard="true"
     inkscape:deskcolor="#d1d1d1"
     inkscape:document-units="pt"
     showgrid="false"
     inkscape:zoom="0.24444903"
     inkscape:cx="3098.8056"
     inkscape:cy="503.17239"
     inkscape:window-width="3072"
     inkscape:window-height="1796"
     inkscape:window-x="-12"
     inkscape:window-y="-12"
     inkscape:window-maximized="1"
     inkscape:current-layer="g6" />
  <g
     transform="matrix(0.1,0,0,-0.1,-805.69574,1159.1297)"
     fill="#000000"
     stroke="none"
     id="g6">
    <g
       id="g30"
       style="fill:#ffffff;fill-opacity:1;stroke:none;stroke-opacity:1"
       transform="matrix(10.531547,0,0,-10.531547,19216.504,15684.997)">
      <g
         id="g7520"
         transform="matrix(0.20039657,0,0,-0.20039657,-1168.794,1405.9389)"
         style="fill:#ffffff;fill-opacity:1;stroke-width:0.540838">
        <path
           d="m 546,4165 c -8,-21 -8,-248 0,-269 5,-13 23,-16 93,-16 97,-1 117,-10 131,-61 6,-21 10,-455 10,-1121 V 1610 h 175 175 v 430 430 h 113 c 97,0 117,-3 151,-23 43,-24 38,-16 271,-447 211,-393 199,-383 483,-388 l 192,-4 v 151 151 h -72 c -94,0 -141,14 -170,49 -14,15 -91,151 -174,301 -91,167 -165,290 -191,318 -24,25 -43,47 -43,49 0,2 25,29 55,61 30,31 169,215 310,407 l 255,350 -192,3 c -106,1 -197,1 -203,-2 -5,-2 -109,-141 -229,-310 -265,-369 -249,-356 -438,-356 h -118 v 613 c 0,336 -5,630 -10,651 -12,53 -38,87 -86,111 -35,18 -63,20 -260,23 -199,3 -222,2 -228,-13 z"
           id="path7377"
           style="fill:#ffffff;fill-opacity:1;stroke-width:0.540838" />
        <path
           d="m 9590,3494 c -14,-2 -59,-9 -100,-15 -293,-42 -570,-241 -703,-505 -80,-160 -110,-315 -97,-506 9,-128 19,-176 55,-276 71,-196 215,-371 396,-479 107,-64 188,-96 317,-123 134,-29 353,-25 474,8 295,80 523,265 647,525 116,243 115,567 -3,823 -150,324 -476,531 -864,548 -53,3 -108,3 -122,0 z m 285,-338 c 152,-51 290,-170 359,-311 49,-101 69,-189 69,-315 2,-208 -80,-388 -232,-514 -64,-53 -116,-81 -206,-111 -160,-54 -376,-30 -511,57 -199,127 -305,327 -306,578 -1,114 17,194 71,305 131,275 458,409 756,311 z"
           id="path7379"
           style="fill:#ffffff;fill-opacity:1;stroke-width:0.540838" />
        <path
           d="m 3238,3480 c -287,-52 -527,-231 -648,-486 -176,-369 -116,-842 143,-1120 89,-95 169,-155 281,-209 256,-124 571,-130 856,-18 117,46 299,162 300,190 0,13 -138,243 -146,243 -2,0 -27,-18 -56,-40 -113,-86 -288,-153 -432,-166 -191,-17 -418,74 -531,213 -80,98 -145,259 -145,360 v 43 h 669 668 l 6,73 c 7,86 -6,245 -29,335 -70,278 -243,471 -499,558 -71,24 -98,27 -235,30 -85,1 -176,-1 -202,-6 z m 281,-281 c 114,-26 206,-101 263,-216 36,-72 66,-197 55,-227 -6,-14 -56,-16 -487,-16 -391,0 -480,2 -480,13 0,7 7,38 16,68 84,282 351,442 633,378 z"
           id="path7381"
           style="fill:#ffffff;fill-opacity:1;stroke-width:0.540838" />
        <path
           d="m 7443,3480 c -154,-28 -324,-135 -426,-270 l -26,-35 -1,70 c 0,92 -28,150 -85,179 -37,19 -58,21 -253,21 h -213 l -1,-145 v -145 l 95,-5 c 59,-3 101,-10 109,-18 10,-10 14,-234 18,-1130 l 5,-1117 h 175 175 l 2,475 c 1,261 2,479 3,483 0,4 19,-16 43,-45 147,-181 397,-262 671,-218 255,41 485,228 591,480 149,352 116,805 -79,1099 -54,80 -158,181 -240,230 -31,18 -95,47 -143,64 -79,27 -103,30 -228,33 -77,2 -163,-1 -192,-6 z m 187,-304 c 204,-43 343,-191 401,-426 17,-67 22,-116 22,-230 0,-129 -3,-155 -27,-235 -36,-119 -85,-204 -159,-276 -104,-102 -220,-145 -367,-137 -77,5 -99,10 -172,46 -144,70 -245,203 -294,387 -26,98 -27,371 -1,465 80,296 326,463 597,406 z"
           id="path7383"
           style="fill:#ffffff;fill-opacity:1;stroke-width:0.540838" />
        <path
           d="m 11895,3481 c -159,-27 -350,-146 -422,-263 -31,-50 -40,-41 -40,36 -1,102 -27,148 -106,181 -29,12 -80,15 -242,15 h -205 v -150 -150 h 93 c 83,0 96,-3 113,-21 18,-20 19,-56 22,-1135 l 2,-1114 h 175 175 l 2,485 3,485 43,-55 c 112,-144 304,-227 522,-227 137,1 236,24 360,85 89,43 118,64 191,137 134,132 200,253 251,459 32,124 32,433 1,567 -75,322 -260,546 -528,638 -69,24 -99,28 -220,31 -77,2 -162,0 -190,-4 z m 243,-322 c 243,-84 377,-344 359,-694 -14,-264 -122,-451 -314,-546 -80,-40 -95,-44 -180,-47 -253,-11 -444,145 -522,428 -58,209 -28,482 71,647 121,200 364,288 586,212 z"
           id="path7385"
           style="fill:#ffffff;fill-opacity:1;stroke-width:0.540838" />
        <path
           d="m 4420,3300 v -150 h 41 c 55,0 95,-25 118,-75 16,-36 170,-390 505,-1169 64,-149 116,-278 116,-289 0,-28 -88,-234 -125,-292 -35,-55 -97,-115 -143,-139 -110,-57 -261,-31 -363,61 l -38,34 -14,-23 c -13,-22 -29,-49 -100,-176 l -29,-53 23,-25 c 37,-40 140,-101 209,-125 87,-30 248,-37 343,-15 166,39 318,161 405,324 17,31 87,197 156,367 68,171 229,567 356,880 127,314 241,594 253,624 25,64 62,91 125,91 h 42 v 150 150 h -144 c -187,0 -239,-18 -292,-102 -14,-21 -70,-161 -125,-311 -55,-150 -148,-400 -205,-556 -58,-156 -117,-326 -132,-378 -14,-51 -29,-88 -32,-81 -4,7 -15,45 -25,83 -15,61 -84,237 -390,996 -83,207 -113,266 -150,296 -54,46 -84,53 -240,53 h -145 z"
           id="path7387"
           style="fill:#ffffff;fill-opacity:1;stroke-width:0.540838" />
      </g>
    </g>
    <g
       transform="translate(35396.704,-1027.6113)"
       fill="#000000"
       stroke="none"
       id="g16"
       style="fill:#ffffff;fill-opacity:1">
      <path
         d="m 4140,12600 c -797,-150 -1497,-482 -2105,-998 -144,-123 -404,-386 -529,-537 -481,-580 -811,-1268 -950,-1980 -69,-358 -81,-483 -79,-825 1,-232 17,-537 28,-548 5,-5 426,46 432,52 3,3 0,67 -6,143 -58,719 82,1439 406,2087 574,1148 1636,1944 2888,2166 66,12 121,23 123,25 3,3 -40,320 -55,403 -6,38 -12,39 -153,12 z"
         id="path2"
         style="fill:#ffffff;fill-opacity:1" />
      <path
         d="m 5545,12608 c -7,-20 -55,-372 -55,-401 0,-22 5,-26 43,-32 692,-110 1323,-390 1889,-840 130,-103 452,-419 555,-545 395,-484 644,-963 802,-1546 104,-385 155,-865 132,-1240 -6,-99 -14,-193 -17,-211 -5,-28 -3,-33 17,-37 47,-10 411,-47 416,-42 27,27 37,640 14,881 -85,912 -408,1711 -980,2425 -128,160 -421,461 -576,592 -613,517 -1327,854 -2100,989 -130,22 -134,23 -140,7 z"
         id="path4"
         style="fill:#ffffff;fill-opacity:1" />
      <path
         d="m 3975,11505 c -389,-114 -760,-296 -1075,-528 -295,-218 -566,-493 -767,-777 -228,-322 -408,-703 -512,-1080 -57,-206 -105,-519 -117,-757 l -7,-133 h 225 225 l 6,153 c 29,705 341,1410 852,1923 231,232 467,408 735,548 163,85 444,196 568,226 28,6 55,16 58,21 5,9 -94,409 -105,421 -3,3 -42,-4 -86,-17 z"
         id="path6"
         style="fill:#ffffff;fill-opacity:1" />
      <path
         d="m 5761,11483 c -5,-21 -28,-108 -50,-194 -23,-86 -41,-165 -41,-175 0,-15 13,-23 63,-36 250,-65 586,-220 827,-381 217,-144 462,-364 637,-572 97,-114 245,-333 327,-482 215,-390 341,-858 359,-1333 l 3,-75 222,-3 222,-2 v 42 c 0,86 -21,327 -40,458 -90,617 -354,1204 -756,1684 -172,204 -286,315 -494,481 -340,272 -747,485 -1147,600 -114,33 -120,33 -132,-12 z"
         id="path8"
         style="fill:#ffffff;fill-opacity:1" />
      <path
         d="m 4645,10615 c -278,-30 -547,-111 -814,-247 -468,-237 -845,-618 -1071,-1083 -114,-232 -173,-416 -223,-690 -21,-119 -21,-135 -27,-1670 -6,-1713 0,-1567 -70,-1706 -47,-92 -172,-214 -269,-262 -40,-21 -79,-37 -85,-37 -6,0 -27,30 -46,66 -41,77 -130,179 -208,236 -108,80 -239,121 -392,121 -509,1 -831,-540 -593,-996 56,-106 174,-222 281,-276 206,-103 419,-105 617,-7 139,70 235,168 310,320 l 40,80 90,26 c 238,70 423,200 574,404 85,115 164.7453,290.6517 180.7453,414.6517 4,28 8.8015,50.9027 10.2547,56.3483 -0.3445,8.2434 8,330 9,727 1,397 3,724 5,725 2,2 36,-38 76,-89 213,-269 515,-509 836,-665 l 134,-65 V 4621 c 0,-1118 -3,-1386 -14,-1431 -57,-234 -220,-403 -441,-460 -129,-33 -134,-31 -172,49 -66,139 -173,246 -318,316 -109,53 -171,66 -293,66 -166,-1 -297,-48 -428,-152 -247,-197 -317,-552 -166,-844 25,-49 61,-95 121,-155 100,-99 187,-148 321,-181 209,-53 444,8 609,157 62,56 139,162 167,230 20,49 28,54 87,54 78,0 230,38 335,84 129,56 229,123 325,220 175,176 279,392 306,639 7,63 11,533 11,1372 0,1227 1,1275 18,1275 10,0 65,-7 123,-16 127,-20 473,-23 599,-5 47,6 106,14 132,18 l 48,6 2,-1354 3,-1354 27,-98 c 32,-114 97,-256 159,-344 176,-248 467,-419 754,-441 l 90,-7 45,-85 c 82,-154 209,-267 374,-331 106,-41 252,-51 370,-25 395,88 626,495 499,878 -24,73 -89,186 -140,243 -73,82 -219,169 -338,200 -76,20 -241,20 -322,1 -190,-44 -359,-180 -450,-365 l -37,-73 -59,7 c -33,3 -88,17 -123,29 -182,66 -311,198 -378,386 l -31,85 -3,1393 -2,1392 42,17 c 143,57 393,207 555,333 106,83 293,270 378,379 39,49 73,90 78,90 4,1 7,-313 7,-696 0,-546 3,-717 14,-783 66,-409 357,-736 753,-848 l 93,-26 47,-95 c 39,-80 61,-110 132,-181 91,-90 173,-139 296,-176 93,-28 268,-26 365,4 197,61 338,183 427,367 109,230 71,518 -96,718 -182,218 -467,296 -745,203 -147,-50 -289,-170 -366,-311 -47,-85 -42,-83 -136,-38 -150,73 -269,217 -320,389 -17,55 -18,148 -20,1479 -2,781 -5,1469 -9,1530 -18,335 -102,652 -250,944 -187,369 -441,665 -770,896 -143,101 -451,259 -605,309 -331,110 -693,148 -1045,111 z m 517,-446 c 279,-29 587,-144 848,-317 390,-260 691,-686 804,-1139 81,-325 81,-672 1,-980 -121,-461 -410,-865 -816,-1138 -181,-122 -490,-251 -689,-289 -399,-74 -795,-35 -1148,113 -527,220 -945,677 -1116,1220 -59,186 -78,310 -83,546 -5,195 -3,235 17,349 28,165 69,310 131,457 234,553 735,985 1309,1129 274,69 445,80 742,49 z M 1551,4872 c 96,-50 147,-172 114,-272 -45,-134 -201,-204 -321,-142 -148,75 -179,257 -64,372 75,76 176,92 271,42 z m 6925,13 c 189,-79 199,-338 17,-426 -154,-74 -333,40 -333,213 0,92 64,183 151,214 47,17 123,17 165,-1 z M 2877,2696 c 140,-72 171,-254 64,-369 -85,-93 -237,-97 -325,-10 -51,51 -67,85 -73,154 -10,102 54,198 154,235 46,17 138,12 180,-10 z m 4264,9 c 152,-54 202,-261 91,-378 -46,-49 -99,-71 -173,-71 -57,0 -74,4 -115,30 -104,64 -143,196 -90,301 55,110 172,158 287,118 z"
         id="path10"
         sodipodi:nodetypes="cccccccsccccccccccccsccccscccccccccccscccsscccccccccccccccccccccccccccccscccccccccccccccccccccccccccccccccccccccsccccccccccsccc"
         style="fill:#ffffff;fill-opacity:1" />
      <path
         d="m 4750,9634 c -266,-33 -506,-135 -726,-310 -264,-209 -458,-546 -510,-888 -21,-132 -13,-373 15,-499 66,-288 183,-501 390,-708 264,-265 573,-401 946,-416 277,-12 537,56 779,201 428,257 687,708 688,1196 0,331 -92,609 -287,869 -150,199 -332,343 -562,445 -180,80 -311,107 -533,111 -91,2 -181,1 -200,-1 z m 380,-459 c 281,-67 511,-245 645,-498 156,-297 150,-665 -17,-940 -238,-390 -683,-566 -1116,-441 -276,80 -518,297 -622,558 -42,103 -59,175 -72,301 -43,420 227,834 643,986 46,17 122,37 169,44 102,17 276,12 370,-10 z"
         id="path12"
         style="fill:#ffffff;fill-opacity:1" />
      <path
         d="m 4800,8664 c -99,-27 -209,-108 -266,-196 -63,-98 -83,-248 -49,-365 23,-77 45,-119 94,-175 112,-127 288,-178 462,-133 79,21 119,44 187,109 188,180 188,461 2,646 -114,113 -274,156 -430,114 z"
         id="path14"
         style="fill:#ffffff;fill-opacity:1" />
    </g>
  </g>
</svg>
