<?xml version="1.0" encoding="UTF-8"?>
<svg width="3756.4pt" height="876.81pt" preserveAspectRatio="xMidYMid" version="1.0" viewBox="-1 0 3756.4 876.81" xmlns="http://www.w3.org/2000/svg" xmlns:xlink="http://www.w3.org/1999/xlink">
 <g transform="matrix(.1 0 0 -.1 -805.7 1029.8)" fill="#fff">
  <g transform="matrix(10.532 0 0 -10.532 19217 15416)">
   <g transform="matrix(.2004 0 0 -.2004 -1168.8 1405.9)" stroke-width=".54084">
    <g fill="#000">
     <path d="m546 4165c-8-21-8-248 0-269 5-13 23-16 93-16 97-1 117-10 131-61 6-21 10-455 10-1121v-1088h350v860h113c97 0 117-3 151-23 43-24 38-16 271-447 211-393 199-383 483-388l192-4v302h-72c-94 0-141 14-170 49-14 15-91 151-174 301-91 167-165 290-191 318-24 25-43 47-43 49s25 29 55 61c30 31 169 215 310 407l255 350-192 3c-106 1-197 1-203-2-5-2-109-141-229-310-265-369-249-356-438-356h-118v613c0 336-5 630-10 651-12 53-38 87-86 111-35 18-63 20-260 23-199 3-222 2-228-13z"/>
     <path d="m9590 3494c-14-2-59-9-100-15-293-42-570-241-703-505-80-160-110-315-97-506 9-128 19-176 55-276 71-196 215-371 396-479 107-64 188-96 317-123 134-29 353-25 474 8 295 80 523 265 647 525 116 243 115 567-3 823-150 324-476 531-864 548-53 3-108 3-122 0zm285-338c152-51 290-170 359-311 49-101 69-189 69-315 2-208-80-388-232-514-64-53-116-81-206-111-160-54-376-30-511 57-199 127-305 327-306 578-1 114 17 194 71 305 131 275 458 409 756 311z"/>
     <path d="m3238 3480c-287-52-527-231-648-486-176-369-116-842 143-1120 89-95 169-155 281-209 256-124 571-130 856-18 117 46 299 162 300 190 0 13-138 243-146 243-2 0-27-18-56-40-113-86-288-153-432-166-191-17-418 74-531 213-80 98-145 259-145 360v43h1337l6 73c7 86-6 245-29 335-70 278-243 471-499 558-71 24-98 27-235 30-85 1-176-1-202-6zm281-281c114-26 206-101 263-216 36-72 66-197 55-227-6-14-56-16-487-16-391 0-480 2-480 13 0 7 7 38 16 68 84 282 351 442 633 378z"/>
     <path d="m7443 3480c-154-28-324-135-426-270l-26-35-1 70c0 92-28 150-85 179-37 19-58 21-253 21h-213l-1-145v-145l95-5c59-3 101-10 109-18 10-10 14-234 18-1130l5-1117h350l2 475c1 261 2 479 3 483 0 4 19-16 43-45 147-181 397-262 671-218 255 41 485 228 591 480 149 352 116 805-79 1099-54 80-158 181-240 230-31 18-95 47-143 64-79 27-103 30-228 33-77 2-163-1-192-6zm187-304c204-43 343-191 401-426 17-67 22-116 22-230 0-129-3-155-27-235-36-119-85-204-159-276-104-102-220-145-367-137-77 5-99 10-172 46-144 70-245 203-294 387-26 98-27 371-1 465 80 296 326 463 597 406z"/>
     <path d="m11895 3481c-159-27-350-146-422-263-31-50-40-41-40 36-1 102-27 148-106 181-29 12-80 15-242 15h-205v-300h93c83 0 96-3 113-21 18-20 19-56 22-1135l2-1114h350l2 485 3 485 43-55c112-144 304-227 522-227 137 1 236 24 360 85 89 43 118 64 191 137 134 132 200 253 251 459 32 124 32 433 1 567-75 322-260 546-528 638-69 24-99 28-220 31-77 2-162 0-190-4zm243-322c243-84 377-344 359-694-14-264-122-451-314-546-80-40-95-44-180-47-253-11-444 145-522 428-58 209-28 482 71 647 121 200 364 288 586 212z"/>
    </g>
    <path d="m4420 3300v-150h41c55 0 95-25 118-75 16-36 170-390 505-1169 64-149 116-278 116-289 0-28-88-234-125-292-35-55-97-115-143-139-110-57-261-31-363 61l-38 34-14-23c-13-22-29-49-100-176l-29-53 23-25c37-40 140-101 209-125 87-30 248-37 343-15 166 39 318 161 405 324 17 31 87 197 156 367 68 171 229 567 356 880 127 314 241 594 253 624 25 64 62 91 125 91h42v300h-144c-187 0-239-18-292-102-14-21-70-161-125-311s-148-400-205-556c-58-156-117-326-132-378-14-51-29-88-32-81-4 7-15 45-25 83-15 61-84 237-390 996-83 207-113 266-150 296-54 46-84 53-240 53h-145z" fill="#0194d5"/>
   </g>
  </g>
  <g transform="matrix(131.18 0 0 -131.18 34675 12477)" fill-rule="evenodd" featurekey="nRdZyp-0">
   <g fill-rule="evenodd">
    <path d="m44.059 35.002c-0.76775 0-1.5354 0.29303-2.1214 0.87903l-10.061 10.062-3.9659-3.966c-1.171-1.171-3.0711-1.172-4.2431 0-4.589 4.588-7.1159 10.689-7.1159 17.179 0 5.4714 1.8027 10.663 5.1161 14.908l1.9558 2.2594 2.2866 2.0113 0.01251-0.01251c4.248 3.321 9.444 5.127 14.922 5.127 6.489 0 12.59-2.527 17.178-7.115 0.563-0.563 0.87892-1.326 0.87892-2.122 0-0.795-0.31592-1.559-0.87892-2.121l-3.964-3.964 10.129-10.056c1.176-1.167 1.183-3.067 0.01496-4.243-1.166-1.175-3.065-1.1821-4.242-0.01508l-10.144 10.071-13.698-13.698 10.062-10.062c1.172-1.172 1.172-3.071 0-4.243-0.586-0.586-1.3538-0.87903-2.1215-0.87903zm-18.097 13.51 25.527 25.527c-3.084 2.215-6.7721 3.41-10.643 3.41-4.708 0-9.134-1.7811-12.542-5.0001-0.1092-0.11086-0.20947-0.19016-0.3364-0.31987-0.12692-0.12971-0.28354-0.29114-0.41456-0.43209-3.219-3.407-5.0001-7.8331-5.0001-12.542 0-3.872 1.195-7.56 3.409-10.643z" fill="#000"/>
    <path d="m59.1 16.609c-6.49 0-12.591 2.5269-17.179 7.1159-1.171 1.171-1.171 3.0711 0 4.2431l30.114 30.113c0.562 0.563 1.326 0.87903 2.121 0.87903 0.796 0 1.559-0.31603 2.122-0.87903 8.718-8.719 9.3925-22.462 2.0608-31.981 0 0-1.3023-1.6188-2.0363-2.358s-2.3579-2.0656-2.3579-2.0656c-4.234-3.2827-9.3999-5.0676-14.845-5.0676zm0 5.9999c4.887 0 9.48 1.9021 12.935 5.3571 6.41 6.411 7.059 16.434 1.947 23.577l-25.525-25.525c3.083-2.214 6.771-3.409 10.643-3.409z" fill="#0194d5"/>
    <path d="m24.004 36.992c0.585 0.586 1.354 0.879 2.121 0.879s1.536-0.293 2.121-0.879c1.172-1.171 1.172-3.071 0-4.242l-7.573-7.573c-1.171-1.172-3.071-1.172-4.242 0-1.172 1.171-1.172 3.071 0 4.242z" fill="#0194d5"/>
    <path d="m30.685 30.357c0.242 1.47 1.514 2.514 2.957 2.514 0.161 0 0.325-0.013 0.49-0.04 1.635-0.269 2.743-1.812 2.474-3.447l-1.573-9.573c-0.269-1.635-1.812-2.743-3.447-2.474s-2.743 1.812-2.474 3.447z" fill="#000"/>
   </g>
  </g>
 </g>
</svg>
