<?xml version="1.0" encoding="UTF-8" standalone="no"?>
<svg
   version="1.0"
   width="3756.4331pt"
   height="876.81293pt"
   viewBox="-1 0 3756.432 876.8126"
   preserveAspectRatio="xMidYMid"
   id="svg8"
   sodipodi:docname="logo-src.svg"
   inkscape:version="1.2.2 (732a01da63, 2022-12-09)"
   xmlns:inkscape="http://www.inkscape.org/namespaces/inkscape"
   xmlns:sodipodi="http://sodipodi.sourceforge.net/DTD/sodipodi-0.dtd"
   xmlns:xlink="http://www.w3.org/1999/xlink"
   xmlns="http://www.w3.org/2000/svg"
   xmlns:svg="http://www.w3.org/2000/svg">
  <defs
     id="defs12">
    <color-profile
       name="_09D5"
       xlink:href="../../../../../Windows/system32/spool/drivers/color/Dell_Inspiron_16_Plus_7620_3K_BOE09D5.icm"
       id="color-profile23121" />
  </defs>
  <sodipodi:namedview
     id="namedview10"
     pagecolor="#ffffff"
     bordercolor="#000000"
     borderopacity="0.25"
     inkscape:showpageshadow="2"
     inkscape:pageopacity="0"
     inkscape:pagecheckerboard="true"
     inkscape:deskcolor="#d1d1d1"
     inkscape:document-units="pt"
     showgrid="false"
     inkscape:zoom="0.48889805"
     inkscape:cx="1436.9049"
     inkscape:cy="1251.7947"
     inkscape:window-width="4480"
     inkscape:window-height="2396"
     inkscape:window-x="3572"
     inkscape:window-y="-12"
     inkscape:window-maximized="1"
     inkscape:current-layer="g6" />
  <g
     transform="matrix(0.1,0,0,-0.1,-805.69574,1029.8249)"
     fill="#000000"
     stroke="none"
     id="g6">
    <g
       id="g30"
       style="fill:#ffffff;fill-opacity:1;stroke:none;stroke-opacity:1"
       transform="matrix(10.531547,0,0,-10.531547,19216.504,15416.251)">
      <g
         id="g7520"
         transform="matrix(0.20039657,0,0,-0.20039657,-1168.794,1405.9389)"
         style="fill:#ffffff;fill-opacity:1;stroke-width:0.540838">
        <path
           d="m 546,4165 c -8,-21 -8,-248 0,-269 5,-13 23,-16 93,-16 97,-1 117,-10 131,-61 6,-21 10,-455 10,-1121 V 1610 h 175 175 v 430 430 h 113 c 97,0 117,-3 151,-23 43,-24 38,-16 271,-447 211,-393 199,-383 483,-388 l 192,-4 v 151 151 h -72 c -94,0 -141,14 -170,49 -14,15 -91,151 -174,301 -91,167 -165,290 -191,318 -24,25 -43,47 -43,49 0,2 25,29 55,61 30,31 169,215 310,407 l 255,350 -192,3 c -106,1 -197,1 -203,-2 -5,-2 -109,-141 -229,-310 -265,-369 -249,-356 -438,-356 h -118 v 613 c 0,336 -5,630 -10,651 -12,53 -38,87 -86,111 -35,18 -63,20 -260,23 -199,3 -222,2 -228,-13 z"
           id="path7377"
           style="fill:#ffffff;fill-opacity:1;stroke-width:0.540838" />
        <path
           d="m 9590,3494 c -14,-2 -59,-9 -100,-15 -293,-42 -570,-241 -703,-505 -80,-160 -110,-315 -97,-506 9,-128 19,-176 55,-276 71,-196 215,-371 396,-479 107,-64 188,-96 317,-123 134,-29 353,-25 474,8 295,80 523,265 647,525 116,243 115,567 -3,823 -150,324 -476,531 -864,548 -53,3 -108,3 -122,0 z m 285,-338 c 152,-51 290,-170 359,-311 49,-101 69,-189 69,-315 2,-208 -80,-388 -232,-514 -64,-53 -116,-81 -206,-111 -160,-54 -376,-30 -511,57 -199,127 -305,327 -306,578 -1,114 17,194 71,305 131,275 458,409 756,311 z"
           id="path7379"
           style="fill:#ffffff;fill-opacity:1;stroke-width:0.540838" />
        <path
           d="m 3238,3480 c -287,-52 -527,-231 -648,-486 -176,-369 -116,-842 143,-1120 89,-95 169,-155 281,-209 256,-124 571,-130 856,-18 117,46 299,162 300,190 0,13 -138,243 -146,243 -2,0 -27,-18 -56,-40 -113,-86 -288,-153 -432,-166 -191,-17 -418,74 -531,213 -80,98 -145,259 -145,360 v 43 h 669 668 l 6,73 c 7,86 -6,245 -29,335 -70,278 -243,471 -499,558 -71,24 -98,27 -235,30 -85,1 -176,-1 -202,-6 z m 281,-281 c 114,-26 206,-101 263,-216 36,-72 66,-197 55,-227 -6,-14 -56,-16 -487,-16 -391,0 -480,2 -480,13 0,7 7,38 16,68 84,282 351,442 633,378 z"
           id="path7381"
           style="fill:#ffffff;fill-opacity:1;stroke-width:0.540838" />
        <path
           d="m 7443,3480 c -154,-28 -324,-135 -426,-270 l -26,-35 -1,70 c 0,92 -28,150 -85,179 -37,19 -58,21 -253,21 h -213 l -1,-145 v -145 l 95,-5 c 59,-3 101,-10 109,-18 10,-10 14,-234 18,-1130 l 5,-1117 h 175 175 l 2,475 c 1,261 2,479 3,483 0,4 19,-16 43,-45 147,-181 397,-262 671,-218 255,41 485,228 591,480 149,352 116,805 -79,1099 -54,80 -158,181 -240,230 -31,18 -95,47 -143,64 -79,27 -103,30 -228,33 -77,2 -163,-1 -192,-6 z m 187,-304 c 204,-43 343,-191 401,-426 17,-67 22,-116 22,-230 0,-129 -3,-155 -27,-235 -36,-119 -85,-204 -159,-276 -104,-102 -220,-145 -367,-137 -77,5 -99,10 -172,46 -144,70 -245,203 -294,387 -26,98 -27,371 -1,465 80,296 326,463 597,406 z"
           id="path7383"
           style="fill:#ffffff;fill-opacity:1;stroke-width:0.540838" />
        <path
           d="m 11895,3481 c -159,-27 -350,-146 -422,-263 -31,-50 -40,-41 -40,36 -1,102 -27,148 -106,181 -29,12 -80,15 -242,15 h -205 v -150 -150 h 93 c 83,0 96,-3 113,-21 18,-20 19,-56 22,-1135 l 2,-1114 h 175 175 l 2,485 3,485 43,-55 c 112,-144 304,-227 522,-227 137,1 236,24 360,85 89,43 118,64 191,137 134,132 200,253 251,459 32,124 32,433 1,567 -75,322 -260,546 -528,638 -69,24 -99,28 -220,31 -77,2 -162,0 -190,-4 z m 243,-322 c 243,-84 377,-344 359,-694 -14,-264 -122,-451 -314,-546 -80,-40 -95,-44 -180,-47 -253,-11 -444,145 -522,428 -58,209 -28,482 71,647 121,200 364,288 586,212 z"
           id="path7385"
           style="fill:#ffffff;fill-opacity:1;stroke-width:0.540838" />
        <path
           d="m 4420,3300 v -150 h 41 c 55,0 95,-25 118,-75 16,-36 170,-390 505,-1169 64,-149 116,-278 116,-289 0,-28 -88,-234 -125,-292 -35,-55 -97,-115 -143,-139 -110,-57 -261,-31 -363,61 l -38,34 -14,-23 c -13,-22 -29,-49 -100,-176 l -29,-53 23,-25 c 37,-40 140,-101 209,-125 87,-30 248,-37 343,-15 166,39 318,161 405,324 17,31 87,197 156,367 68,171 229,567 356,880 127,314 241,594 253,624 25,64 62,91 125,91 h 42 v 150 150 h -144 c -187,0 -239,-18 -292,-102 -14,-21 -70,-161 -125,-311 -55,-150 -148,-400 -205,-556 -58,-156 -117,-326 -132,-378 -14,-51 -29,-88 -32,-81 -4,7 -15,45 -25,83 -15,61 -84,237 -390,996 -83,207 -113,266 -150,296 -54,46 -84,53 -240,53 h -145 z"
           id="path7387"
           style="fill:#ffffff;fill-opacity:1;stroke-width:0.540838" />
      </g>
    </g>
    <g
       id="SvgjsG1012"
       featurekey="nRdZyp-0"
       transform="matrix(131.18104,0,0,-131.18104,34674.632,12477.042)"
       fill="#ffffff"
       style="fill:#ffffff;fill-opacity:1;fill-rule:evenodd">
      <g
         id="g12"
         style="fill:#ffffff;fill-opacity:1;fill-rule:evenodd">
        <path
           id="path4"
           style="fill:#ffffff;fill-opacity:1;fill-rule:evenodd"
           d="m 44.059468,35.001977 c -0.767749,0 -1.535428,0.293033 -2.121427,0.879033 l -10.06109,10.061983 -3.965923,-3.966035 c -1.170999,-1.170999 -3.071079,-1.171999 -4.243078,0 -4.588995,4.587996 -7.115904,10.68901 -7.115904,17.179004 0,5.471439 1.802678,10.662541 5.116081,14.907721 l 1.955823,2.259422 2.286585,2.011349 0.01251,-0.01251 c 4.247996,3.320997 9.44402,5.127024 14.922015,5.127024 6.488993,0 12.590003,-2.527015 17.177998,-7.11501 0.563,-0.563 0.878922,-1.325987 0.878922,-2.121986 0,-0.794999 -0.315922,-1.558981 -0.878922,-2.12098 L 54.05903,68.12697 64.188012,58.071017 c 1.175999,-1.166999 1.182962,-3.066967 0.01496,-4.242966 -1.165998,-1.174999 -3.064962,-1.182074 -4.24196,-0.01508 L 49.816957,63.884004 36.119023,50.185959 46.181007,40.123976 c 1.171998,-1.171999 1.171998,-3.070967 0,-4.242966 -0.586,-0.586 -1.35379,-0.879033 -2.121539,-0.879033 z m -18.097455,13.51 25.527028,25.527028 c -3.083997,2.214998 -6.772096,3.41005 -10.643092,3.41005 -4.707995,0 -9.133973,-1.781063 -12.541969,-5.00006 -0.109197,-0.110858 -0.209472,-0.190159 -0.336398,-0.31987 -0.126925,-0.12971 -0.283545,-0.291135 -0.414555,-0.432087 -3.218996,-3.406997 -5.00006,-7.833086 -5.00006,-12.542081 0,-3.871996 1.195048,-7.559983 3.409046,-10.64298 z"
           sodipodi:nodetypes="sccccsccccssscccccccsssccsczcsc" />
        <path
           id="path6"
           style="fill:#ffffff;fill-opacity:1;fill-rule:evenodd"
           d="m 59.099959,16.609054 c -6.489993,0 -12.591008,2.526908 -17.179003,7.115904 -1.170999,1.170999 -1.170999,3.071078 0,4.243077 l 30.114036,30.11292 c 0.562,0.563 1.325982,0.879033 2.120981,0.879033 0.795999,0 1.558986,-0.316033 2.121985,-0.879033 8.718006,-8.719002 9.392538,-22.46156 2.060793,-31.980642 0,0 -1.302309,-1.618782 -2.036285,-2.357998 -0.733976,-0.739216 -2.357877,-2.065643 -2.357877,-2.065643 -4.234027,-3.282663 -9.399928,-5.067618 -14.84463,-5.067618 z m 0,5.999916 c 4.886996,0 9.480037,1.902059 12.935033,5.357055 6.409994,6.410994 7.059,16.434016 1.947005,23.577008 L 48.456979,26.018015 c 3.082997,-2.213998 6.770984,-3.409045 10.64298,-3.409045 z"
           sodipodi:nodetypes="scccscczcsscccs" />
        <path
           fill="#ffffff"
           d="m 24.004,36.992 c 0.585,0.586 1.354,0.879 2.121,0.879 0.767,0 1.536,-0.293 2.121,-0.879 1.172,-1.171 1.172,-3.071 0,-4.242 l -7.573,-7.573 c -1.171,-1.172 -3.071,-1.172 -4.242,0 -1.172,1.171 -1.172,3.071 0,4.242 z"
           id="path8"
           style="fill:#ffffff;fill-opacity:1;fill-rule:evenodd" />
        <path
           fill="#ffffff"
           d="m 30.685,30.357 c 0.242,1.47 1.514,2.514 2.957,2.514 0.161,0 0.325,-0.013 0.49,-0.04 1.635,-0.269 2.743,-1.812 2.474,-3.447 l -1.573,-9.573 c -0.269,-1.635 -1.812,-2.743 -3.447,-2.474 -1.635,0.269 -2.743,1.812 -2.474,3.447 z"
           id="path10"
           style="fill:#ffffff;fill-opacity:1;fill-rule:evenodd" />
      </g>
    </g>
  </g>
</svg>
